<?xml version="1.0" encoding="UTF-8"?><svg id="Calque_2" xmlns="http://www.w3.org/2000/svg" viewBox="0 0 300.79 1006.05"><defs><style>.cls-1{fill:#f3f3f3;}.cls-2{fill:#00a651;}</style></defs><g id="Layer_1"><g><path class="cls-1" d="M212.54,24.44c1.11-2.52,3.25-4.28,3.25-4.28,0-10.07-7.74-20.16-19.5-20.16H104.51c-11.77,0-19.5,10.09-19.5,20.16,0,0,2.15,1.76,3.26,4.28,.69,1.57,.98,3.69,.99,5.43h122.28c0-1.73,.3-3.85,1-5.43Z"/><path class="cls-1" d="M277.65,368.38c.23-.19,.42-.42,.61-.64-32.5,2.51-74.32,4-127.86,4s-96.69-1.58-128.05-4.21c.25,.31,.51,.6,.8,.85,0,0-31.19,99.82-14.66,193.21,43.95,8.23,92.97,14.34,141.92,14.34s98.92-4.96,143.2-11.61c-.77-1.53-1.38-2.11-1.38-2.11,16.76-93.57-14.57-193.83-14.57-193.83Z"/><g><path class="cls-2" d="M273.36,777.01c0-2.88-.02-5.68-.04-8.44,.61-14.78,1.95-25.64,1.96-29.55,.01-10.5,18.04-120.14,20.71-145.48,1.84-17.52-.67-25.79-2.4-29.22-44.28,6.66-93.77,11.61-143.2,11.61s-97.97-6.11-141.92-14.34c.04,.2,.06,.41,.1,.61,0,0-6.45,6-3.79,31.33,2.68,25.35,20.71,134.98,20.72,145.48,0,3.95,1.38,15,1.97,30.01,0,2.62-.01,5.26-.01,7.98,0,66.55-27.47,98.95-27.47,141.99,0,57.26,36.33,87.05,150.45,87.05s150.35-29.79,150.35-87.05c0-43.05-27.43-75.45-27.43-141.99Z"/><path class="cls-2" d="M150.4,371.73c53.55,0,95.37-1.49,127.86-4,9.76-10.93-12.72-58.94-12.72-58.94-5.42-12.87-11.18-27.44-16.55-41.39-11.81-30.72-21.68-58.44-21.68-58.44-.04,0-.1-.03-.17-.05-3.42-13.17-8-32.49-11.55-53.63-3.08-32.38-3.37-65.32-3.37-75.94,0-8.23,10.58-7.85,10.58-15.31,0-8.7-10.49-29.91-11.1-32.1-.12-.53-.16-1.27-.16-2.08H89.26c0,.8-.04,1.55-.16,2.08-.6,2.19-11.09,23.46-11.09,32.1,0,7.46,10.58,7.08,10.58,15.31,0,10.59-.29,43.38-3.33,75.69-3.56,21.23-8.15,40.65-11.59,53.88-.08,.02-.13,.04-.17,.05,0,0-9.88,27.72-21.69,58.44-5.36,13.95-11.13,28.52-16.55,41.39,0,0-22.19,47.39-12.91,58.73,31.36,2.63,73.06,4.21,128.05,4.21Z"/></g></g></g></svg>
