<?xml version="1.0" encoding="UTF-8"?><svg id="Calque_2" xmlns="http://www.w3.org/2000/svg" viewBox="0 0 2150.11 1352.81"><defs><style>.cls-1{fill:#0182c8;}.cls-2{fill:#fff;}</style></defs><g id="Layer_1"><g><path class="cls-1" d="M796.82,0L0,255.27,353.97,1352.81l796.82-255.27L796.82,0Zm261.13,909.2l-342.42,109.7-7.68-23.82,342.42-109.7,7.68,23.82Zm-11.92-36.95l-342.42,109.7-7.68-23.82,342.42-109.7,7.68,23.82Zm-11.92-36.94l-342.42,109.7-7.69-23.83,342.42-109.7,7.69,23.83Zm-11.92-36.96l-342.42,109.7-7.68-23.82,342.42-109.7,7.68,23.82Zm-322.31-6.48l17.56,54.45-63.03,20.19-17.56-54.45,63.03-20.19Zm-71.02-4.58l-17.56-54.45,63.03-20.19,17.56,54.46-63.03,20.19Zm84.58-43.99l-7.14-22.12,74.11-23.74,7.13,22.12-74.11,23.74Zm93.32,35.82l6.59,20.42-74.11,23.74-6.59-20.42,74.11-23.74ZM56.36,273.05L768.51,44.9l27.64,85.7L84,358.75l-27.64-85.7Zm83.12,258.49l726.39-232.7,7.68,23.82L147.16,555.36l-7.69-23.83Zm12.33,38.22l726.39-232.7,7.68,23.82L159.49,593.57l-7.68-23.82Zm12.32,38.21l726.39-232.7,7.69,23.83L171.81,631.79l-7.69-23.83Zm12.33,38.22l726.39-232.7,7.68,23.82L184.14,670l-7.68-23.82Zm12.32,38.21l726.39-232.7,7.68,23.82L196.46,708.21l-7.68-23.82Zm12.32,38.21l726.39-232.7,7.69,23.83L208.79,746.43l-7.69-23.83Zm12.33,38.22l726.39-232.7,7.68,23.82L221.11,784.64l-7.68-23.82Zm12.32,38.21l726.39-232.7,7.68,23.82L233.43,822.85l-7.68-23.82Zm219.79,95.81l6.59,20.42-74.11,23.74-6.59-20.42,74.11-23.74Zm-93.31-35.82l-7.14-22.13,74.11-23.74,7.14,22.13-74.1,23.74Zm-109.72-8.04l63.02-20.19,17.56,54.46-63.02,20.19-17.56-54.45Zm25.55,79.23l63.02-20.19,17.56,54.45-63.02,20.19-17.56-54.45Zm24.39,75.63l342.41-109.7,7.68,23.82-342.41,109.69-7.68-23.82Zm11.92,36.95l342.41-109.69,7.69,23.83-342.42,109.7-7.68-23.83Zm11.92,36.96l342.41-109.7,7.68,23.82-342.41,109.7-7.68-23.82Zm11.92,36.95l342.41-109.69,7.68,23.82-342.42,109.7-7.68-23.82Zm11.92,36.95l342.42-109.69,7.68,23.82-342.41,109.7-7.68-23.82Zm11.92,36.95l342.41-109.69,7.68,23.82-342.41,109.69-7.68-23.82Zm11.92,36.95l342.42-109.69,7.68,23.82-342.41,109.7-7.68-23.82Zm19.6,60.77l-7.68-23.82,342.41-109.69,7.68,23.82-342.41,109.69Zm336.21-256.3l342.42-109.7,7.68,23.82-342.42,109.7-7.69-23.82Zm11.92,36.96l342.42-109.7,7.68,23.82-342.42,109.7-7.68-23.82Zm11.92,36.95l342.42-109.7,7.68,23.82-342.42,109.7-7.68-23.82Zm11.92,36.96l342.42-109.7,7.68,23.82-342.42,109.7-7.68-23.82Z"/><g><polygon class="cls-1" points="854.92 1232.33 2150.11 1230.83 2150.03 1158.03 875.51 1159.51 854.92 1232.33"/><path class="cls-1" d="M854.92,1232.33c45.48-.05,50.9-78.35,50.9-78.35l1143.79-1.32-1.24-1060.82-1242.9,1.44,1.26,1085.17c4.86,21.14,17.36,53.93,48.18,53.89Z"/><rect class="cls-1" x="906.12" y="6.4" width="1242.91" height="1159.91" transform="translate(-.68 1.77) rotate(-.07)"/><rect class="cls-2" x="1675.88" y="159.68" width="373.5" height="88.82" transform="translate(-.24 2.16) rotate(-.07)"/><rect class="cls-2" x="986.69" y="310.09" width="1118.62" height="51.02" transform="translate(-.39 1.79) rotate(-.07)"/><rect class="cls-2" x="990.65" y="391.08" width="593.31" height="355.15" transform="translate(-.66 1.49) rotate(-.07)"/><rect class="cls-2" x="1614.96" y="390.41" width="490.44" height="40.27" transform="translate(-.47 2.15) rotate(-.07)"/><rect class="cls-2" x="1615.08" y="495.37" width="490.44" height="40.28" transform="translate(-.6 2.16) rotate(-.07)"/><rect class="cls-2" x="1615.2" y="600.34" width="490.44" height="40.28" transform="translate(-.71 2.14) rotate(-.07)"/><rect class="cls-2" x="1615.33" y="705.3" width="490.44" height="40.27" transform="translate(-.84 2.16) rotate(-.07)"/><rect class="cls-2" x="1003.89" y="808.28" width="1067.9" height="146.19" transform="translate(-1.02 1.78) rotate(-.07)"/><rect class="cls-2" x="1004.08" y="1007.47" width="446.12" height="81.87" transform="translate(-1.21 1.42) rotate(-.07)"/><rect class="cls-2" x="1610.48" y="1006.76" width="461.5" height="81.87" transform="translate(-1.21 2.13) rotate(-.07)"/><rect class="cls-1" x="1004.2" y="1132.58" width="446.5" height="40.27" transform="translate(-1.34 1.42) rotate(-.07)"/><rect class="cls-2" x="1625.59" y="1131.87" width="446.51" height="40.27" transform="translate(-1.32 2.13) rotate(-.07)"/></g></g></g></svg>
