<?xml version="1.0" encoding="UTF-8"?><svg id="Calque_2" xmlns="http://www.w3.org/2000/svg" viewBox="0 0 674.12 1742.1"><defs><style>.cls-1{fill:#fff;}.cls-2{fill:#fcbf31;}</style></defs><g id="Layer_1"><g><path class="cls-2" d="M539.71,595.99l-3.47-18.72s-20.16-166.16-82.1-262.41c-61.66-95.81-151.11-124.75-155.94-147.56,3.78-7.24,5.27-14.67,3.97-21.96-.23-1.28-.57-2.53-.96-3.76-.06-1.29-.2-2.57-.43-3.86-1.73-9.7-6.9-18.18-18.02-24.38l-9.15-51.38c2.13,11.93-16.37,25.92-45.31,36.43-13.56-.66-28.23,.24-43.36,2.93-15.48,2.76-29.26,7.01-41.97,12.48-31.44,.31-53.65-6.54-55.81-18.64l9.53,53.49c-6.45,8.8-8.9,17.86-7.32,26.72,.23,1.28,.27,2.58,.66,3.82,.06,1.29,.02,2.6,.25,3.89,1.21,6.77,4.64,12.85,9.97,18.09,0,0-.09-.04-.09-.04,4.07,22.86-66.86,81.39-91.77,193.11-24.9,111.72,13.53,274.63,13.53,274.63l3.96,18.63c4,22.49,16.01,42.37,34.97,58.82l94.34,529.71c-7.08,16.49-9.21,33.23-6.98,49.9,0,0-.16,0-.16,0v.03c.24,1.3-.23,2.71,0,4.01,1.14,6.38,2.64,12.6,5.06,18.53l64.23,241.72s35.55,100.31,63.89,95.26l2.95-.53,6.79-1.21s14.16-2.54,22.17-14.02c0,0,8.78-8.88,14.95,5.24,6.17,14.13,14.87,25.37,14.87,25.37,0,0,21.64,36.47,54.82,40.84,1.42,.19,2.85,.34,4.3,.4,35.61,1.58,49.78-.95,49.78-.95,0,0,19,1.43,34.28-8.44,6.41-4.14,12.17-10.25,15.6-19.32,11.59-30.69,27.35-72.8,28.23-77.51,.93-5.04,5.31-6.12,18.17,2.86l39.67,29.48s3.23,2.98,8.42,5.07c9.5,3.81,25.6,4.59,40.74-21.44l23.44-40.27s16.95-38.2,13.16-80.01l-25.78-269.95c.28-6.64-.13-13.28-1.31-19.9-2.93-16.44-12.02-31.14-23.64-44.31-1.58-2.58-3.26-5.11-5.1-7.57-1.21-1.21-2.46-2.38-3.73-3.55l-88-519.03c12.76-22.93,17.93-47.02,13.7-70.75ZM153.71,1313.2c-.04-.22-.1-.44-.13-.66-.49-2.77-.81-5.55-1.03-8.33,.25,2.99,.64,5.99,1.16,8.99Zm20.26-525.68l-.79-4.12c-.5-1.06-1-2.14-1.5-3.21,24.56,3.72,51.27,4.96,79.21,3.44,.63,2.12,1.25,4.22,1.88,6.32-29.8,2-56.03,.73-78.79-2.43Zm222.96-27.97c-25.29,9.2-55.52,17.46-91.71,23.9-16.86,3-32.8,4.99-47.87,6.15-.62-2.07-1.24-4.16-1.85-6.25,16.44-1.07,33.29-3.09,50.37-6.13,32.27-5.74,62.5-14.61,89.72-25.79l1.34,8.12Zm237.75,467.31c.04,.25,.08,.49,.12,.74-.28-1.49-.58-2.98-.94-4.45,.31,1.23,.6,2.46,.82,3.7Zm-145.09-687.72c-7.3-4.38-15.23-8.38-23.7-11.99-2.14-31.16-5.89-62.32-11.8-92.68-14.59-54.3-56.58-120.9-97.83-173.97,19.8,7.61,48.19,24.83,75.2,56.31,42.48,64.73,57.45,143.37,58.12,222.33Z"/><path class="cls-1" d="M291.89,74.55c1.91,10.72-5.24,20.96-15.96,22.87l-174.82,31.13c-10.72,1.91-20.96-5.24-22.87-15.95l-10.38-58.29c-1.91-10.72,5.23-20.96,15.95-22.87L258.63,.31c10.72-1.91,20.96,5.24,22.87,15.96l10.38,58.29Z"/></g></g></svg>
