<svg width="513" height="343" viewBox="0 0 513 343" fill="none" xmlns="http://www.w3.org/2000/svg">
<g clip-path="url(#clip0_3_2369)">
<path d="M0 0.994141H513V342.994H0V0.994141Z" fill="#10338C"/>
<path d="M222.2 171.694C222.5 171.394 222.7 171.094 223 170.794C222.8 171.094 222.5 171.394 222.2 171.694ZM188 213.594L199 236.494L223.7 230.794L212.7 253.594L232.6 269.394L207.8 274.994L207.9 300.394L188 284.494L168.2 300.394L168.3 274.994L143.5 269.394L163.4 253.594L152.3 230.794L177.1 236.494L188 213.594ZM385.9 242.094L391.1 252.994L402.9 250.294L397.6 261.194L407.1 268.694L395.3 271.294V283.494L385.9 275.894L376.4 283.494L376.5 271.294L364.7 268.694L374.2 261.194L368.9 250.294L380.7 252.994L385.9 242.094ZM337.3 126.094L342.5 136.994L354.3 134.294L349 145.194L358.5 152.694L346.7 155.394V167.494L337.3 159.894L327.8 167.494L327.9 155.394L316 152.694L325.5 145.194L320.2 134.294L332 136.994L337.3 126.094ZM385.9 59.894L391.1 70.794L402.9 68.094L397.6 78.994L407.1 86.494L395.3 89.194V101.294L385.9 93.694L376.4 101.294L376.5 89.194L364.7 86.494L374.2 78.994L368.9 68.094L380.7 70.794L385.9 59.894ZM428.4 109.594L433.6 120.494L445.4 117.794L440.1 128.694L449.6 136.194L437.8 138.794V150.994L428.4 143.394L418.9 150.994V138.794L407.1 136.194L416.6 128.694L411.3 117.794L423.1 120.494L428.4 109.594ZM398 167.494L402.1 180.194H415.4L404.6 187.994L408.8 200.694L398 192.794L387.2 200.694L391.3 187.994L380.6 180.194H393.9L398 167.494Z" fill="white"/>
<path d="M254.8 0.994141V31.5941L209.7 56.6941H254.8V115.994H195.7L254.8 148.794V171.694H228.1L154.6 130.794V171.694H99V123.094L11.6 171.694H-1.19995V141.094L44 115.994H-1.19995V56.6941H57.9001L-1.19995 23.7941V0.994141H25.5L99 41.7941V0.994141H154.6V49.5941L242.1 0.994141H254.8Z" fill="white"/>
<path d="M142.8 0.994141H110.8V70.2941H-1.19995V102.294H110.8V171.694H142.8V102.294H254.8V70.2941H142.8V0.994141Z" fill="#D80027"/>
<path d="M154.6 115.994L254.8 171.694V155.894L183 115.994H154.6Z" fill="#0052B4"/>
<path d="M154.6 115.994L254.8 171.694V155.894L183 115.994H154.6Z" fill="white"/>
<path d="M154.6 115.994L254.8 171.694V155.894L183 115.994H154.6ZM70.7 115.994L-1.19995 155.894V171.694L99 115.994H70.7Z" fill="#D80027"/>
<path d="M99 56.6941L-1.19995 0.994141V16.6941L70.7 56.6941H99Z" fill="#0052B4"/>
<path d="M99 56.6941L-1.19995 0.994141V16.6941L70.7 56.6941H99Z" fill="white"/>
<path d="M99 56.6941L-1.19995 0.994141V16.6941L70.7 56.6941H99ZM183 56.6941L254.8 16.6941V0.994141L154.6 56.6941H183Z" fill="#D80027"/>
</g>
<defs>
<clipPath id="clip0_3_2369">
<rect width="513" height="342" fill="white" transform="translate(0 0.994141)"/>
</clipPath>
</defs>
</svg>
