<svg width="513" height="343" viewBox="0 0 513 343" fill="none" xmlns="http://www.w3.org/2000/svg">
<g clip-path="url(#clip0_3_2371)">
<path d="M0 0.994141H513V342.994H0V0.994141Z" fill="#D80027"/>
<path d="M226.8 240.194L217.1 224.594L199.2 228.994L211.1 214.894L201.4 199.294L218.5 206.194L230.3 192.094L229 210.494L246.1 217.394L228.2 221.794L226.8 240.194ZM290.6 82.9942L280.5 98.3942L292.1 112.694L274.4 107.894L264.3 123.394L263.3 104.994L245.6 100.194L262.8 93.5942L261.8 75.1942L273.4 89.4942L290.6 82.9942ZM236.2 26.3942L234.2 44.6942L251 52.2942L233 56.0942L231 74.3942L221.8 58.3942L203.9 62.1942L216.2 48.4942L207 32.5942L223.8 40.0942L236.2 26.3942ZM292.8 162.794L277.9 173.694L283.7 191.194L268.8 180.394L253.9 191.394L259.5 173.794L244.6 163.094L263 162.994L268.6 145.394L274.4 162.894L292.8 162.794ZM115 47.2942L132.3 100.794H188.5L143.1 133.694L160.4 187.194L115 154.194L69.5 187.194L86.9 133.694L41.4 100.794H97.7L115 47.2942Z" fill="#FFDA44"/>
</g>
<defs>
<clipPath id="clip0_3_2371">
<rect width="513" height="342" fill="white" transform="translate(0 0.994141)"/>
</clipPath>
</defs>
</svg>
