<svg width="513" height="343" viewBox="0 0 513 343" fill="none" xmlns="http://www.w3.org/2000/svg">
<g clip-path="url(#clip0_3_2283)">
<path d="M342 0.0205078H0V341.32H513V0.0205078H342Z" fill="#DC2339"/>
<path d="M0 0.0205078H171V342.021H0V0.0205078Z" fill="#11865D"/>
<path d="M171 0.0205078H342V342.021H171V0.0205078Z" fill="white"/>
<path d="M195.8 171.221C195.8 192.821 207.3 212.921 226.1 223.721C231.9 227.121 239.3 225.121 242.7 219.321C246.1 213.521 244.1 206.121 238.3 202.721C227 196.221 220.1 184.221 220.1 171.221C220.1 164.521 214.7 159.121 208 159.121C201.3 159.121 195.8 164.521 195.8 171.221V171.221ZM289.2 222.321C306.7 211.221 317.2 191.921 317.2 171.221C317.2 164.521 311.8 159.121 305.1 159.121C298.4 159.121 293 164.521 293 171.221C293 183.621 286.7 195.221 276.2 201.921C270.5 205.421 268.7 212.821 272.1 218.621C275.5 224.421 283 226.121 288.8 222.721C288.8 222.521 289 222.421 289.2 222.321V222.321Z" fill="#8C9157"/>
<path d="M256.5 195.521C269.921 195.521 280.8 179.224 280.8 159.121C280.8 139.018 269.921 122.721 256.5 122.721C243.08 122.721 232.2 139.018 232.2 159.121C232.2 179.224 243.08 195.521 256.5 195.521Z" fill="#C59262"/>
</g>
<defs>
<clipPath id="clip0_3_2283">
<rect width="513" height="342" fill="white" transform="translate(0 0.0205078)"/>
</clipPath>
</defs>
</svg>
