<?xml version="1.0" encoding="utf-8"?>
<!-- Generator: Adobe Illustrator 27.0.0, SVG Export Plug-In . SVG Version: 6.00 Build 0)  -->
<svg version="1.1" id="Capa_1" xmlns="http://www.w3.org/2000/svg" xmlns:xlink="http://www.w3.org/1999/xlink" x="0px" y="0px"
	 viewBox="0 0 480.3 480.3" style="enable-background:new 0 0 480.3 480.3;" xml:space="preserve">
<style type="text/css">
	.st0{fill:#FF5757;}
</style>
<g>
	<g id="_x35_3_59_">
		<path class="st0" d="M409.9,70.3C364.6,25,304.3,0,240.1,0C176,0,115.7,25,70.3,70.3C25,115.7,0,176,0,240.1
			c0,64.1,25,124.4,70.3,169.8c45.4,45.4,105.7,70.3,169.8,70.3s124.4-25,169.8-70.3c45.4-45.4,70.3-105.7,70.3-169.8
			C480.3,176,455.3,115.7,409.9,70.3z M372.4,396.8c0-10.4,0-18.1,0-20.6c0-10-0.3-250.8-0.3-250.8l-5.5,0c0,0-44.8,25.3-44.8,212.9
			c34.4,9.5,20,47.1,17.3,51.9c0,3,0.1,14.9,0.2,29.6c-18.9,10.5-39.6,18.1-61.6,22.2c0-43,0-96.4,0-103c0-10.1-18.5-52.5,12.4-84
			c0,0,0.1-0.1,0.1-0.2c7.5-7.1,12.5-17,13.2-28c0-0.8,0-2.7,0-2.7L293,132.2l-9.7,0l2.9,102l-11.7,0v-102l-8.6,0v102.7h-9.7
			l0-102.7l-9.4,0l0,102.7h-11.5l3.3-102.7h-8.9l-10.8,86.9c0,0-0.3,3.3-0.3,4.5c0,13.4,6.2,25.4,15.9,33.2
			c32,36.1,10.2,73,10.2,81.7c0,5.9,0,62.7,0,106.7c-1.5,0-3,0.1-4.5,0.1c-27.3,0-53.3-5.4-77.1-15.1c0-41.4,0-87.2,0-92.5
			c-7.6-20.6-14.7-56.4-4-71.5c19.7-6,42.3-32.8,42.3-70.4c0-37.3-20.2-71.6-56-72.2v0c-0.2,0-0.8,0-0.9,0c0,0,0,0,0,0
			c-35.8,0.6-56,34.9-56,72.2c0,37.6,22.6,64.4,42.3,70.4c10.8,15.1,3.7,50.9-3.9,71.5c0,4.5,0,38,0,73.3
			C71.5,374.2,35,311.4,35,240.1C35,127,127,35,240.1,35s205.1,92,205.1,205.1C445.3,302.9,417,359.1,372.4,396.8z M112.1,210.6
			c0.3,2.5,1.2,5.4,2.1,8c0.8,2.7,1.8,5.4,2.9,7.9c2,5.2,4.2,9.9,6.1,14c1.9,4.1,3.6,7.5,4.9,9.8c1.3,2.4,2.4,3.4,2.5,3.3
			c0,0.1-1.7-0.3-3.9-2c-2.2-1.7-5.1-4.5-8.1-8.1c-3-3.6-6.2-8.1-9.2-13.3c-1.4-2.6-2.8-5.4-4.1-8.3c-1.2-3.1-2.2-6-2.9-9.5
			c-1.2-6.7-1-13.1-0.3-19c0.7-5.9,1.9-11.3,3.3-15.8c1.4-4.5,2.9-8.1,4.2-10.6c1.3-2.5,2.3-3.7,2.3-3.7s-0.2,1.6-0.3,4.3
			c-0.1,2.7-0.2,6.5-0.4,11C111.2,187.6,110.4,199.8,112.1,210.6z"/>
	</g>
</g>
</svg>