<?xml version="1.0" encoding="UTF-8"?><svg id="Calque_2" xmlns="http://www.w3.org/2000/svg" xmlns:xlink="http://www.w3.org/1999/xlink" viewBox="0 0 1920 617"><defs><style>.cls-1{fill:none;}.cls-2{clip-path:url(#clippath);}.cls-3{fill:#00a651;}.cls-4{clip-path:url(#clippath-1);}</style><clipPath id="clippath"><rect class="cls-1" width="1920" height="617"/></clipPath><clipPath id="clippath-1"><rect class="cls-1" x="-432.2" y="47.59" width="2868.39" height="878.82"/></clipPath></defs><g id="OBJECTS"><g class="cls-2"><g id="Groupe_de_masques_1"><g id="Calque_1-2"><g id="Groupe_2"><g class="cls-4"><g id="Groupe_234"><g id="Groupe_1"><path id="Tracé_1" class="cls-3" d="M895.02,910.18c-290.06,42.13-609.28-2.54-877.56-79.25-268.24-76.72-483.04-241.68-445.35-414.01,17.43-79.61,86.22-153.35,176.94-213.86C-94.68,98.83,145.99,29,380.59,51.97c249.46,24.43,446.49,145.23,695.81,170.21,137.46,13.79,277.69-2.97,415.89-13.93,197.27-15.62,404.14-18.77,589.03,24.11,184.88,42.86,342.85,140.69,354.21,256.15,12.23,123.91-145.86,236.51-337.11,291.8-191.28,55.27-410.77,64.86-624.01,72.27s-419.44,34.35-579.39,57.6"/></g></g></g></g></g></g></g></g></svg>