<?xml version="1.0" encoding="UTF-8"?><svg id="Calque_2" xmlns="http://www.w3.org/2000/svg" viewBox="0 0 1733.94 1111.08"><defs><style>.cls-1{fill:#f3f3f3;}.cls-2{fill:#0182c8;}.cls-3{fill:#02004d;}.cls-4{fill:#ed635d;}.cls-5{fill:#ffb27d;}.cls-6{fill:#fcbf31;}.cls-7{fill:#00a651;}.cls-8{fill:#331832;}.cls-9{fill:#5c305d;}</style></defs><g id="_Layer_"><g><ellipse class="cls-6" cx="827.57" cy="989.63" rx="827.57" ry="121.45"/><path class="cls-7" d="M1020.97,657.25s299.88-390.28,402.72-304.93c102.84,85.35-258.89,217-342.59,333.37l-60.13-28.45Z"/><g><path class="cls-7" d="M906.27,724.8s554.29-424.62,693.31-255.48c139.01,169.13-450.58,194.36-607.02,323.57l-86.28-68.08Z"/><path class="cls-6" d="M954.2,763.3c106.42-91.2,252.5-152.93,356.31-188.65,112.54-38.73,200.96-56.07,201.84-56.25l-1.07-5.5c-.88,.17-89.69,17.59-202.6,56.45-104.27,35.88-251.04,97.92-358.13,189.7l3.64,4.25Z"/></g><g><path class="cls-7" d="M1586.6,880.84c-80.37,3.96-86.89,123.55-171.72,87.15-71.73-30.84-76.89-38.77-106.34-21.51-10.09,5.92-19.19,13.38-27.23,21.88-9.64,10.19-27.38,24.61-50.75,24.84-142.78,1.41-298.58-235.16-135.12-324.31,11.8-6.44,27.54-7.07,44.82-6.92,93.74,.85,115.28,47.5,205.07-48.29,89.82-95.81,161.99,74.77,224.18,79.47,62.18,4.7,119.23-4.75,156.24,68.08,37.01,72.89-58.78,115.69-139.15,119.61Z"/><g><path class="cls-6" d="M1114.97,825.49l-2.2-4.81c2.12-.97,216.98-96.34,620.93-39.19l-.74,5.24c-402.43-56.94-615.88,37.79-617.99,38.76Z"/><path class="cls-6" d="M1391.04,711.51c-45.17-56.55-48.24-96.01-48.35-97.66l5.28-.35c.03,.39,3.19,39.61,47.21,94.71l-4.14,3.3Z"/><path class="cls-6" d="M1390.91,769.37c-10.56-28.75-2.89-66.39,22.2-108.85,18.78-31.8,40.98-55.5,41.2-55.73l3.85,3.63c-.87,.92-86.57,93.03-62.28,159.13l-4.97,1.82Z"/></g></g><path class="cls-7" d="M743.2,720.85S377.41,239.78,250.6,343.94s316.54,268.05,418.58,411.47l74.01-34.56Z"/><path class="cls-7" d="M588.48,644.44S189.62,301.51,77.88,422.81c-111.75,121.3,330.64,165.33,442.81,269.17l67.79-47.54Z"/><path class="cls-6" d="M550.79,671.37c-76.17-73.12-183.42-125.76-259.97-157.04-83-33.91-148.77-50.72-149.43-50.88l1.04-4.09c.66,.17,66.71,17.04,149.99,51.07,76.9,31.42,184.65,84.32,261.3,157.9l-2.92,3.04Z"/><path class="cls-7" d="M173.52,797.16c80.8,17.77,66.95,140.12,159.17,117.72,92.22-22.45,84.6-28.38,128.79,11.8,0,0,17.13,38.74,53.75,45.3,144.51,25.85,342.92-187.31,192.47-305.66-10.86-8.55-26.71-11.87-44.25-14.68-95.18-15.18-124.99,28.44-199.63-84.03-74.66-112.5-177.02,48.09-240.86,42.21-63.84-5.88-120.05-25.22-170.04,42.29-49.99,67.56,39.8,127.34,120.6,145.06Z"/><g><path class="cls-6" d="M661.11,821.74l3.05-4.5c-1.98-1.35-203.49-134.79-622.77-145.95l-.15,5.44c417.71,11.13,617.89,143.68,619.87,145.02Z"/><path class="cls-6" d="M400.74,658.96c55.47-49.6,65.33-89.08,65.73-90.74l-5.29-1.26c-.09,.39-10.01,39.61-64.06,87.94l3.63,4.06Z"/><path class="cls-6" d="M390.97,717.63c15.63-27.34,14.28-66.81-3.88-114.14-13.6-35.45-32.05-63.27-32.23-63.55l-4.53,3.02c.72,1.08,71.84,109.12,35.91,171.98l4.73,2.7Z"/><path class="cls-6" d="M280.65,707.81c6.6-5.49,10.17-9.06,10.33-9.22l-3.88-3.82c-.75,.76-76,75.83-186.69,72.14l-.18,5.44c89.19,2.98,155.83-44.09,180.42-64.54Z"/><path class="cls-6" d="M225.86,833.46c25.35-28.1,32.65-56.25,34.31-74.91,1.81-20.31-2.4-33.83-2.57-34.4l-5.19,1.65c.16,.52,15.83,52.56-30.59,104.01l4.04,3.64Z"/></g><path class="cls-3" d="M1049,957.73l-512.63,33.95c-17.99,1.19-33.54-12.43-34.73-30.42L442.54,68.75c-1.19-17.99,12.43-33.54,30.42-34.73L985.59,.07c17.99-1.19,33.54,12.43,34.73,30.42l59.1,892.51c1.19,17.99-12.43,33.54-30.42,34.73Z"/><path class="cls-1" d="M1027.41,931.78l-152.04,10.07h-.01l-14.2,.95-100.19,6.64-21.89,1.45-127.75,8.46-56.99,3.77c-16.83,1.12-31.37-11.63-32.49-28.46l-11.54-174.29-26.04-393.13-18.44-278.5c-1.12-16.83,11.63-31.38,28.46-32.49l473.06-31.33c1.88-.12,3.72-.07,5.54,.15,14.37,1.65,25.96,13.36,26.95,28.31l13.18,199.04,10.69,161.46h0s.57,8.62,.57,8.62l4.41,66.64,2.53,38.13,15.37,232.02,9.27,140c1.12,16.83-11.62,31.38-28.46,32.49Z"/><path class="cls-5" d="M532.07,705.82c6.4-21.73,14.21-34.66,14.21-34.66,0,0,48.31,.27,50.65,4.49,5.4,9.71,11.66,31.24,16.87,41.05,2.26,4.25,8.85,19.08,4.88,21.85-3.46,2.41-14.35-6.91-19-11.96-3.99,31.43-24.06,75.51-20.54,9.04-.04,0-.07,0-.11,0-.98,6.69-6.46,43.9-14.98,39.09-7.52-4.25-4.71-31.05-3.21-42.07-.1-.03-.2-.05-.31-.08-2.51,11.07-9.26,37.63-15.09,31.31-7.31-7.93-4.95-37.38-4.95-37.38,0,0-3.86,37.56-13.42,29.43-6.53-5.54,1.4-35.53,3.65-46.09,.33-1.53,.79-2.85,1.35-4.02Z"/><path class="cls-4" d="M915.1,510.17c48.25,14.52,123.58,34.89,183.99-7,34.11-23.65,19.92-75.13,29.49-65.69l-13.61-66.32,22.33,31.48-22.27-31.53c-23.26,16.64-6.94,67.39-60.85,54.33-24.48-5.94-69.76,6.77-137.25-52.72l-77.8,26.92c24.46,48.36,17.33,101.92,75.97,110.52Z"/><path class="cls-5" d="M1029.85,454.38s25.4-37.25,51.22-48.72c25.82-11.47,42.19-1.96,42.19-1.96l27.09,34.87s-27.95,41.41-67.42,39.49c-5.86-.28-53.08-23.68-53.08-23.68Z"/><path class="cls-2" d="M1132.15,318.39l-71.29-11.96c-9.76-1.64-19.03,4.81-20.72,14.41l-26.08,147.82c-1.67,9.44,4.6,18.47,14.14,20.37l70.9,14.14c9.92,1.98,19.54-4.49,21.27-14.31l26.46-150c1.7-9.65-4.88-18.82-14.68-20.47Zm-71.61,8.69c-2.62,.07-4.8-1.96-4.87-4.54-.07-2.58,1.99-4.72,4.61-4.79,2.62-.07,4.8,1.96,4.87,4.54,.07,2.58-1.99,4.72-4.61,4.79Z"/><path class="cls-5" d="M1163.15,396.33s9.33-20.15-9.41-28.4c-23.87-10.52-63.86-1.08-48.83,5.79,13.33,6.09,34.37,10.27,34.37,10.27,0,0-53.64-9.9-51.92,1.77,1.72,11.67,47.96,19.57,47.96,19.57,0,0-53.15-4.79-47.9,5.71,5.25,10.51,47.19,17.94,47.19,17.94,0,0-51.68-7.44-45.3,4.62,6.39,12.06,33.91,10.58,45.71,12.57,11.15,1.88,16-4.59,17.07-15.31,0,0,7.37-10.07,6.28-17.25-.42-2.75,2.55-4.92,3.11-6.8,1.08-3.6,1.65-10.48,1.65-10.48Z"/><path class="cls-8" d="M640.22,674.19c.28,10.85,66.92,15.16,149.34,12.63,82.42-2.53,148.28-13.75,148-24.61-.28-10.85-66.6-17.22-149.02-14.69-82.42,2.53-148.6,15.82-148.32,26.67Z"/><path class="cls-4" d="M660.39,366.98s14.57-56.88,122.1-57.45c155.07-.83,140.71,139.46,155.06,352.68,0,0-94.02-38.65-297.34,11.98,0,0-13.5-220.3,20.18-307.2Z"/><path class="cls-4" d="M620.7,358.83l70.23,38.26s157.13,34.13,197.95,27.51c40.82-6.62,48.67-23.05,48.67-23.05,0,0-43.48-77.77-117.38-89.59-6.94-1.12-14.14-1.94-21.61-2.42-12.53-.8-25.09-.63-37.36,.73-93.66,10.39-140.51,48.56-140.51,48.56Z"/><path class="cls-5" d="M767.71,296.51l8.12-25.79,2.36-7.51,13.89-44.15,1.83,43.92,1.09,26.36,.35,8.34c.24,5.66,3.74,6.86,8.01,11.78,1.73,1.99,12.79,14.09,.24,19.55-15.64,6.81-44.89-3.5-56.01-17,.09-.02,17.5-7.16,20.12-15.5Z"/><path class="cls-5" d="M599.96,692.91c6.47-70.08,21.3-170.28,55.24-249.64,7.87-18.39,11.14-25.29,17.28-35.33,4.94-8.08-3.9-25.84-17.85-34.3-13.09-7.95-33.46-6.64-36.69-2.71-5.48,6.69-11.33,19.51-20.44,39.86-31.63,70.71-50.58,162.05-58.26,279.81l60.71,2.31Z"/><path class="cls-9" d="M827.83,202.47s2.83,10.69,0,24.09c-2.83,13.4-16.67-19.54-16.67-19.54l16.67-4.55Z"/><ellipse class="cls-5" cx="789.97" cy="235.53" rx="39.84" ry="47.33" transform="translate(-25.41 114.38) rotate(-8.15)"/><path class="cls-3" d="M723.91,228.35s13.32,28.31,32.21,30.38c0,0-15.28-21.57,16.92-34.72,0,0-29.56-4.58-49.13,4.34Z"/><path class="cls-5" d="M750.54,243.97c4.04,2.53,9.18,1.7,11.47-1.85,2.3-3.55,.88-8.49-3.16-11.02-4.04-2.53-9.18-1.7-11.47,1.85-2.3,3.55-.88,8.49,3.16,11.02Z"/><path class="cls-3" d="M773.04,224.02s-2.58,23.75,2.33,28.24c4.91,4.49,37.33,6.42,52.46,.67h0c.25,15.26-10.67,28.72-25.95,31.25-5.06,.84-10.28,.84-15.48-.05h0c-10.59-1.82-20.89-6.14-25.26-15.81-1.33-2.94,2.54-21.05,2.54-21.05,0,0,1.45-10.63-4.83-16.16,0,0,7.25-6.42,14.18-7.08Z"/><path class="cls-3" d="M773.04,224.02s-2.66-16.61,10.56-17.79c13.22-1.18,28.31-3.37,33.49,0,5.19,3.37,11.39,16.62,11.39,16.62,0,0,7.25-24.9-6.04-35.56-13.29-10.65-55.67-24.67-82.72-6.12-27.05,18.55-15.81,47.19-15.81,47.19,0,0,19.32-5.8,49.13-4.34Z"/><path class="cls-3" d="M754.7,181.16s-19.94-16.21-15.43-28.2c4.51-11.99,25.61-8.19,33.77-6.32,8.16,1.88,9.54,16.22,2.99,25.47-6.55,9.25-21.33,9.05-21.33,9.05Z"/><path class="cls-2" d="M899.44,772.85c-4.49,32.32-13.89,98.37-24.07,169h-.01l-114.38,7.58,3.07-77.55h0s.11-2.63,.11-2.63l5.81-146.87-46.7-35.07-25.96-19.52s.01-.01,.02-.01c.04,0,.09-.01,.12-.01,.16-.01,.31-.02,.47-.05,6.17-.75,57.59-6.77,115.24-6.72,34.74,.02,65.03,2.67,79.77,4.22,5.95,.63,10.77,4.88,12.15,10.5,.14,.52,.23,1.04,.29,1.59,1.57,12.75,1.82,39.68-5.94,95.56Z"/><path class="cls-2" d="M824.56,680.52l-1.5,4.73-45.29,143.25-13.72,43.38-24.97,79.01-127.75,8.46,46.9-254.8c.75-3.33,2.19-13.39,4.38-21.4,1.52-5.59,3.41-10.18,5.69-10.83,6.16-1.76,16.5-3.32,29.01-4.52,.01,0,.01-.01,.02-.01,48.47-4.67,129.56-3.9,127.22,12.75Z"/><path class="cls-3" d="M752.96,906.97l-2.54-.85,34.45-103.11c7.96-23.81,24.32-43.69,46.08-55.96l1.31,2.33c-21.18,11.95-37.11,31.3-44.86,54.48l-34.45,103.11Z"/><path class="cls-3" d="M761.15,268.31s.13,16.33,11.89,25.51c11.76,9.17,3.98,17.16,14.33,30.19,10.35,13.02-1.97,13.32,16.36,22.79,18.33,9.47,32.16,.89,28.55-13.61-3.61-14.5,12.32-10.65,4.81-29-7.51-18.35-12.98-7.1-6.64-26.63,6.34-19.53-2.62-24.62-2.62-24.62,0,0-10.13,.68-18.32,2.13-8.18,1.44-15.54-1.09-21.25,.71-5.71,1.8-27.12,12.55-27.12,12.55Z"/><path class="cls-4" d="M620.7,358.83s-35.49,20.68-70.01,156.47c-34.52,135.8-8.58,138.26-8.58,138.26,0,0,46.57,.88,61.54-4.38,14.98-5.26,22.99-126.95,52.85-176.44,29.87-49.49,40.55-125.27-35.81-113.92Z"/><path class="cls-3" d="M638.85,521.58l-2.62-.63c10.15-42.45,27.61-82.06,27.79-82.46l2.46,1.08c-.17,.38-17.54,39.78-27.63,82.01Z"/><path class="cls-3" d="M927.53,514.36c-2.95-47.25-26.79-107.94-27.03-108.55l2.5-.96c.25,.61,24.24,61.68,27.21,109.33l-2.69,.18Z"/><path class="cls-3" d="M668.96,28.44h124.81v20.23c0,11.22-9.11,20.34-20.34,20.34h-84.39c-11.09,0-20.09-9-20.09-20.09V28.44h0Z" transform="translate(-1.62 48.43) rotate(-3.79)"/></g></g></svg>
