<?xml version="1.0" encoding="UTF-8"?><svg id="Calque_2" xmlns="http://www.w3.org/2000/svg" xmlns:xlink="http://www.w3.org/1999/xlink" viewBox="0 0 1095.48 763.71"><defs><style>.cls-1,.cls-2{fill:none;}.cls-3{clip-path:url(#clippath);}.cls-4{fill:#0182c8;}.cls-5{fill:#00b1ff;}.cls-6{fill:#006400;}.cls-7{fill:#0157c8;}.cls-8{fill:#ed354f;}.cls-9{fill:#ef833a;}.cls-10{fill:#fff;}.cls-11{fill:#ffa364;}.cls-12{fill:#fcbf31;}.cls-13{fill:#00a651;}.cls-14{fill:#de0125;}.cls-15{fill:#40a5ec;}.cls-16{fill:#0c4c0c;}.cls-17{fill:#0c720c;}.cls-18{fill:#6060e2;}.cls-19{clip-path:url(#clippath-1);}.cls-20{clip-path:url(#clippath-4);}.cls-21{clip-path:url(#clippath-3);}.cls-22{clip-path:url(#clippath-2);}.cls-23{clip-path:url(#clippath-7);}.cls-24{clip-path:url(#clippath-8);}.cls-25{clip-path:url(#clippath-6);}.cls-26{clip-path:url(#clippath-5);}.cls-27{clip-path:url(#clippath-9);}.cls-28{clip-path:url(#clippath-20);}.cls-29{clip-path:url(#clippath-21);}.cls-30{clip-path:url(#clippath-24);}.cls-31{clip-path:url(#clippath-23);}.cls-32{clip-path:url(#clippath-22);}.cls-33{clip-path:url(#clippath-25);}.cls-34{clip-path:url(#clippath-27);}.cls-35{clip-path:url(#clippath-28);}.cls-36{clip-path:url(#clippath-26);}.cls-37{clip-path:url(#clippath-29);}.cls-38{clip-path:url(#clippath-32);}.cls-39{clip-path:url(#clippath-30);}.cls-40{clip-path:url(#clippath-31);}.cls-41{clip-path:url(#clippath-14);}.cls-42{clip-path:url(#clippath-13);}.cls-43{clip-path:url(#clippath-12);}.cls-44{clip-path:url(#clippath-10);}.cls-45{clip-path:url(#clippath-15);}.cls-46{clip-path:url(#clippath-17);}.cls-47{clip-path:url(#clippath-16);}.cls-48{clip-path:url(#clippath-19);}.cls-49{clip-path:url(#clippath-11);}.cls-50{clip-path:url(#clippath-18);}.cls-51{opacity:.3;}.cls-52{opacity:.5;}.cls-2{stroke:#d36011;stroke-linecap:round;stroke-miterlimit:10;stroke-width:1.61px;}</style><clipPath id="clippath"><rect class="cls-1" x="513.69" y="163.94" width="581.8" height="465.02"/></clipPath><clipPath id="clippath-1"><path class="cls-1" d="M1000.23,296.26c-14.43,.64-17.73,60.04-17.73,60.04,0,0-.53-47.28-13.88-44.3s-11.93,82.86-11.93,82.86c-2.66-15.24-7.79-36.4-17.56-34.81s-2.78,37.92-4.28,51.05c-1.5,13.13-22.45,50.25-23.5,51.29l6.54,48.42,42.25,34.55,7.22-10.96c18.91-28.65,35.13-58.99,48.47-90.62l.23-.55s44.27-118.32,31.62-126.45c-12.65-8.13-38.85,51.36-38.85,51.36,0,0,5.8-71.9-8.4-71.9h-.19"/></clipPath><clipPath id="clippath-2"><rect class="cls-1" x="513.69" y="163.94" width="581.8" height="465.02"/></clipPath><clipPath id="clippath-3"><path class="cls-1" d="M624.25,395.56c-13.22,3.47,7.97,45.73,7.97,45.73,0,0-30.16-51.29-43.28-45.24-13.12,6.05,25.32,67.84,25.32,67.84,0,0-50.55-40.87-58.07-27.85-7.52,13.03,86.06,97.9,86.06,97.9l.46,.39c26.35,22,54.67,41.53,84.6,58.33l11.44,6.43,21.71-50.07-16.38-46.04c-1.41-.44-37.04-23.83-44.39-34.81s-17.79-46.48-27.2-43.41c-9.41,3.07-4.28,24.22,.34,38.99,0,0-33.71-68.3-47.61-68.3-.33,0-.66,.04-.97,.12"/></clipPath><clipPath id="clippath-4"><rect class="cls-1" x="513.69" y="163.94" width="581.8" height="465.02"/></clipPath><clipPath id="clippath-5"><path class="cls-1" d="M755.88,199.16c-93.15,22.72-150.25,116.64-127.53,209.79,22.72,93.15,116.64,150.25,209.79,127.53,93.15-22.72,150.25-116.64,127.53-209.79-18.96-77.76-88.63-132.48-168.67-132.47-13.85,0-27.66,1.66-41.12,4.94"/></clipPath><clipPath id="clippath-6"><rect class="cls-1" x="513.69" y="163.94" width="581.8" height="465.02"/></clipPath><clipPath id="clippath-7"><path class="cls-1" d="M957.03,415.62c-10.22,12.64-21.24,17.66-46.04,43.21-8.86,9.13-14.99,21.51-19.23,33.67-6.76,19.64-9.33,40.47-7.55,61.17l6.25,75.29h91.5l-21.84-83.59c-3.31-21.58-2.55-43.58,2.23-64.88,3.15-13.74,12.09-30.31,20.8-45.82,13.31-23.72,26.06-44.95,16.7-49.76-1.86-.98-3.94-1.49-6.04-1.49-13.73,0-27.88,21.18-36.78,32.19"/></clipPath><clipPath id="clippath-8"><rect class="cls-1" x="513.69" y="163.94" width="581.8" height="465.02"/></clipPath><clipPath id="clippath-9"><path class="cls-1" d="M629.9,474.68c-6.11,8.57,14.95,21.59,37.65,36.57,14.84,9.79,30.38,20.42,39.48,31.19,14.01,16.74,24.77,35.95,31.72,56.64l6.69,29.87h88.34l-23.76-57.29c-7.9-19.21-19.73-36.55-34.74-50.91-9.33-8.86-20.46-17.06-32.52-21.11-33.75-11.35-45.85-10.76-60.72-17.31-10.44-4.6-26.93-13.5-39.33-13.5-5.27,0-9.79,1.61-12.81,5.83"/></clipPath><clipPath id="clippath-10"><rect class="cls-1" x="513.69" y="163.94" width="581.8" height="465.02"/></clipPath><clipPath id="clippath-11"><rect class="cls-1" y="177.37" width="1057.91" height="586.33"/></clipPath><clipPath id="clippath-12"><path class="cls-1" d="M58.61,223.32l1.59,7.3c1.69,7.77-.04,15.9-4.76,22.31l-18.66,25.33c-4.82,6.55-7.32,14.51-7.1,22.64,.36,13.31,3.11,32.28,15.5,36.86l3.95,18.11c.77,3.53-1.47,7.01-4.99,7.78-3.12,.68-5.2,3.63-4.79,6.79,1.99,15.44,8.85,58.15,24.92,68.47l9.96,87.94c1.5,13.33,12.37,23.66,25.77,24.45,11.54,.67,28.15-.34,51.58-5.44s38.95-11.09,49.17-16.5c11.85-6.29,17.45-20.21,13.26-32.95l-27.51-84.12c10.32-16.07-1.2-57.77-5.81-72.64-.95-3.05-4.07-4.86-7.18-4.18-3.53,.77-7.01-1.47-7.78-4.99l-3.95-18.12c9.36-9.32,3.98-27.72-1.23-39.97-3.18-7.48-8.77-13.69-15.87-17.64l-27.5-15.28c-6.96-3.86-11.91-10.53-13.61-18.31l-1.59-7.3-43.37,9.45Z"/></clipPath><clipPath id="clippath-13"><rect class="cls-1" y="192.43" width="229.63" height="367.96"/></clipPath><clipPath id="clippath-14"><path class="cls-1" d="M58.61,223.32l1.59,7.3c1.69,7.77-.04,15.9-4.76,22.31l-18.66,25.33c-4.82,6.55-7.32,14.51-7.1,22.64,.36,13.31,3.11,32.28,15.5,36.86l3.95,18.11c.77,3.53-1.47,7.01-4.99,7.78-3.12,.68-5.2,3.63-4.79,6.79,1.99,15.44,8.85,58.15,24.92,68.47l9.96,87.94c1.5,13.33,12.37,23.66,25.77,24.45,11.54,.67,28.15-.34,51.58-5.44s38.95-11.09,49.17-16.5c11.85-6.29,17.45-20.21,13.26-32.95l-27.51-84.12c10.32-16.07-1.2-57.77-5.81-72.64-.95-3.05-4.07-4.86-7.18-4.18-3.53,.77-7.01-1.47-7.78-4.99l-3.95-18.12c9.36-9.32,3.98-27.72-1.23-39.97-3.18-7.48-8.77-13.69-15.87-17.64l-27.5-15.28c-6.96-3.86-11.91-10.53-13.61-18.31l-1.59-7.3-43.37,9.45Z"/></clipPath><clipPath id="clippath-15"><rect class="cls-1" x="43.5" y="434.91" width="236.9" height="130.85"/></clipPath><clipPath id="clippath-16"><rect class="cls-1" y="177.37" width="1057.91" height="586.33"/></clipPath><clipPath id="clippath-17"><path class="cls-1" d="M48.6,203.08l4.52,20.77h.06c-.01,.11,0,.23,.02,.35,.68,3.11,13.33,3,28.26-.26s26.49-8.41,25.81-11.52c-.03-.12-.07-.23-.13-.34h0l-4.52-20.77-54.02,11.77Z"/></clipPath><clipPath id="clippath-18"><rect class="cls-1" y="177.37" width="1057.91" height="586.33"/></clipPath><clipPath id="clippath-19"><path class="cls-1" d="M223.75,209.94c-11.57,10.13-18.81,20.78-16.17,23.79l7.27,8.3,41.9-36.68-7.27-8.3c-.59-.58-1.41-.87-2.23-.8-4.55,0-14,5.38-23.49,13.68"/></clipPath><clipPath id="clippath-20"><rect class="cls-1" y="177.37" width="1057.91" height="586.33"/></clipPath><clipPath id="clippath-21"><rect class="cls-1" x="217" y="207.69" width="154.52" height="109.82"/></clipPath><clipPath id="clippath-22"><path class="cls-1" d="M263.97,208.9c-14.07,4-20.05,7.12-22.33,7.53s-22.44,30.34-23.04,35.09-4.72,15.88,3.19,24.01,16.72,17.59,26.06,12.72c9.34-4.87-.51,16.16,11.13,16.94,11.64,.77,22.52-6.11,32.62-7.55s11.36-1.36,7.22,5.83c-4.14,7.19-7.31,14.58,3.72,13.91,2.46-.15,5.13-.06,7.92,.02,9.76,.3,21.04,.61,30.01-9.19,11.54-12.61,17.2-17.17,21.98-19.24s14.93-17.04,4.58-20.12-14.3-3.2-8.28-11.11,18.54-18.35,8.67-22.38-12.82-8.46-19.81,1.36c-6.99,9.82-16.86,18.46-19.51,9.55s6.44-20.56,3.73-24.4-3.58-.61-8.36-4.88-5.75-9.58-9.36-7.48c-1.89,1.1-4.73,4.34-7.46,7.36-4.97,5.58-13.21,6.83-19.61,2.97-1.03-.63-1.98-1.4-2.81-2.28-4.46-4.74-5.74-9.88-12.99-9.88-2.47,.07-4.92,.48-7.28,1.21"/></clipPath><clipPath id="clippath-23"><rect class="cls-1" x="213.09" y="198.77" width="157.32" height="115.07"/></clipPath><clipPath id="clippath-24"><rect class="cls-1" x="274.55" y="301.54" width="206.37" height="327.42"/></clipPath><clipPath id="clippath-25"><path class="cls-1" d="M376.29,372.85c-.46,3.45-2.3,6.56-5.08,8.65l-43.23,32.33c-5.62,4.21-9.31,10.49-10.25,17.45l-26.08,193.48c-.19,1.39-.2,2.8-.02,4.2h141.35l24.12-178.9c.94-6.96-.96-14-5.27-19.54l-33.13-42.62c-2.14-2.75-3.08-6.24-2.61-9.68l1.23-9.11-39.8-5.37-1.22,9.11Z"/></clipPath><clipPath id="clippath-26"><rect class="cls-1" x="271.46" y="611.7" width="167.44" height="86.56"/></clipPath><clipPath id="clippath-27"><rect class="cls-1" x="347.48" y="360.82" width="69.86" height="25.16"/></clipPath><clipPath id="clippath-28"><path class="cls-1" d="M376.29,372.85c-.46,3.45-2.3,6.56-5.08,8.65l-43.23,32.33c-5.62,4.21-9.31,10.49-10.25,17.45l-26.08,193.48c-.19,1.39-.2,2.8-.02,4.2h141.35l24.12-178.9c.94-6.96-.96-14-5.27-19.54l-33.13-42.62c-2.14-2.75-3.08-6.24-2.61-9.68l1.23-9.11-39.8-5.37-1.22,9.11Z"/></clipPath><clipPath id="clippath-29"><rect class="cls-1" x="330.07" y="419.8" width="93.07" height="21.63"/></clipPath><clipPath id="clippath-30"><rect class="cls-1" x="274.55" y="301.54" width="206.37" height="327.42"/></clipPath><clipPath id="clippath-31"><rect class="cls-1" y="177.37" width="1057.91" height="586.33"/></clipPath><clipPath id="clippath-32"><rect class="cls-1" x="284.26" width="489.38" height="221.14"/></clipPath></defs><g id="OBJECTS"><g><g id="Groupe_235"><g class="cls-3"><g id="Groupe_234"><path id="Tracé_229" class="cls-11" d="M911.34,462.39c1.05-1.04,22-38.16,23.5-51.29,1.5-13.13-5.49-49.46,4.28-51.05s14.91,19.57,17.56,34.81c0,0-1.41-79.89,11.93-82.86s13.87,44.3,13.87,44.3c0,0,3.3-59.41,17.73-60.04s8.59,71.89,8.59,71.89c0,0,26.2-59.49,38.85-51.36,12.65,8.13-31.62,126.45-31.62,126.45-.08,.18-.16,.37-.23,.55-13.37,31.69-29.64,62.09-48.59,90.79l-7.11,10.78-42.25-34.55-6.54-48.43Z"/></g></g></g><g id="Groupe_237"><g class="cls-19"><g id="Groupe_236"><path id="Tracé_230" class="cls-9" d="M878.11,482.09s72.06-135.02,111.16-115.31-67.37,161.46-67.37,161.46c-5.85,6.78-4.18,51.71-38.28,41.83l-5.51-87.99Z"/></g></g></g><g id="Groupe_239"><g class="cls-22"><g id="Groupe_238"><path id="Tracé_232" class="cls-2" d="M956.69,394.87s2.03,22.35-.27,30.02"/><line id="Ligne_16" class="cls-2" x1="982.5" y1="356.31" x2="977.61" y2="408.46"/><line id="Ligne_17" class="cls-2" x1="1008.81" y1="368.15" x2="991.52" y2="403.52"/><path id="Tracé_233" class="cls-11" d="M744.08,502.98c-1.41-.44-37.04-23.83-44.39-34.81-7.35-10.98-17.79-46.48-27.2-43.41-9.41,3.07-4.28,24.22,.34,38.99,0,0-35.36-71.65-48.58-68.18s7.97,45.73,7.97,45.73c0,0-30.16-51.29-43.28-45.24-13.12,6.05,25.32,67.83,25.32,67.83,0,0-50.55-40.87-58.07-27.85-7.52,13.03,86.05,97.9,86.05,97.9l.46,.39c26.41,22.04,54.79,41.6,84.79,58.43l11.25,6.33,21.71-50.07-16.38-46.04Z"/></g></g></g><g id="Groupe_241"><g class="cls-21"><g id="Groupe_240"><path id="Tracé_234" class="cls-9" d="M782.64,505.26s-125.92-86.98-151.64-51.54c-25.72,35.44,133.87,112.64,133.87,112.64,8.31,3.35,27.41,44.04,53.2,19.64l-35.43-80.73Z"/></g></g></g><g class="cls-20"><g id="Groupe_242"><path id="Tracé_236" class="cls-2" d="M672.83,463.74s8.43,20.79,14,26.56"/><line id="Ligne_18" class="cls-2" x1="632.22" y1="441.29" x2="660.46" y2="485.41"/><line id="Ligne_19" class="cls-2" x1="614.26" y1="463.88" x2="645.83" y2="487.39"/><path id="Tracé_237" class="cls-4" d="M965.75,327.08c22.63,93.28-34.64,187.25-127.92,209.88-93.28,22.63-187.25-34.64-209.88-127.92-22.63-93.28,34.64-187.25,127.92-209.88,93.28-22.63,187.24,34.64,209.88,127.92"/></g></g><g id="Groupe_245"><g class="cls-26"><g id="Groupe_244"><path id="Tracé_238" class="cls-13" d="M876.81,209.45s-8.83,4.4-10.8,17.03c-1.97,12.63-3.27,17.29-12.73,29.83-9.46,12.54-19.55,33.22-19.07,40.22s11.55-1.76,9.99,5.39c-1.57,7.15-23.08,35.12-17.89,42.2s6.26,.04,21.2,.07,19.43,14.21,20,25.19c.58,10.98,7.45,6.87,9.55,13.14,2.1,6.26,9.81,22.28,16.76,20.33s-3.34-18.6,.14-24.13c3.48-5.53,5,.74,9.43,2.92s14.04,7.4,16.57-3.63c2.53-11.03,6.85-23.28,14.13-22.83,0,0,6.29,.34,18.29-12.47,12-12.81,16.52,16.92,22.26,51.86,5.74,34.94,18.58-89.29,18.58-89.29l-48.08-78.98-68.34-16.85Z"/><path id="Tracé_239" class="cls-13" d="M753.82,237.21c7.28-1.94,14.94-1.95,22.22,0,11.4,3.31,19.18-.83,25.07,4.34s13.53,13.74,9.74,22.47c-3.79,8.73-3.91,26.3-18.16,24.03s-23.41,2.9-27.45,1.28-13.77-8.81-19.25-10.61-4.77-3.18-8.43-12.54c-3.66-9.36-2.94-19.26,3.11-22.98,4.15-2.45,8.56-4.45,13.14-5.97"/><path id="Tracé_240" class="cls-13" d="M721.32,208.45s-5.52,23.05-9.8,25.47-8.96,6-9.78,11.22-.5,19.4-3.64,18.6-3.52,6.24-2.4,9.44,4.68,21.44,.78,23.95-6.7,4.58-6.92,5.85-6.13,4.09-9.35,2.96-11.39,1.03-15.47,5.66-2.75,12.3-7.5,19.53-15.11,9.31-20.13,19.73-9.28,18.31-8.46,20.98,3.49,7.58,10.78,6.5,9.33,.51,10.58,3.51,10,15.81,16.58,11.43,17.21-11.03,24.36-26.66,12.14-15.8,15.71-19.7,14.72-12.34,24.36-10.51,27.41,4.9,32.92,9.72c5.51,4.83,13.02,13.6,20.9,16.72s18.91,5.66,21.05,13.39c2.14,7.73-1.91,21.82-5.68,27.43s-3.02,7.51-11.79,13.22-20.42,17-24.2,29.38c-3.77,12.38-8.74,16.06-12.7,21.19s-.9,10.25-4.44,11.76-15.29,5.14-18.48,8.13-3.59-18.54-4.73-22.17-6.42-8.21-22.92-10.72-10.19-8.21-19.3-10.3c-9.1-2.09-15.88-2.66-21.29,1.91s5.54,20.67-10.56,21.45-50.61-76.02-50.61-76.02c0,0-15.55-54.44-3.37-58.96,12.18-4.52,59.38-111.7,59.38-111.7l66.11-12.39Z"/><path id="Tracé_241" class="cls-13" d="M676.21,333.14s-2.51,4.34-4.3,5.9-.9,8.47,2.76,6.36,6.9-6.62,10.02-7.38,5.7-5.12,2.22-6.96-10.7,2.07-10.7,2.07"/><path id="Tracé_242" class="cls-13" d="M693.47,314.11s-3.74,4.99-1.1,4.78,6.77-4.68,4.87-5.7-3.77,.92-3.77,.92"/><path id="Tracé_243" class="cls-13" d="M862.63,397.67c-.53-2.05-1.35-4.01-2.44-5.82-1.16-1.93-2.19-4.4-1.46-6.4,1.41-3.86-12.97,2.88-13.06,10.59s3.03,18.41,5.46,22.51,7.56,11.32,12.91,1.69,6.82-13.74,2.14-17.51c-1.7-1.26-2.95-3.03-3.56-5.06"/><path id="Tracé_244" class="cls-13" d="M769.37,489.07c-1.76,.76-3.06,2.29-3.53,4.15-.77,2.59-.87,5.33-.28,7.96,1.38,4.61,2.97,7.49,2.5,10.33s4.94,10.13,8.5,2.24c3.56-7.9,2.16-14.73,3.54-18.7s.71-9.94-2.24-9.22c-2.89,.91-5.72,1.99-8.48,3.24"/><path id="Tracé_245" class="cls-13" d="M793.6,499.46s-2.93,2.67-1.15,6.01,1.02,4.25,1.24,5.82,3.97-.18,4.82-3.38-1.11-5.92-2.71-7.94-2.21-.51-2.21-.51"/><path id="Tracé_246" class="cls-13" d="M809.83,456.27c-1.1-1.05-2.85-1-3.89,.1-.42,.44-.68,1-.74,1.6-.17,1.83-.09,3.67,.23,5.48,1.34,8.36,4.69,8.59,6.39,17.03s7.38,9.67,12.46,14.86,12.66,10.65,12.13,14.94,5.35,7.04-3,14.1c-8.36,7.06-9.85,19.58-8.5,19.77s101.15-34.44,101.15-34.44l19.7-42.63s-11.12-2.87-18.21-7.05c-7.09-4.18-20.2-2.39-25.38,6.33s-28.3,25.79-36.19,24.06-13.27,1.83-17.81-5.4-7.95-12.74-13.08-13.11-11.72-4.67-14.4-8.53c-2.1-3.04-7.31-3.82-10.87-7.13"/><path id="Tracé_247" class="cls-13" d="M888.91,435.97c-2.05,.9-3.85,2.28-5.23,4.04-3.65,4.65-10.9,14.56-9.86,18.62,1.38,5.4,10.28-3.02,14.32-5.69s15.02-10.03,18.74-10.8,14.6-1.56,15.01-3.11,10.74-4.57,11.96-7.08,2.91-4.09,2.88-11.77,9.63-20.44,6.39-23.04-1.88,5.15-8.61,11.21-7.04,10.17-14.5,15.37c-7.47,5.2-12.85,9.31-19.26,9.2-3.94-.07-8.73,1.69-11.82,3.04"/></g></g></g><g id="Groupe_247"><g class="cls-25"><g id="Groupe_246"><path id="Tracé_249" class="cls-11" d="M884.22,553.67c-1.78-20.69,.79-41.53,7.55-61.17,4.23-12.15,10.37-24.54,19.23-33.67,24.8-25.55,35.82-30.57,46.04-43.21,10.22-12.64,27.34-38.67,42.82-30.71,9.36,4.82-3.4,26.05-16.71,49.76-8.7,15.51-17.64,32.08-20.8,45.82-4.78,21.3-5.54,43.3-2.23,64.88l43.69,167.2-104.3,25.31-15.29-184.21Z"/></g></g></g><g id="Groupe_249"><g class="cls-23"><g id="Groupe_248"><path id="Tracé_250" class="cls-8" d="M993.88,381.46s-20.23,19.29-10.8,26.2c9.43,6.91,24.17-20.22,24.17-20.22,0,0,7.19-11.87-13.37-5.98"/></g></g></g><g id="Groupe_251"><g class="cls-24"><g id="Groupe_250"><path id="Tracé_252" class="cls-2" d="M999.86,384.91c9.36,4.82-3.4,26.05-16.7,49.76-8.7,15.51-17.64,32.08-20.8,45.82"/><path id="Tracé_253" class="cls-11" d="M810.02,571.67c-7.9-19.21-19.73-36.55-34.74-50.91-9.33-8.86-20.46-17.06-32.52-21.11-33.75-11.35-45.85-10.76-60.72-17.31s-42.03-21.84-52.13-7.67c-6.11,8.57,14.95,21.59,37.65,36.57,14.84,9.79,30.38,20.42,39.48,31.19,14.01,16.74,24.77,35.95,31.72,56.64l37.79,168.63,104.3-25.31-70.83-170.74Z"/></g></g></g><g id="Groupe_253"><g class="cls-27"><g id="Groupe_252"><path id="Tracé_254" class="cls-8" d="M633.62,468.87s26.82,7.88,21.61,18.34c-5.21,10.46-30.75-6.9-30.75-6.9,0,0-11.83-7.26,9.15-11.44"/></g></g></g><g id="Groupe_255"><g class="cls-44"><g id="Groupe_254"><path id="Tracé_256" class="cls-2" d="M629.9,474.68c-6.11,8.57,14.95,21.59,37.65,36.57,14.84,9.79,30.38,20.42,39.48,31.19"/></g></g></g><g id="Groupe_257"><g class="cls-49"><g id="Groupe_256"><path id="Tracé_257" class="cls-13" d="M101.99,213.87l1.59,7.3c1.69,7.77,6.65,14.44,13.61,18.31l27.5,15.28c7.11,3.95,12.69,10.15,15.87,17.64,5.21,12.25,10.59,30.65,1.23,39.97l3.95,18.12c.77,3.53,4.25,5.76,7.78,5,0,0,0,0,0,0,3.12-.68,6.23,1.14,7.18,4.18,4.61,14.87,16.14,56.56,5.81,72.64l27.51,84.12c4.19,12.75-1.41,26.66-13.26,32.95-10.22,5.41-25.74,11.4-49.17,16.5s-40.03,6.11-51.58,5.44c-13.39-.8-24.27-11.12-25.76-24.45l-9.96-87.94c-16.07-10.33-22.94-53.03-24.92-68.48-.41-3.16,1.67-6.11,4.79-6.79,3.53-.77,5.76-4.25,4.99-7.78l-3.95-18.12c-12.39-4.58-15.15-23.55-15.5-36.86-.22-8.13,2.28-16.09,7.1-22.64l18.66-25.33c4.72-6.41,6.45-14.53,4.75-22.31l-1.59-7.3,43.38-9.44Z"/></g></g></g><g id="Groupe_262"><g class="cls-43"><g id="Groupe_261"><g id="Groupe_260" class="cls-52"><g id="Groupe_259"><g class="cls-42"><g id="Groupe_258"><path id="Tracé_258" class="cls-17" d="M123.5,553.75s-81.1-3.97-18.56-36.47c62.54-32.5,183.94-4.27,90.68,26.27s-72.12,10.2-72.12,10.2"/><path id="Tracé_259" class="cls-17" d="M64.27,438.91s63.28-3.85,122.23-26.62c0,0-86.62,87.21-160.23,76.1s38-49.48,38-49.48"/><path id="Tracé_260" class="cls-17" d="M45.19,337.76s60.43,7.49,116.6-25.4c0,0-91.03,57-141.99,52.36s25.4-26.97,25.4-26.97"/><path id="Tracé_261" class="cls-17" d="M26.43,254.33s43.62,29.63,82.07-36.27C146.95,152.16,0,234.12,0,234.12l26.43,20.2Z"/></g></g></g></g></g></g></g><g id="Groupe_267"><g class="cls-41"><g id="Groupe_266"><g id="Groupe_265" class="cls-52"><g id="Groupe_264"><g class="cls-45"><g id="Groupe_263"><path id="Tracé_263" class="cls-6" d="M43.5,461.03s128.32,70.39,175.98,.72c47.66-69.67,60.92,18.3,60.92,18.3l-96.95,73.62-128.64,12.09-11.31-104.73Z"/></g></g></g></g></g></g></g><g id="Groupe_269"><g class="cls-47"><g id="Groupe_268"><path id="Tracé_265" class="cls-17" d="M107.14,212.09h0l-4.52-20.77-54.02,11.76,4.52,20.77h.06c-.01,.11,0,.23,.02,.35,.68,3.11,13.33,3,28.26-.26s26.49-8.41,25.81-11.52c-.03-.12-.07-.23-.13-.34"/><path id="Tracé_266" class="cls-17" d="M107.14,212.09h0l-4.52-20.77-54.02,11.76,4.52,20.77h.06c-.01,.11,0,.23,.02,.35,.68,3.11,13.33,3,28.26-.26s26.49-8.41,25.81-11.52c-.03-.12-.07-.23-.13-.34"/></g></g></g><g id="Groupe_271"><g class="cls-46"><g id="Groupe_270"><path id="Tracé_267" class="cls-17" d="M65.91,200.49c2.58,11.04,5.17,22.08,7.75,33.13"/><path id="Tracé_268" class="cls-17" d="M55.12,202.84c2.58,11.04,5.17,22.08,7.75,33.12"/><path id="Tracé_269" class="cls-17" d="M76.92,198.09c2.58,11.04,5.17,22.08,7.75,33.12"/><path id="Tracé_270" class="cls-17" d="M88.07,195.66c2.58,11.04,5.17,22.08,7.75,33.13"/><path id="Tracé_271" class="cls-17" d="M98.43,193.4c2.58,11.04,5.17,22.09,7.75,33.13"/></g></g></g><g id="Groupe_273"><g class="cls-50"><g id="Groupe_272"><path id="Tracé_273" class="cls-16" d="M102.68,191.31c.68,3.11-10.88,8.27-25.81,11.52s-27.59,3.37-28.27,.26,10.88-8.27,25.81-11.52c14.93-3.25,27.59-3.37,28.26-.26"/><path id="Tracé_274" class="cls-4" d="M223.75,209.94c11.57-10.13,23.09-15.9,25.72-12.88l7.27,8.3-41.9,36.68-7.27-8.3c-2.64-3.01,4.6-13.67,16.17-23.79"/><path id="Tracé_275" class="cls-4" d="M223.75,209.94c11.57-10.13,23.09-15.9,25.72-12.88l7.27,8.3-41.9,36.68-7.27-8.3c-2.64-3.01,4.6-13.67,16.17-23.79"/></g></g></g><g id="Groupe_275"><g class="cls-48"><g id="Groupe_274"><path id="Tracé_276" class="cls-4" d="M253.17,207.64l-13.06-13.8"/><path id="Tracé_277" class="cls-4" d="M247.52,211.27l-17.65-19.55"/><path id="Tracé_278" class="cls-4" d="M240.42,217.32c-4.63-6.85-10.8-12.53-18-16.59"/><path id="Tracé_279" class="cls-4" d="M230.23,219.68l-11.48-12.81"/><path id="Tracé_280" class="cls-4" d="M226.16,227.57c-5.58-3.88-10.7-8.38-15.29-13.39"/><path id="Tracé_281" class="cls-4" d="M222.31,233.51c-6.61-3.18-12.05-8.35-15.57-14.78"/><path id="Tracé_282" class="cls-4" d="M216.16,239.59l-13.08-13.26"/></g></g></g><g id="Groupe_280"><g class="cls-28"><g id="Groupe_279"><path id="Tracé_284" class="cls-7" d="M231.01,218.24c-11.57,10.13-18.81,20.78-16.17,23.79s14.15-2.76,25.72-12.88,18.81-20.78,16.17-23.79-14.15,2.76-25.72,12.88"/><g id="Groupe_278" class="cls-52"><g id="Groupe_277"><g class="cls-29"><g id="Groupe_276"><path id="Tracé_285" class="cls-5" d="M306.66,216.87c-4.97,5.58-13.21,6.83-19.61,2.97-1.03-.63-1.98-1.4-2.81-2.28-5.66-6.01-6.2-12.67-20.27-8.67s-20.05,7.12-22.33,7.53-22.44,30.34-23.04,35.09-4.72,15.88,3.19,24.01,16.72,17.59,26.06,12.72c9.34-4.87-.51,16.16,11.13,16.94,11.64,.77,22.52-6.11,32.61-7.55s11.36-1.36,7.22,5.83c-4.14,7.19-7.31,14.59,3.72,13.91s26.39,3.44,37.93-9.17,17.2-17.17,21.98-19.24,14.93-17.04,4.58-20.12-14.3-3.2-8.28-11.11,18.54-18.35,8.67-22.38-12.82-8.46-19.81,1.36c-6.99,9.82-16.86,18.46-19.51,9.55s6.44-20.56,3.73-24.4-3.57-.61-8.36-4.88-5.75-9.58-9.36-7.48c-1.89,1.1-4.73,4.33-7.46,7.36"/></g></g></g></g></g></g></g><g id="Groupe_285"><g class="cls-32"><g id="Groupe_284"><g id="Groupe_283" class="cls-52"><g id="Groupe_282"><g class="cls-31"><g id="Groupe_281"><path id="Tracé_286" class="cls-15" d="M317.52,265.7s23.49-8.02,19.54,.59-1.68,27.35,8.56,23.81,8.03-27.64-3.05-30.48-25.05,6.08-25.05,6.08"/><path id="Tracé_287" class="cls-15" d="M299.99,270.31l-6.69,3.46c-1.19,.61-2.65,.15-3.26-1.04-.12-.23-.2-.48-.24-.74-.39-2.45-1.26-5.03-3.18-3.27-3.3,3.02-11.3,15.31-4.06,14.52s15.61-5.68,17.44-12.93"/><path id="Tracé_288" class="cls-15" d="M298.76,297.83s39.16-16.97,16.51,1.66c-22.65,18.64-30.07,13.78-30.07,13.78l13.56-15.44Z"/><path id="Tracé_289" class="cls-15" d="M368.48,251.19s-28.72,18.94-10.12,18.76,10.12-18.76,10.12-18.76"/><path id="Tracé_290" class="cls-15" d="M229.25,226.87s23.2,17.6,15.16,28.33-10.54,20.85,3.03,26.4c13.58,5.55-31.68,29.59-34.13,2.8s15.94-57.53,15.94-57.53"/><path id="Tracé_291" class="cls-15" d="M250.11,290.98s39.51-6.76,21.01,7.41-21.04-6.94-21.04-6.94"/><path id="Tracé_292" class="cls-15" d="M310.48,212.7s-43.77,54.69-35.04,9,35.04-9,35.04-9"/><path id="Tracé_293" class="cls-15" d="M335.12,229.68s-21.65,1.52-16.24,15.4c5.41,13.88,17.84-1.32,17.84-1.32l-1.6-14.08Z"/></g></g></g></g><path id="Tracé_294" class="cls-15" d="M372.99,283.01c-1.3,.55-75.36,21.28-96.42-5.2s11.87,34.44,11.87,34.44l86.76,1.12s14.95-24.69,6.34-28.58-8.54-1.77-8.54-1.77"/><path id="Tracé_295" class="cls-15" d="M302.06,298.05c.17-2.52,5.95-32.35-12.7-37.82s-23.37,8.27-32.93-.45,3.27,23.83,3.27,23.83"/><path id="Tracé_296" class="cls-15" d="M268.49,207.9s-29.33-21.88-7.22,36.45c22.11,58.33-1.34,80.48-32.57,63.93s-13.18-78.31-13.18-78.31l31.23-26.9"/><path id="Tracé_297" class="cls-15" d="M338.38,253.43c-38.24,9.84-65.08-2.72-33.66-17.74s51.04-20.9,51.04-20.9"/></g></g></g><g id="Groupe_287"><g class="cls-30"><g id="Groupe_286"><path id="Tracé_299" class="cls-4" d="M417.32,369.1l-1.23,9.11c-.46,3.45,.48,6.94,2.61,9.68l33.13,42.62c4.31,5.54,6.2,12.58,5.27,19.54l-26.08,193.48c-.89,6.61-5.71,12.02-12.18,13.65-11.96,3.01-33.27,6.41-60.96,2.67s-47.34-12.65-58.08-18.72c-5.81-3.29-9.03-9.78-8.14-16.39l26.08-193.48c.94-6.96,4.63-13.24,10.25-17.45l43.23-32.33c2.79-2.08,4.62-5.2,5.08-8.65l1.23-9.11,39.8,5.36Z"/></g></g></g><g id="Groupe_295"><g class="cls-33"><g id="Groupe_294"><g id="Groupe_290" class="cls-52"><g id="Groupe_289"><g class="cls-36"><g id="Groupe_288"><path id="Tracé_300" class="cls-18" d="M293.82,648.77s-21.67-50.99,82.26-33.37,47.56,82.86,47.56,82.86l-152.18-58.84"/></g></g></g></g><g id="Groupe_293" class="cls-52"><g id="Groupe_292"><g class="cls-34"><g id="Groupe_291"><path id="Tracé_301" class="cls-18" d="M347.48,385.82c16.2,1.31,68.51-5.64,69.84-16.72s-58.16-7.84-58.16-7.84"/></g></g></g></g></g></g></g><g id="Groupe_300"><g class="cls-35"><g id="Groupe_299"><g id="Groupe_298" class="cls-51"><g id="Groupe_297"><g class="cls-37"><g id="Groupe_296"><path id="Tracé_303" class="cls-10" d="M336.24,419.92s55.23,11.04,76.74,11.02,6.18,13.86-20.93,9.71c-17.67-2.7-42.57-7.47-57.76-10.46-6.53-1.29-5.07-11.2,1.53-10.34,.14,.02,.28,.04,.42,.07"/></g></g></g></g></g></g></g><g id="Groupe_302"><g class="cls-39"><g id="Groupe_301"><path id="Tracé_305" class="cls-4" d="M373.82,342.82l-2.55,18.89c-.04,.12-.07,.24-.09,.36-.5,3.71,10.89,8.3,25.44,10.26,14.27,1.92,26.26,.6,27.2-2.95h.02l2.62-19.46-52.65-7.1Z"/><path id="Tracé_306" class="cls-7" d="M426.43,350.21c-.4,2.94-12.51,3.73-27.06,1.77s-26.02-5.93-25.63-8.87,12.51-3.73,27.06-1.77,26.02,5.93,25.63,8.87"/></g></g></g><g id="Groupe_304"><g class="cls-40"><g id="Groupe_303"><path id="Tracé_307" class="cls-13" d="M554.03,319.54s-24.16-14.81-43.03-50.74c-13.59-25.88-37.77,2.59-10.41,34.7,26.01,30.52,53.44,16.04,53.44,16.04"/><path id="Tracé_308" class="cls-13" d="M490.57,264.17s23.54,52.7,63.48,55.18"/><path id="Tracé_309" class="cls-13" d="M489.07,282.25h11.89s2.32-22.29,2.32-22.29"/><path id="Tracé_310" class="cls-13" d="M493.71,293.74l16.19,.18,2.28-22.93"/><path id="Tracé_311" class="cls-13" d="M501.58,304.63l18.7-.3,1.73-17.46"/><path id="Tracé_312" class="cls-13" d="M511.37,313.71l20.37-1.26,.92-12.1"/><path id="Tracé_313" class="cls-13" d="M524.78,320.83l20-2.98-1.93-7.14"/><path id="Tracé_314" class="cls-13" d="M257.21,507.89s-1.2,19.15-16.04,32.09-13.27,24.89-11.06,38.19c0,0,52.98-16.14,27.1-70.27"/><path id="Tracé_315" class="cls-13" d="M257.21,507.89s8.98,42.84-27.12,70.24"/><path id="Tracé_316" class="cls-12" d="M507.02,382.3c0-12.35-4.12-16.47-16.47-16.47,12.35,0,16.47-4.12,16.47-16.47,0,12.35,4.12,16.47,16.47,16.47-12.35,0-16.47,4.12-16.47,16.47"/><path id="Tracé_317" class="cls-12" d="M256.74,423.41c0-10.63-3.54-14.18-14.18-14.18,10.63,0,14.18-3.54,14.18-14.18,0,10.63,3.54,14.18,14.18,14.18-10.63,0-14.18,3.54-14.18,14.18"/><path id="Tracé_318" class="cls-12" d="M554.03,600.52c0-14.61-4.87-19.48-19.48-19.48,14.61,0,19.48-4.87,19.48-19.48,0,14.61,4.87,19.48,19.48,19.48-14.61,0-19.48,4.87-19.48,19.48"/><path id="Tracé_319" class="cls-13" d="M463.22,558.19s24.16-14.8,43.03-50.75c13.59-25.88,37.77,2.59,10.41,34.7-26,30.52-53.44,16.05-53.44,16.05"/><path id="Tracé_320" class="cls-13" d="M526.69,502.83s-23.54,52.7-63.48,55.18"/><path id="Tracé_321" class="cls-13" d="M528.18,520.91h-11.9s-2.32-22.29-2.32-22.29"/><path id="Tracé_322" class="cls-13" d="M523.54,532.4l-16.19,.18-2.28-22.93"/><path id="Tracé_323" class="cls-13" d="M515.67,543.29l-18.7-.3-1.73-17.46"/><path id="Tracé_324" class="cls-13" d="M505.89,552.37l-20.37-1.26-.92-12.1"/><path id="Tracé_325" class="cls-13" d="M492.47,559.49l-20-2.98,1.93-7.14"/></g></g></g><rect id="Rectangle_111" class="cls-1" y="177.37" width="1057.91" height="586.33"/><g id="Groupe_308"><g class="cls-38"><g id="Groupe_307"><path id="Tracé_326" class="cls-14" d="M699.05,0c30.38,1.95,53.04,15.96,66.93,43.33,5.87,11.43,8.45,24.27,7.46,37.09-2.18,28.83-16.14,50.23-41.7,63.83-11.1,5.82-23.51,8.68-36.03,8.28-33.13-.81-61.96-22.9-71.36-54.69-.83-2.87-1.47-5.78-2.04-8.7-.18-.94,.1-1.14,.97-.92,5.02,1.3,9.94,2.98,14.7,5.03,.73,.32,.86,.9,1.05,1.51,8.34,26.18,33.08,43.61,60.54,42.66,33.75-1.19,60.15-29.52,58.96-63.27-1.19-33.75-29.52-60.15-63.27-58.96-28.61,1.01-52.69,21.73-57.96,49.87-.19,1.02-.06,2.45-.67,2.93-.66,.52-1.87-.42-2.85-.7-3.44-1.03-6.97-1.75-10.54-2.15-1.12-.11-1.1-.57-.96-1.38,1.04-6.36,2.92-12.56,5.59-18.43,10.66-22.82,28.33-37.18,52.7-43.31,6.05-1.45,12.26-2.12,18.49-2.01"/><path id="Tracé_327" class="cls-4" d="M387.79,147.36c.13-5.59,.75-11.16,1.84-16.64,.11-.6,.55-.82,1.01-1.09,12.57-7.09,22.21-18.41,27.2-31.95,9.31-24.38,1.25-53.31-19.3-69.37-11.74-9.36-26.53-14.04-41.51-13.13-26.88,1.28-50.49,21.01-56.11,47.28-4.91,22.94,1.22,42.78,18.22,58.96,9.45,8.99,20.94,14.06,33.94,15.64,3.78,.5,7.6,.61,11.4,.32,.51-.04,.95-.13,.84,.67-.58,4.47-.63,8.99-.14,13.47,.08,.86-.33,.78-.87,.81-36.2,2.05-69.42-22.76-77.93-58.23-8.68-36.2,10.11-73.37,44.4-87.86,13.5-5.78,28.39-7.48,42.85-4.89,30.87,5.31,55.82,29.35,61.53,60.25,5.13,27.75-2.99,51.56-23.48,71-6.9,6.45-15.02,11.46-23.87,14.75"/><path id="Tracé_328" d="M605.3,76.51c-1.11,28.82-13.77,50.93-38.58,65.93-3.02,1.77-6.17,3.31-9.42,4.6-.71,.29-1,.26-1.01-.6-.05-5.32,.55-10.64,1.79-15.81,.17-.7,.7-.93,1.22-1.23,11.35-6.44,20.31-16.38,25.54-28.33,4.65-10.18,6.27-21.48,4.66-32.56-3.33-22.81-15.66-39-36.66-48.45-8.91-3.96-18.68-5.57-28.39-4.7-15.97,1.01-30.86,8.39-41.34,20.48-7.79,8.68-12.83,19.48-14.49,31.03-.15,1.02-.36,1.32-1.49,.98-4.02-1.22-8.15-2-12.34-2.31-1.04-.07-1.34-.29-1.14-1.46,3-18.7,12.92-35.6,27.8-47.32,10.7-8.78,23.7-14.31,37.44-15.93,24.66-2.96,46.04,4.26,63.79,21.56,12.26,11.95,19.39,26.65,21.85,43.59,.13,.9,.21,1.8,.31,2.71,.28,2.58,.34,5.18,.45,7.83"/><path id="Tracé_329" class="cls-12" d="M417.55,74.15c.2,5.43-.35,10.85-1.62,16.13-.16,.66-.62,1.22-1.24,1.5-16.15,9.58-26.27,23.56-29.79,42-4.77,25.13,6.64,50.56,28.58,63.71,11.92,7.31,26.02,10.21,39.86,8.2,24.27-3.17,44.27-20.57,50.76-44.17,.68-2.32,1.18-4.69,1.5-7.09,.09-.75,.21-1.12,1.2-.84,4.2,1.2,8.5,2,12.85,2.39,.7,.06,.73,.27,.65,.85-.52,3.59-1.34,7.13-2.45,10.58-6.27,19.42-18.29,34.21-36.1,44.19-8.88,4.98-18.71,8.05-28.84,9.01-16.84,1.88-33.8-2.08-48.07-11.22-18.57-11.77-30.56-28.47-34.36-50.16-5.34-30.46,4.7-55.47,28.75-74.83,5.31-4.18,11.21-7.54,17.51-9.97,.23-.09,.47-.17,.81-.29"/><path id="Tracé_330" class="cls-13" d="M613.04,206.15c29.55-.07,54.13-19.87,60.29-48.14,.27-1.22,.48-2.46,.65-3.7,.11-.78,.25-1.12,1.21-.84,4.24,1.22,8.59,2.04,12.98,2.44,.66,.06,.83,.18,.71,.91-1.37,8.86-4.32,17.41-8.73,25.21-14.33,25.69-42.15,40.84-71.5,38.95-29.29-1.96-54.88-20.5-65.85-47.73-4.53-11.15-6.28-23.24-5.1-35.22,1.88-19.53,10.19-35.91,24.53-49.23,6.69-6.19,14.46-11.09,22.92-14.46,.85-.34,1.01-.18,1.02,.68,.08,5.2-.5,10.38-1.73,15.43-.11,.55-.47,1.01-.96,1.27-15.77,9.19-26.01,22.62-29.64,40.5-4.42,21.81,1.4,40.88,17.18,56.67,9.21,9.21,20.51,14.54,33.35,16.61,2.86,.5,5.76,.71,8.66,.65"/><path id="Tracé_331" d="M527.92,152.38c-23.57-.69-43.09-9.93-58.17-28.14-8.2-9.96-13.68-21.88-15.91-34.58-.19-1.01-.14-1.36,1.09-1.09,4.81,1.04,9.55,2.39,14.18,4.07,.69,.22,1.22,.79,1.38,1.49,6.76,20.66,20.49,34.36,41.26,40.86,6.8,2.11,13.94,2.9,21.04,2.31,.95-.07,1.11,.07,.95,1.08-.69,4.32-.69,8.73,0,13.05,.12,.79,0,.97-.75,.96-1.69-.03-3.38,0-5.07,0"/><path id="Tracé_332" class="cls-12" d="M440.35,83.86c.78-4.59,.82-9.28,.15-13.88-.12-.82,.06-.95,.78-.97,3.85-.15,7.71-.05,11.56,.29,8.97,.87,17.7,3.38,25.76,7.41,21.61,11.07,35.24,28.41,40.89,52.04,.15,.63,.26,1.27,.39,1.9s.24,1.27,.38,2.04c-2.77-.4-5.49-1.02-8.16-1.86-2.27-.68-4.49-1.54-6.76-2.21-.88-.22-1.55-.93-1.73-1.81-7.12-23.2-27.33-39.96-51.44-42.68-3.57-.46-7.17-.55-10.76-.28-.34,.03-.68,0-1.05,0"/><path id="Tracé_333" class="cls-13" d="M614.39,83.75c-1.76,.08-3.28,.12-4.79,.24-.76,.06-.93-.11-.79-.91,.72-4.36,.73-8.81,.03-13.17-.13-.82,.08-.93,.8-.97,11.06-.66,22.13,1.2,32.37,5.43,24.69,10.51,40.06,28.94,46.2,55.04,.85,3.61,.8,3.61-2.86,2.78-4.08-.95-8.1-2.16-12.02-3.63-.61-.19-1.08-.7-1.21-1.32-4.05-13.66-12.81-25.44-24.71-33.27-8.03-5.42-17.28-8.77-26.92-9.73-2.11-.22-4.23-.34-6.1-.48"/></g></g></g></g></g></svg>
