<?xml version="1.0" encoding="UTF-8"?><svg id="Calque_2" xmlns="http://www.w3.org/2000/svg" viewBox="0 0 1437.2 1199.46"><defs><style>.cls-1{fill:#f3f3f3;}.cls-2{fill:#0182c8;}.cls-3{fill:#02004d;}.cls-4{fill:#ff5756;}.cls-5{fill:#fff;}.cls-6{fill:#ffb27d;}.cls-7{fill:#fcbf31;}.cls-8{fill:#00a651;}.cls-9{fill:#c2c68e;}</style></defs><g id="_Layer_"><g><path class="cls-8" d="M733.7,788.26s432.3-371.93,524.43-217.46c92.13,154.47-342.5,166.78-465.06,280.17l-59.36-62.71Z"/><path class="cls-7" d="M766.64,823.72c83.57-80.1,194.53-133.02,272.91-163.31,84.97-32.83,150.95-46.87,151.61-47.01l-.46-4.96c-.66,.14-66.93,14.23-152.17,47.18-78.72,30.42-190.21,83.61-274.3,164.21l2.42,3.89Z"/><path class="cls-8" d="M876.45,962.15c45.51,12.22,6.68,12.05,60.39,29.17,3.05,25.45,73.72,26.84,105.24,2.56,40.16-30.94,36.61-21.66,108.91,13.9,51.87,25.48,72.2-20.82,105.48-48.97,.6-.52,1.22-1.02,1.83-1.53,12.68-10.32,27.32-17.84,46.24-17.81,20.07,.05,41.37-2.61,60.9-7.97,1.62-.44,3.23-.9,4.83-1.39,39.04-11.77,69.67-34.66,66.48-68.41-.07-.8-.16-1.6-.28-2.41-.79-5.66-2.52-11.62-5.31-17.87-29.02-65.13-79.16-59.44-133.15-66.31-29.85-3.8-60.09-51.92-95.13-80.77-.5-.41-1.01-.82-1.51-1.23-27.94-22.46-58.95-32.19-95.21,2.72,0,0,0,0-.01,.01-.74,.71-1.47,1.41-2.19,2.1-80.64,76.65-97.76,35.72-178.7,30.84-15.06-.9-28.8-1.05-39.38,4.04-98.62,47.42-74.03,159.56-9.44,229.32Z"/><g><path class="cls-7" d="M895.93,870.2l-1.7-4.29c1.89-.75,193.43-74.3,542.98-6.47l-.88,4.54c-348.24-67.57-538.51,5.48-540.4,6.22Z"/><path class="cls-7" d="M1141.64,783.16c-36.85-51.3-37.77-85.84-37.79-87.28l4.62-.07c0,.34,1.01,34.67,36.93,84.66l-3.75,2.69Z"/><path class="cls-7" d="M1138.95,833.58c-7.93-25.53,.44-57.99,24.2-93.89,17.79-26.88,38.19-46.55,38.4-46.74l3.2,3.33c-.8,.77-79.61,77.23-61.38,135.93l-4.41,1.37Z"/><path class="cls-7" d="M1232.19,845.72c-4.46-5.76-6.76-9.38-6.87-9.54l3.91-2.45c.48,.77,49.04,76.82,141.46,94.11l-.85,4.54c-74.47-13.93-121.04-65.19-137.66-86.66Z"/><path class="cls-7" d="M1254.5,959.93c-15.85-27.95-16.72-52.62-14.67-68.39,2.24-17.17,8.21-27.6,8.46-28.03l4,2.32c-.23,.4-22.78,40.65,6.23,91.83l-4.02,2.28Z"/></g><ellipse class="cls-2" cx="616.47" cy="1109.48" rx="616.47" ry="89.97"/><path class="cls-3" d="M894.92,149.82l-6.68,227.9-.8,27.48-2.82,96.08-1.99,68.16-.66,22.56-.54,18.16-.74,25.3-.4,13.75-.27,9.24-.51,17.33-1.7,58.12-.09,3.16-.08,2.43-1.82,62.36-4.53,154.53-2.2,75.09c-.08,2.52-.39,4.98-.91,7.36-3.32,15.06-15.22,26.83-30.25,30.02-2.65,.56-5.4,.86-8.22,.86H310.01c-21.36,0-38.83-17.02-39.38-38.38l-.31-11.79-9.65-372.16-4.48-172.63-.84-32.33-.61-23.77-.11-4.21-.55-21.23-.86-32.95-.33-12.93-.17-6.43-.21-8.25-.64-24.36-.12-4.7-.15-5.9-.32-12.14-.8-30.85-.6-23.41-2.12-81.6c-.58-22.15,17.22-40.42,39.38-40.42h107.76c-3.07,9.03-5.01,18.53-5.88,27.83-.06,.66-.12,1.31-.17,1.96-3.89,50.33,26.58,77.65,83.64,75.24,41.6-1.69,72.6-31.31,72.6-72.92,0-1.44-.02-2.87-.07-4.28-.3-10.05-1.73-19.37-4.64-27.83h315.16c22.21,0,40.03,18.35,39.38,40.55Z"/><path class="cls-1" d="M864.13,173.88l-2.96,185.72-.03,1.74-2.06,129.35-1.53,95.91-.67,41.81-.27,17.11-.16,9.82-.6,37.36-.88,55.66-.08,4.75v.88s-.93,57.78-.93,57.78l-1.9,119.12-.5,31.08c-.27,16.82-11.98,30.81-27.64,34.61-2.74,.67-5.61,1.02-8.56,1.02H330.09c-19.59,0-35.62-15.57-36.19-35.15l-9.26-316.44-5.01-171.26-.99-33.97-.67-22.64-.1-3.66-.43-14.46-.18-6.39-.89-30.33-.73-24.89-.35-11.89-.19-6.42-.16-5.73-.17-5.86-.34-11.47-1.04-35.6-.87-29.61-1.68-57.47c-.59-20.4,15.78-37.26,36.19-37.26h81.99c-.06,.66-.12,1.31-.17,1.96-3.89,50.33,26.58,77.65,83.64,75.24,41.6-1.69,72.6-31.31,72.6-72.92,0-1.44-.02-2.87-.07-4.28h282.91c20.22,0,36.53,16.56,36.2,36.78Z"/><path class="cls-7" d="M368.6,813.41l404.94-16.09c14.31-.57,25.41-7.3,25.41-15.41v-73.79c0-8.39-11.84-15.25-26.67-15.45l-407.84-5.52c-15.53-.21-28.24,6.93-27.97,15.71l2.9,95.41c.27,8.85,13.61,15.77,29.23,15.15Z"/><path class="cls-7" d="M349.53,974.83l164.73-16.09c5.82-.57,10.34-7.3,10.34-15.41v-73.79c0-8.39-4.82-15.25-10.85-15.45l-165.91-5.52c-6.32-.21-11.49,6.93-11.38,15.71l1.18,95.41c.11,8.85,5.54,15.77,11.89,15.15Z"/><path class="cls-7" d="M579.63,968.19l164.73-16.09c5.82-.57,10.34-7.3,10.34-15.41v-73.79c0-8.39-4.82-15.25-10.85-15.45l-165.91-5.52c-6.32-.21-11.49,6.93-11.38,15.71l1.18,95.41c.11,8.85,5.54,15.77,11.89,15.15Z"/><path class="cls-8" d="M125.36,451.55l405.06-28.46c14.32-1.01,25.41-12.91,25.41-27.26v-130.53c0-14.84-11.84-26.97-26.67-27.32l-407.96-9.77c-15.53-.37-28.25,12.26-27.98,27.79l2.9,168.76c.27,15.66,13.62,27.89,29.24,26.79Z"/><path class="cls-4" d="M203.49,650.64l326.79-18.63c10.06-.57,18.15-10.29,18.74-22.51l5.31-109.38c.67-13.76-8.33-25.36-19.66-25.36H202.57c-10.88,0-19.7,10.72-19.7,23.95v128.01c0,13.67,9.39,24.57,20.62,23.93Z"/><g><path class="cls-5" d="M396.4,349.66c25,0,50.92-4.46,74.68-13.23,1.37-.51,2.07-2.02,1.56-3.39-.51-1.37-2.01-2.07-3.39-1.56-39.46,14.57-84.98,16.96-121.79,6.41-49.96-14.33-181.1-82.49-182.42-83.18-1.27-.66-2.88-.18-3.56,1.12-.67,1.29-.17,2.88,1.12,3.56,1.32,.69,132.93,69.1,183.4,83.57,15.63,4.48,32.79,6.7,50.39,6.7Z"/><polygon class="cls-5" points="138.03 345.9 211.14 282.02 207.96 278.38 134.85 342.26 138.03 345.9"/><rect class="cls-5" x="171.14" y="357.23" width="129.86" height="4.83" transform="translate(-181.65 256.77) rotate(-42.88)"/><polygon class="cls-5" points="227.63 368.56 229.91 364.3 156.87 325.1 154.59 329.36 227.63 368.56"/><rect class="cls-5" x="238.82" y="376.17" width="116.71" height="4.84" transform="translate(-177.83 301.06) rotate(-42.6)"/><path class="cls-5" d="M404.6,419.32c1.22-2.07,29.71-51.13,4.84-84.36-23.57-31.48-33.34-90.67-33.43-91.26l-4.77,.76c.4,2.48,10.06,60.97,34.33,93.4,22.93,30.63-4.84,78.52-5.13,79l4.16,2.46Z"/></g><path class="cls-5" d="M371.04,301.21s24.21,28,18.08,31.77-51.96-4.98-50.42-8.6c1.54-3.63,27.61-23.57,32.34-23.17Z"/><path class="cls-5" d="M289.72,400.77s46.03-49.05,52.99-47.66c6.96,1.39,45.12,4.5,55.47,4.34,10.34-.16-7.48,58.84-13,60.65-5.52,1.81-110.45,0-110.45,0l14.99-17.32Z"/><path class="cls-5" d="M346.69,299.5l-18.07,15.65c-3.51,3.04-10.36,3.63-15.06,1.3l-76.04-37.72c-3.8-1.88-5.05-5.15-3.04-7.91l9.09-12.49c2.67-3.66,9.91-4.99,15.3-2.8l85.02,34.56c5.05,2.05,6.33,6.34,2.8,9.4Z"/><path class="cls-5" d="M360.31,246.65s10.64,39.74,5.55,39.53-90.11-33.96-89.79-37.44c.32-3.48,84.23-2.09,84.23-2.09Z"/><path class="cls-5" d="M170.64,324.06s34.7-33.92,40.25-31.83c5.55,2.09,56.07,19.13,53.57,25.66-2.5,6.52-32.48,37.26-39.69,35.2-7.22-2.06-58.57-26.76-54.13-29.02Z"/><path class="cls-5" d="M264.55,349.51s22.78-24.16,26.56-22.29c3.79,1.88,20.07,8.83,19.33,12.08-.74,3.25-24.8,28.27-28.87,27.12s-19.52-14.33-17.03-16.92Z"/><path class="cls-5" d="M228.77,385.99s26.56-31.14,30.99-29.52c4.42,1.62,16.27,11.13,14.97,14.73-1.3,3.59-19.03,23.31-22.93,22.84-3.9-.46-23.03-8.05-23.03-8.05Z"/><path class="cls-5" d="M155.73,268.57s30.89,13.65,29.7,17.61c-1.19,3.96-50.87,44.49-55.04,43.97-4.16-.52-3.61-68.53,3.33-67.84,6.94,.7,22.01,6.26,22.01,6.26Z"/><path class="cls-5" d="M178.47,255.35s32.98,20.41,38.99,14.38c6.01-6.03,11.19-24.35,3.42-25.51-7.77-1.16-60.76-4.87-42.41,11.13Z"/><path class="cls-9" d="M391.49,251.38s6.15,25.54,11.04,38.06c4.89,12.52,22.1,45.8,27.1,44.47,5-1.33,79.86-27.36,75.74-54.53-4.12-27.17-10.75-35.1-29.01-35.31-18.26-.21-90.79-5.02-84.86,7.3Z"/><path class="cls-5" d="M422.55,406.68s12.72-35.14,12.39-43.83c-.33-8.7,21.32-9.38,34.65-14.43,13.32-5.05,40.12-13.75,42.82,1.21,2.7,14.96-33.88,55.16-33.88,55.16,0,0-.86,13.48-15.05,14.11-14.19,.63-43.56-4.72-40.93-12.21Z"/><path class="cls-4" d="M593.95,130.97c-.51-7.44-1.34-14.68-2.51-21.7C581.34,48.22,546.27,4.13,481.63,.27c-76.08-4.55-130.52,48.63-145.16,109-2.23,9.17-3.54,18.5-3.86,27.83-.05,1.53-.08,3.06-.08,4.59,0,28,11.85,60.51,28.43,92.26,3.96,7.61,8.21,15.17,12.62,22.62,2.68,4.53,5.44,9.03,8.23,13.47t.01,.02c17.14,27.2,35.84,52.17,50.99,71.16,1.28,1.6,2.53,3.16,3.76,4.67,2.07,2.57,4.07,5.01,5.97,7.31,.55,.66,1.13,1.29,1.74,1.89,11.01,11.01,29.48,10.37,39.55-2.1,2.8-3.43,5.81-7.17,8.98-11.19,17.89-22.66,40.97-54.06,60.59-87.77,22.83-39.24,40.97-81.6,40.78-116.93-.01-2.07-.09-4.11-.23-6.13Zm-199.05-21.7c10.43-30.8,33.92-56.17,72.86-49.53,42.98,7.33,64.13,24.81,72.62,49.53,2.91,8.46,4.34,17.78,4.64,27.83,.05,1.41,.07,2.84,.07,4.28,0,41.61-31,71.23-72.6,72.92-57.06,2.41-87.53-24.91-83.64-75.24,.05-.65,.11-1.3,.17-1.96,.87-9.3,2.81-18.8,5.88-27.83Z"/><path class="cls-5" d="M516.51,541.44c-1.18-17.25-9.62-30.24-26.87-31.27-21.42-1.29-35.67,16.56-35.67,33.83s17.5,39.92,26.32,50.6c2.56,3.09,7.34,3.09,9.88-.05,9.1-11.16,27.52-36.05,26.34-53.11Zm-29.06,19.93c-13.65,.58-20.94-5.96-20.01-18,.78-9.93,6.64-21.06,18.88-18.98,14.31,2.44,18.5,9.58,18.5,19.54s-7.41,17.04-17.37,17.44Z"/><path class="cls-5" d="M357.3,536.62l63.58,.23c2.32,0,4.08-2.07,3.7-4.35l-.04-.23c-.3-1.8-1.86-3.12-3.69-3.12h-63.54c-2.07,0-3.74,1.67-3.74,3.74h0c0,2.06,1.67,3.73,3.73,3.74Z"/><path class="cls-5" d="M357.3,571.09l63.58,.23c2.32,0,4.08-2.07,3.7-4.35l-.04-.23c-.3-1.8-1.86-3.12-3.69-3.12h-63.54c-2.07,0-3.74,1.67-3.74,3.74h0c0,2.06,1.67,3.73,3.73,3.74Z"/><path class="cls-5" d="M384.59,553.85l37.82,.23c1.38,0,2.43-2.07,2.2-4.35l-.02-.23c-.18-1.8-1.11-3.12-2.19-3.12h-37.79c-1.23,0-2.22,1.67-2.22,3.74h0c0,2.06,.99,3.73,2.22,3.74Z"/><path class="cls-5" d="M333.12,553.85l37.82,.23c1.38,0,2.43-2.07,2.2-4.35l-.02-.23c-.18-1.8-1.11-3.12-2.19-3.12h-37.79c-1.23,0-2.22,1.67-2.22,3.74h0c0,2.06,.99,3.73,2.22,3.74Z"/><g><path class="cls-6" d="M566.85,362.69h1.96c2.83,0,5.13,2.3,5.13,5.13v26.11c0,2.83-2.3,5.13-5.13,5.13h-1.96c-2.83,0-5.13-2.3-5.13-5.13v-26.11c0-2.83,2.3-5.13,5.13-5.13Z" transform="translate(-108.47 280.32) rotate(-25.39)"/><rect class="cls-6" x="570.93" y="354.35" width="12.21" height="37.9" rx="5.03" ry="5.03" transform="translate(-104.33 283.47) rotate(-25.39)"/><path class="cls-6" d="M600.07,412.08l-1.75-.41c-3.27-.76-5.31-4.06-4.55-7.32l7.41-31.81c.76-3.27,5.08-8.23,8.35-7.45,5.38,1.29,6.04,7.36,5.28,10.63l-7.41,31.81c-.76,3.27-4.06,5.31-7.32,4.55Z"/><path class="cls-6" d="M597.21,385.71l-.98,.47c-2.86,1.36-6.32,.13-7.67-2.73l-17.39-36.64c-1.36-2.86-3.33-9.61,1.99-11.54,3.89-1.41,7.71,5.4,9.9,9.77,4.38,8.76,16.89,33,16.89,33,1.36,2.86,.13,6.32-2.73,7.67Z"/><path class="cls-6" d="M577.13,422.37s-24.92-21.9-26.32-42.33c-.48-7.07,30.99-21.97,37.2-17.02,6.2,4.95,19.46,34.85,19.46,34.85l-30.34,24.5Z"/><path class="cls-6" d="M566.33,400.41l-2.59,1.23c-2.31,1.1-.41,5.61-2,3.6-10.92-13.8-14.09-26.62-14.09-26.62-1.1-2.31-.09-6.52,2.23-7.62l2.31-.69c2.31-1.1,5.37,.77,6.47,3.08l9.88,20.81c1.1,2.31,.1,5.11-2.21,6.21Z"/></g><path class="cls-3" d="M753.11,1079.57s-.88,16.93-12.47,21.39c-11.59,4.47-44.91,7.88-32.8,19.11,6.95,6.44,40.61,3.31,50.09,3.56,9.47,.26,18.26,4.62,25.47-1.53,7.93-6.77,1.12-41.69,1.12-41.69,0,0-8.29,4.04-15.64,3.65-10.59-.56-15.77-4.5-15.77-4.5Z"/><path class="cls-4" d="M669.97,652.9c2.21,35.14,6.4,80.75,14.14,136.53,14.76,106.33,32.67,213.56,41.49,264.98,3.16,18.39,18.18,32.18,36.39,33.41l9.79,.66c19.69,1.32,36.15-15.18,35.25-35.35l-15.41-346.65-1.46-55.14s-123.82-56.09-120.19,1.57Z"/><path class="cls-3" d="M861.65,1082.5s-.88,16.93-12.47,21.39c-11.59,4.47-44.91,7.88-32.8,19.11,6.95,6.44,40.61,3.31,50.09,3.56,9.47,.26,18.26,4.62,25.47-1.53,7.93-6.77,1.12-41.69,1.12-41.69,0,0-8.29,4.04-15.64,3.65-10.59-.56-15.77-4.5-15.77-4.5Z"/><path class="cls-4" d="M776.56,568.69s-4.35,76.37,16.09,223.67c14.76,106.33,32.67,213.56,41.49,264.98,3.16,18.39,18.18,32.18,36.39,33.41l9.79,.66c19.69,1.32,36.15-15.18,35.25-35.35l-15.41-346.65-3.03-114.04-120.58-26.67Z"/><path class="cls-3" d="M797.43,822.33c.08-.63,8.44-63.12,14.72-85.5,6.22-22.17,35.06-41.44,35.35-41.63l-.82-1.24c-.3,.19-29.59,19.77-35.96,42.46-6.31,22.48-14.68,85.08-14.76,85.71l1.47,.2Z"/><path class="cls-6" d="M797.88,333.9l-7.63-22.85-2.22-6.65-13.05-39.12-1.72,38.91-1.03,23.36-.33,7.39c-.22,5.02-3.52,6.07-7.52,10.43-1.62,1.77-12.02,12.48-.22,17.32,14.7,6.03,42.17-3.1,52.61-15.06-.08-.02-16.44-6.35-18.9-13.73Z"/><ellipse class="cls-6" cx="776.97" cy="279.88" rx="42.01" ry="37.36" transform="translate(339.01 980.03) rotate(-77.78)"/><path class="cls-3" d="M755.89,265.28c-21.4,.75-31.79-10.72-32.03-21.34-.32-13.62,8.92-25.68,19.67-20.62,10.75,5.06,6.14-7.35,16.47-8.67,19.32-2.46,22.94,10.3,38.75,10.92,20.86,.82,44.63,33.09,27.16,56.64,0,0-53.12-17.52-70.02-16.93Z"/><path class="cls-3" d="M736.84,251.55s22.87,20.45,19.85,31.95c-3.02,11.51-2.25,16.01,11.1,22.15,13.36,6.14,1.56,16.1,19.36,16.82,17.8,.72,39.61-18.81,39.6-50.93,0-17.9-11.08-29.62-11.08-29.62l-78.85,9.62Z"/><path class="cls-6" d="M745.14,282.99c2.59-3.41,7.36-4.44,10.64-2.29,3.29,2.15,3.85,6.66,1.26,10.08-2.59,3.41-7.36,4.44-10.64,2.29-3.29-2.15-3.85-6.66-1.26-10.08Z"/><path class="cls-3" d="M834.49,291.06s.08,0,.12-.01c.29-.07,.46-.35,.39-.64-1.14-4.78-5.85-7.4-6.05-7.51-.26-.14-.58-.05-.72,.21-.14,.26-.05,.58,.21,.72,.04,.02,4.5,2.51,5.53,6.83,.06,.24,.28,.41,.52,.41Z"/><path class="cls-3" d="M828.7,281.4s.02,0,.03,0c.27-.02,6.67-.44,7.66-5.39,.06-.29-.13-.57-.42-.62-.29-.06-.57,.13-.62,.42-.83,4.15-6.62,4.54-6.68,4.54-.29,.02-.52,.27-.5,.56,.02,.28,.25,.5,.53,.5Z"/><path class="cls-3" d="M746.77,222.52c.74,0,1.43-.22,2.05-.64,2.74-1.87,3.33-7.26,3.35-7.49,.03-.29-.18-.55-.47-.58-.3-.04-.55,.18-.58,.47,0,.05-.56,5.13-2.89,6.72-.68,.47-1.44,.58-2.32,.33-1.62-.45-2.88-1.25-4.09-2.04-2.39-1.54-4.86-3.13-9.81-1.64-.28,.08-.44,.38-.36,.66,.08,.28,.38,.44,.66,.36,4.48-1.34,6.54-.02,8.93,1.52,1.28,.83,2.61,1.68,4.38,2.17,.39,.11,.78,.16,1.15,.16Z"/><path class="cls-3" d="M797.13,223.9c.79,0,1.6-.06,2.43-.18,.29-.04,.49-.31,.45-.6-.04-.29-.31-.49-.6-.45-8.19,1.23-15.22-4.84-15.29-4.9-.22-.19-.56-.17-.75,.05-.19,.22-.17,.56,.05,.75,.27,.24,6.16,5.33,13.72,5.33Z"/><path class="cls-3" d="M750.87,294.56c1.81,0,4.92-.72,7.26-5.06,.07-.12,.02-.28-.1-.35-.12-.07-.28-.02-.35,.1-3.28,6.08-7.93,4.7-8.13,4.64-.13-.04-.28,.03-.32,.17-.04,.13,.03,.28,.17,.32,.02,0,.59,.18,1.47,.18Z"/><path class="cls-3" d="M669.97,652.9s155.26-8.48,228.94,9.28l1.1-21-103.31-30.59-83.41,2.05-25.62,5.47-18.08,27.92,.39,6.88Z"/><path class="cls-2" d="M885.13,397.06s-13.67-58.76-97.26-58.76c-145.67,0-104.81,118.82-118.29,307.72,0,0,93.92-20.35,229.82,6.73,0,0,13.23-102.3-3.86-188.79-4.51-22.84-3.7-47.06-10.41-66.92Z"/><path class="cls-2" d="M771.1,338.3s-46.74,.68-81.49,33.48c-34.75,32.8-79.5,77.98-89,103.97-11.69,32.01,9.83,64.12,37.16,64.8,27.33,.68,51.83-19.13,51.83-19.13l81.49-183.12Z"/><path class="cls-2" d="M978.06,511.17c-13.67-101.13-128.84-158.24-128.84-158.24l-24.56,126.84,47.97,15.22c24.67,7.83,34.77,37.42,19.81,58.54-19.1,26.97-30.26,63.14-10.53,56.48,33.71-11.38,102.98-54.43,96.15-98.84Z"/><path class="cls-3" d="M903.72,606.68c4.06-74.22-9.07-150.19-9.21-150.95l-1.01,.18c.13,.76,13.25,76.62,9.19,150.71l1.02,.06Z"/><path class="cls-2" d="M673.41,532.08c27.61-16.29,63.46-59.1,63.82-59.53l-.79-.66c-.36,.43-36.09,43.1-63.55,59.3l.52,.88Z"/><path class="cls-2" d="M661.04,428.51s-35.31-36.82-47.65-39.32c-12.34-2.5-83.49,17.11-5.41,135.62l53.06-96.29Z"/></g></g></svg>
