<?xml version="1.0" encoding="UTF-8"?><svg id="Calque_2" xmlns="http://www.w3.org/2000/svg" viewBox="0 0 1896.2 1500.55"><defs><style>.cls-1{fill:#f7b686;}.cls-2{fill:#0182c8;}.cls-3{fill:#02004d;}.cls-4{fill:#ff5756;}.cls-5{fill:#fff;}.cls-6{fill:#fcbf31;}.cls-7{fill:#00a651;}.cls-8{fill:#dd8964;}.cls-9{fill:#436e8e;}</style></defs><g id="_Layer_"><g><ellipse class="cls-4" cx="1024.19" cy="1299.48" rx="681.36" ry="201.07"/><g><path class="cls-7" d="M1111.85,844.77S1531.42,118.9,1763.38,242.57c231.96,123.68-410.41,422.78-524.52,638.03l-127.01-35.84Z"/><path class="cls-6" d="M1182.72,865.44c76.1-150.09,209.75-285.74,308.46-373.1,107.02-94.71,197.12-154.61,198.02-155.2l-3.71-5.61c-.9,.6-91.4,60.76-198.77,155.78-99.15,87.75-233.42,224.05-310,375.09l5.99,3.04Z"/><path class="cls-7" d="M1733.75,971.48c-100.72,28.83-73.57,182.37-191.89,161.34-100.07-17.85-108.96-26.39-141.18,4.23-11.05,10.49-20.36,22.64-28.04,35.8-9.2,15.77-27.42,39.31-56.99,46.53-180.6,44.08-448.18-209.7-267.36-371.13,13.06-11.66,32.82-17.11,54.78-22.05,119.1-26.69,160.22,26.08,245.68-121.95,85.49-148.07,227.52,46.82,307.75,34.35,80.22-12.46,149.74-41.34,218.24,40.03,68.51,81.44-40.26,164.09-140.99,192.85Z"/><g><path class="cls-6" d="M1119.44,1040.99l-4.21-5.45c2.4-1.86,246.55-186.4,775.6-233.59l.61,6.86c-527.06,47.01-769.61,230.33-772,232.17Z"/><path class="cls-6" d="M1435.67,814.73c-74.02-58.31-89.6-107.44-90.22-109.5l6.59-2.01c.15,.49,15.77,49.27,87.9,106.09l-4.27,5.41Z"/><path class="cls-6" d="M1452.64,888.11c-21.91-33.32-23.32-83.31-4.1-144.57,14.4-45.88,35.52-82.5,35.73-82.86l5.96,3.46c-.83,1.43-82.2,143.58-31.83,220.19l-5.76,3.78Z"/><path class="cls-6" d="M1591.31,867c-8.77-6.42-13.57-10.64-13.78-10.84l4.6-5.13c1,.9,102.03,89.85,241.65,76.45l.66,6.85c-112.5,10.8-200.43-43.44-233.12-67.34Z"/><path class="cls-6" d="M1670.46,1021.48c-34.26-33.52-45.71-68.52-49.28-91.97-3.88-25.53,.36-42.95,.54-43.68l6.69,1.67c-.17,.67-15.86,67.67,46.87,129.05l-4.82,4.92Z"/></g></g><g><path class="cls-7" d="M840.66,837.94S399.43,82.42,157.94,212.57c-241.49,130.14,430.26,439.27,550.34,663.36l132.38-37.99Z"/><path class="cls-6" d="M766.79,859.84c-80.12-156.27-220.22-297.2-323.64-387.9-112.12-98.33-206.43-160.42-207.37-161.04l3.85-5.87c.94,.62,95.66,62.97,208.15,161.63,103.88,91.11,244.63,232.72,325.26,389.97l-6.24,3.2Z"/><path class="cls-7" d="M186.41,850.37c125.68,56.03,62.12,250.72,219.87,245.14,157.77-5.67,147.34-17.88,205.87,62.38,0,0,14.92,68.86,72.39,91.81,226.77,90.55,621.46-190.25,416-433.47-14.84-17.56-39.54-28.29-67.18-38.75-149.97-56.62-213.16,4.44-297.07-203.81-83.94-208.31-304.51,19.02-406.55-11.95-102.04-30.97-187.14-81.32-291.2,11.91-104.09,93.31,22.16,220.81,147.88,276.75Z"/><g><path class="cls-6" d="M972.55,1078.87l6.48-6.32c-2.78-2.86-286.35-287.79-965.71-446.5l-2.06,8.82c676.81,158.12,958.52,441.16,961.29,444Z"/><path class="cls-6" d="M602.92,726.41c107-62.21,136.29-123.24,137.49-125.8l-8.2-3.83c-.28,.6-29.58,61.18-133.84,121.8l4.56,7.82Z"/><path class="cls-6" d="M567.34,818.73c34.62-39.3,45.66-104.05,31.93-187.26-10.28-62.31-31.01-113.83-31.21-114.34l-8.38,3.4c.81,2.01,80.48,201.86,.87,292.22l6.8,5.98Z"/><path class="cls-6" d="M390.89,765.75c12.59-6.73,19.6-11.35,19.92-11.56l-5.04-7.51c-1.47,.99-149.23,98.08-328.33,54.96l-2.11,8.8c144.32,34.74,268.65-19.62,315.57-44.68Z"/><path class="cls-6" d="M259.52,952.1c50.73-37.29,72.05-80.7,81.01-110.54,9.75-32.48,7.44-55.92,7.33-56.9l-9,.94c.09,.9,8.18,90.93-84.7,159.21l5.36,7.29Z"/></g></g><path class="cls-1" d="M1225.22,487.57s51.31-2.37,59.48-81.1c8.4-80.92-84.42,0-84.42,0l24.93,81.1Z"/><path class="cls-1" d="M1172.87,229.44c3.12,1.23,50.58,8.54,90.97,112.81,29.49,76.13-49.8,94.25-49.8,94.25l-41.17-207.06Z"/><path class="cls-3" d="M1104.46,1308.67s.7,28.15,19.76,36.09c19.05,7.94,74.24,15.11,53.62,33.21-11.83,10.39-67.61,3.68-83.35,3.68-15.75,0-30.53,6.86-42.23-3.68-12.87-11.6,0-69.3,0-69.3,0,0,13.59,7.08,25.81,6.76,17.61-.46,26.4-6.76,26.4-6.76Z"/><path class="cls-3" d="M885.69,1308.67s.7,28.15,19.75,36.1c19.05,7.94,74.25,15.11,53.62,33.21-11.84,10.38-67.61,3.67-83.36,3.67s-30.53,6.86-42.23-3.68c-12.87-11.6,0-69.3,0-69.3,0,0,13.59,7.08,25.81,6.76,17.61-.46,26.4-6.76,26.4-6.76Z"/><path class="cls-2" d="M1246.05,536.9s3.52,117.84-34.09,343.91c-27.15,163.21-59.21,327.66-74.94,406.5-5.62,28.2-29.34,48.82-57.45,49.95l-15.11,.61c-30.4,1.22-55.06-24.89-52.84-55.93l38.16-533.4,9.41-175.56,186.87-36.07Z"/><path class="cls-3" d="M901.99,640.6c1.73,14.34,82.84,12.6,182.13,.03,99.3-12.57,176.59-34.08,174.86-48.42-1.73-14.34-81.84-16.09-181.14-3.52-99.3,12.57-177.59,37.57-175.85,51.91Z"/><path class="cls-2" d="M1132.05,621.07l-212,681c-8.87,28.5-34.54,48.04-63.77,48.54l-12.74,.22c-30.09,.51-53.08-27.3-47.6-57.58l115.97-639.89c1.68-7.61,7.3-13.65,14.63-15.77,39.76-11.47,209.41-44.69,205.51-16.52Z"/><path class="cls-6" d="M935.14,248.52s28.21-79.36,128.69-75.75c100.48,3.61,176.35,135.65,195.15,419.44,0,0-164.54-36.08-357.28,48.09,0,0-10.69-276.11,33.45-391.78Z"/><path class="cls-6" d="M864.58,243.75l71.18,45.56s182.98,18.31,231.55,9.49c48.58-8.81,56.13-44.53,56.13-44.53,0,0-46.21-63.38-134.14-79.12-8.26-1.49-16.59-1.74-25.47-2.37-14.91-1.06-29.83-.6-44.45,.97-86.88,9.38-154.81,69.99-154.81,69.99Z"/><path class="cls-3" d="M1037.3,925.45l45.59-138.6c10.25-31.17,31.34-57.18,59.37-73.24l-1.77-3.09c-28.8,16.5-50.46,43.21-60.99,75.22l-45.59,138.6,3.39,1.11Z"/><path class="cls-3" d="M1123.72,75.1s-.15,20.64,17.31,38.48c17.46,17.84,6.46,35.95-12.92,31.79-19.38-4.16-21.31,19.83-46.59,12.19-25.27-7.64,42.2-82.46,42.2-82.46Z"/><path class="cls-1" d="M1024.35,173.07c9.99-1.07,18.67-7.34,22.64-16.57l12.45-28.92,3.61-8.39,21.25-49.35-3.68,51.14-2.22,30.7-.63,8.75c-.51,7.14,4.48,13.46,11.52,14.72l.12,.02c3.78,6.15,9,18.65-6.6,23.61-18.33,5.84-47.99-8.6-58.63-25.7,.05,0,.11-.01,.16-.02Z"/><path class="cls-1" d="M1125.87,68.56c-6.83-32.02-33.41-53.49-59.37-47.95-25.95,5.54-41.46,35.98-34.63,68.01,6.83,32.02,33.41,53.49,59.36,47.95,25.96-5.54,41.46-35.98,34.63-68.01Z"/><path class="cls-1" d="M1040.03,96.01c6.41,3.95,13.96,2.88,16.87-2.38,2.91-5.26,.08-12.73-6.33-16.68-6.41-3.95-13.96-2.88-16.87,2.38s-.08,12.73,6.33,16.68Z"/><path class="cls-3" d="M1088.71,26.85s3.28,20.33-21.11,29.12c-24.39,8.79-39.45,23.12-32.21,40.49,7.23,17.38,55.74,46.29,29.08,67.18-26.66,20.89-26.11-7.58-57.04,5.59-30.92,13.17-45.94-28.67-29.05-58.42,16.88-29.74-6.23-93.99,77.71-108.83,83.94-14.84,67.59,58.14,67.59,58.14,0,0-30.28-11.05-34.97-33.28Z"/><path class="cls-3" d="M1127.73,114.3c-2.5,.53-5.08,.36-7.65-.58-11.45-4.13-19.31-22.3-17.51-40.47h0c1.1-11.14,5.65-20.26,12.15-24.36,3.89-2.44,8.2-2.98,12.47-1.4,11.44,4.1,19.3,22.24,17.51,40.44-1.09,11.17-5.64,20.29-12.14,24.4-1.55,.96-3.16,1.62-4.82,1.97Zm-23.02-40.81c-1.71,17.24,5.52,34.4,16.12,38.24,3.58,1.29,7.24,.83,10.58-1.21,5.96-3.77,10.13-12.3,11.16-22.79,1.7-17.27-5.51-34.43-16.11-38.24-3.59-1.29-7.23-.86-10.59,1.22-5.96,3.77-10.13,12.27-11.16,22.79h0Z"/><path class="cls-3" d="M1076.13,110.99c-2.52,.54-5.17,.5-7.87-.15-13.59-3.14-24.36-20.81-24.02-39.4h0c.18-10.78,3.99-19.87,10.45-24.92,4.52-3.49,9.77-4.64,15.24-3.38,13.58,3.17,24.35,20.84,24.02,39.4-.19,10.82-4.02,19.91-10.49,24.96-2.28,1.75-4.75,2.94-7.33,3.49Zm-13.6-65.89c-2.31,.49-4.51,1.53-6.51,3.1-5.86,4.6-9.47,13.3-9.64,23.29h0c-.32,17.6,9.71,34.33,22.36,37.29,4.79,1.06,9.44,.04,13.4-2.96,5.88-4.57,9.5-13.31,9.68-23.33,.31-17.6-9.72-34.33-22.36-37.29-2.37-.54-4.7-.58-6.93-.1Z"/><path class="cls-3" d="M1105.95,80.46c-.44,.09-.91,.04-1.34-.19h0c-.25-.14-6.16-3.02-14.54,.51-.99,.37-2.19-.04-2.63-1.05-.44-1.01,.04-2.19,1.06-2.6,10.08-4.45,17.62-.57,17.95-.42,.96,.52,1.35,1.73,.83,2.7-.28,.56-.78,.93-1.34,1.05Z"/><path class="cls-3" d="M863.56,245.32c-2.47,7.17,16.15,20.58,41.58,29.96,25.43,9.38,48.05,11.18,50.52,4.01,2.47-7.17-16.15-20.58-41.58-29.97-25.43-9.38-48.05-11.18-50.52-4.01Z"/><path class="cls-1" d="M1038.16,493.27l.85-52.02c.12-7.11-5.35-13.07-12.45-13.58-36.06-2.58-61.3-13.76-75.13-33.32-19.2-27.16-17.18-69.34-11.82-98.59,2.74-14.97-2.2-24.98-20.28-34.57,0,0-15.56-8.56-34.74-11.82-7.68-1.31-15.31,1.78-17.29,9.32-3.1,11.8-7.12,30.15-9.04,51.75-4.55,51.3,5.34,95.92,28.61,129.03,28.56,40.65,74.6,63.14,136.97,66.96,7.66,.47,14.19-5.5,14.32-13.17Z"/><path class="cls-2" d="M981.83,625.06s198.18-37.86,262.44-20l-30.81,45.66-114.55,6.48-117.08-32.14Z"/><polygon class="cls-9" points="1067.49 415.22 1080.82 375.47 1079.77 375.11 1066.44 414.87 1067.49 415.22"/><g><g><path class="cls-4" d="M1049.69,385.02c0-57.1,27.16-117.94,114.83-117.94,57.1,0,105.98,48.71,111.73,105.52,6.98,69.05-34.91,110.95-117.45,119.49-56.79,5.87-109.11-35.69-109.11-107.07Z"/><path class="cls-5" d="M1150.3,478.89c-21.27,0-41.16-7.51-56.79-21.61-19.29-17.4-29.92-43.34-29.92-73.03,0-19.69,3.74-47.87,21.54-70.29,17.45-21.97,44.1-33.11,79.22-33.11,48.93,0,92.94,41.51,98.1,92.53,6.09,60.24-30.36,97.54-102.65,105.01-3.19,.33-6.36,.49-9.5,.49Zm14.05-191.83c-28.43,0-94.55,9.47-94.55,97.19,0,27.91,9.9,52.21,27.87,68.42,16.62,14.99,38.46,21.93,61.49,19.55,34.28-3.54,60.05-13.84,76.6-30.6,16.46-16.67,23.36-39.42,20.51-67.61-4.85-47.94-46.09-86.94-91.93-86.94Z"/><g><path class="cls-5" d="M1109.85,362.96l18.26-.88,1.85,38.09-13.06,.63-1.11-28.55-5.4,1.6-.53-10.88Z"/><path class="cls-5" d="M1130.66,381.05c-.6-12.41,5.49-20.58,17.38-21.16,11.89-.58,18.75,6.97,19.35,19.38,.6,12.41-5.49,20.58-17.38,21.16-11.89,.58-18.75-6.97-19.35-19.38Zm23.81-1.15c-.27-5.66-2.48-7.92-5.83-7.76s-5.33,2.63-5.05,8.29c.27,5.66,2.48,7.92,5.83,7.76s5.33-2.63,5.05-8.29Z"/><path class="cls-5" d="M1169.3,379.17c-.6-12.41,5.49-20.58,17.38-21.16,11.89-.58,18.75,6.97,19.35,19.38s-5.49,20.58-17.38,21.16c-11.89,.58-18.75-6.97-19.35-19.38Zm23.81-1.15c-.27-5.66-2.48-7.92-5.83-7.76s-5.33,2.63-5.05,8.29c.27,5.66,2.48,7.92,5.83,7.76s5.33-2.63,5.05-8.29Z"/></g></g><path class="cls-1" d="M1013.33,424.37s12.66-38.33,34.35-47.71c21.68-9.38,56.48-4.98,44.27,3.7-12.21,8.67-30.86,15.44-30.86,15.44,0,0,40.54-12.59,39.38-1.84-1.16,10.76-36.53,21.37-36.53,21.37,0,0,49.44-11.14,45.05-1.33-4.39,9.81-42,18-42,18,0,0,46.41-8.53,41.05,2.74-5.36,11.27-38.4,6.8-39.56,17.55-1.16,10.76-9.41,53.09-39.7,53.51l-15.44-81.44Z"/><path class="cls-8" d="M1046.63,404.71c2.94-6.19,14.47-8.03,14.59-8.05l-.27-1.72c-.51,.08-12.56,2-15.9,9.02l1.58,.75Z"/><path class="cls-8" d="M1046.44,426.04c6.13-8.2,17.5-9.83,17.62-9.85l-.23-1.73c-.49,.07-12.2,1.73-18.78,10.53l1.39,1.04Z"/><path class="cls-8" d="M1050.71,441.88c2.57-6.84,16.27-8.99,16.41-9.01l-.26-1.73c-.6,.09-14.85,2.34-17.78,10.13l1.64,.61Z"/></g><path class="cls-8" d="M1266.98,420.39c3.87,0,7.49-.57,9.57-2.29l-1.11-1.35c-4.4,3.65-18.73,1.11-23.88-.17l-.42,1.69c.51,.13,8.62,2.12,15.85,2.12Z"/><path class="cls-1" d="M1285.73,394.8s2.83,22.25-16,24.36c-23.99,2.69-56.87-18.79-41.7-20.72,13.45-1.71,33.22,.8,33.22,.8,0,0-50.2-7.14-45.52-17.81,4.67-10.68,47.77-3.91,47.77-3.91,0,0-48.38-11.89-40.9-20.36s46.65-2.58,46.65-2.58c0,0-47.8-8.9-38.88-18.5,8.91-9.61,32.89,.37,43.89,2.12,10.39,1.66,12.94,9.37,11,20.01,0,0,3.82,11.96,.91,18.52-1.12,2.52,.93,5.52,.92,7.5,0,3.79-1.36,10.58-1.36,10.58Z"/></g></g></svg>
