<?xml version="1.0" encoding="UTF-8"?><svg id="Calque_2" xmlns="http://www.w3.org/2000/svg" viewBox="0 0 2218.34 1230.61"><defs><style>.cls-1{fill:#f3f3f3;}.cls-2{fill:#f7b686;}.cls-3{fill:#0182c8;}.cls-4{fill:#020202;}.cls-5{fill:#02004d;}.cls-6{fill:#ed354f;}.cls-7{fill:#f3c051;}.cls-8{fill:#fff;}.cls-9{fill:#fbfbfb;}.cls-10{fill:#fdfdff;}.cls-11{fill:#00a651;}.cls-12{fill:#dd8964;}.cls-13{fill:#e08b65;}.cls-14{fill:#6f4975;}.cls-15{fill:#56335b;}.cls-16{fill:#2f1a31;}</style></defs><g id="_Layer_"><g><ellipse class="cls-11" cx="1109.17" cy="1018.99" rx="1109.17" ry="211.61"/><path class="cls-2" d="M1148.85,269.38s-81.94,87.34-52.32,145.19c29.62,57.85,102.45-16.91,102.45-16.91l-5.54-102.16-44.59-26.12Z"/><path class="cls-11" d="M1405.94,270.71s-14.12-55.96-118.28-56.52c-150.22-.82-162.71,183.74-151.78,391.44,0,0,156.96-17.93,297.1,12.15,0,0,5.58-261.57-27.04-347.07Z"/><path class="cls-11" d="M1444.39,262.69l-68.03,37.64s-148.97,13.53-188.51,7.01c-39.55-6.52-50.4-35.55-50.4-35.55,0,0,42.12-43.58,113.71-55.21,6.73-1.1,13.7-1.91,20.94-2.38,12.14-.78,24.3-.62,36.19,.72,90.73,10.23,136.11,47.77,136.11,47.77Z"/><path class="cls-2" d="M1301.98,201.38l-7.86-25.38-2.29-7.39-13.46-43.44-1.77,43.21-1.06,25.94-.34,8.21c-.23,5.57-3.62,6.74-7.76,11.59-1.67,1.96-12.39,13.86-.23,19.23,15.15,6.7,43.48-3.44,54.25-16.72-.08-.02-16.95-7.05-19.49-15.25Z"/><ellipse class="cls-5" cx="1407.81" cy="295.5" rx="49.11" ry="21.15" transform="translate(95.22 884.02) rotate(-36)"/><path class="cls-6" d="M1236.95,99.22s-3.07,11.77,0,26.52c3.07,14.75,18.08-21.51,18.08-21.51l-18.08-5.01Z"/><ellipse class="cls-2" cx="1278" cy="135.62" rx="52.09" ry="43.2" transform="translate(977.17 1385.1) rotate(-82.52)"/><path class="cls-6" d="M1321.91,126.33l-20.91-2.17c-4.6-.48-8.8-2.95-11.29-6.84-4.28-6.71-9.44-10.15-28.95-9.42-24.7,.93-41.01-13.8-43.68-26.72-2.72-13.19,9.92-22.13,22.32-15.84,12.41,6.29,7.08-9.13,19.01-10.77,22.29-3.06,26.47,14.13,44.72,13.57,23.93-.73,66.8,17.45,46.47,59.58l-27.7-1.38Z"/><path class="cls-6" d="M1349.61,127.72s-14.44,31.16-34.92,33.45c0,0,16.56-23.75-18.34-38.22,0,0,32.04-5.04,53.26,4.77Z"/><path class="cls-2" d="M1320.74,144.91c-4.38,2.79-9.95,1.87-12.44-2.04-2.49-3.91-.96-9.35,3.42-12.13,4.38-2.79,9.95-1.87,12.44,2.04s.96,9.35-3.42,12.13Z"/><path class="cls-6" d="M1296.35,122.94s2.8,26.15-2.53,31.1c-5.32,4.94-40.47,7.07-56.87,.73h0c-.27,16.8,11.57,31.62,28.13,34.41,5.48,.92,11.15,.93,16.78-.06h0c11.48-2.01,22.65-6.76,27.38-17.41,1.44-3.24-2.75-23.18-2.75-23.18,0,0-1.57-11.7,5.23-17.79,0,0-7.86-7.06-15.37-7.8Z"/><path class="cls-2" d="M1304.54,504.4c-11.47,0-21.83-1.3-32.3-5.09l4.51-70.53c27.34,3.08,49.99,1.94,67.31-3.4,12.52-3.86,21.86-9.77,28.58-18.06,14.2-17.54,7.95-87.24,6.31-92.47,0,0-6.67-14.11,38.77-39.21,23.76-13.13,30.44-1.52,30.44-1.52,.95,2.78,9.32,28.1,12.04,61.15,1.69,20.46,.83,39.7-2.54,57.18-4.57,23.7-13.77,44.27-27.33,61.12-16,19.89-37.63,34.16-64.28,42.42-18.08,5.6-38.68,8.41-61.52,8.41Z"/><path class="cls-9" d="M1112.98,492.99s-16.85-116.28,109.85-139.51c0,0,77.6,14.39,89.82,51.14,0,0-67.66,21.07-81.6,107.54-13.94,86.47-118.06-19.16-118.06-19.16Z"/><path class="cls-1" d="M1119.66,499.31s-29.6-113.7,93.75-150.8c0,0,78.72,5.72,94.92,40.89,0,0-64.92,28.42-69.22,115.9-4.3,87.48-119.46-6-119.46-6Z"/><path class="cls-1" d="M1106.19,499.31s-29.6-113.7,93.75-150.8c0,0,78.72,5.72,94.92,40.89,0,0-64.92,28.42-69.22,115.9-4.3,87.48-119.46-6-119.46-6Z"/><g><path class="cls-2" d="M1292.45,432.9s-7.08-33.06-24.29-42.83-46.58-9.25-37.2-.92c9.38,8.32,24.3,15.65,24.3,15.65,0,0-32.62-14.15-32.63-5.09,0,9.06,28.48,21.09,28.48,21.09,0,0-40.16-13.74-37.39-5.18,2.77,8.56,33.35,18.79,33.35,18.79,0,0-37.87-11.29-34.43-1.42,3.45,9.87,31.36,9.13,31.35,18.19,0,9.06,3.04,45.06,28.23,48.15l20.22-66.42Z"/><path class="cls-13" d="M1267.19,414.67c-.58,0-1.12-.36-1.33-.94-1.47-4.22-8.41-6.91-10.96-7.59-.75-.2-1.19-.97-1-1.72,.2-.75,.97-1.19,1.72-1,.43,.12,10.62,2.9,12.88,9.38,.26,.73-.13,1.53-.86,1.79-.15,.05-.31,.08-.46,.08Z"/><path class="cls-13" d="M1265.36,432.33c-.48,0-.95-.25-1.21-.69-4.23-7.16-13.27-9.46-13.36-9.48-.75-.19-1.21-.95-1.03-1.7,.19-.75,.94-1.21,1.7-1.03,.42,.1,10.28,2.61,15.11,10.78,.39,.67,.17,1.53-.49,1.92-.22,.13-.47,.2-.71,.2Z"/><path class="cls-13" d="M1260.45,445.32c-.63,0-1.2-.42-1.36-1.06-1.18-4.6-9.33-7.7-12.37-8.5-.75-.2-1.2-.97-1-1.72,.2-.75,.97-1.2,1.72-1,.51,.14,12.54,3.4,14.37,10.52,.19,.75-.26,1.52-1.01,1.71-.12,.03-.23,.04-.35,.04Z"/></g><path class="cls-2" d="M1153.98,349.31s13.53-16.21,27.05-4.58c17.22,14.82,23.48,51.25,12.43,42.02-9.8-8.18-20.73-23.42-20.73-23.42,0,0,27.23,39.18,16.88,42.8s-33.3-30.43-33.3-30.43c0,0,22.79,40.98,12.16,41.24-10.63,.26-31.66-30.51-31.66-30.51,0,0,24.48,38.66,12.15,38.66-12.33,0-20.82-22.91-26.65-31.62-5.52-8.22-1.83-14.93,6.75-20.4,0,0,5.8-10.29,12.18-12.49,2.45-.84,3.21-4.17,4.58-5.44,2.62-2.42,8.17-5.84,8.17-5.84Z"/><path class="cls-13" d="M1124.95,399.34c-.55,0-1.07-.32-1.3-.86-.92-2.19-8.78-21.52-.63-25.2,5.89-2.67,6.45-3.38,9.52-7.31,.47-.61,1-1.28,1.61-2.04,2.85-3.57,5.09-4.09,6.73-4.47,1.19-.28,1.73-.4,2.43-1.58,2.18-3.65,2.71-4.6,2.71-4.61,.38-.68,1.23-.92,1.91-.55,.68,.38,.92,1.23,.55,1.91-.02,.04-.54,.97-2.76,4.69-1.31,2.2-2.85,2.56-4.2,2.88-1.44,.34-2.93,.69-5.18,3.49-.6,.75-1.12,1.42-1.59,2.02-3.2,4.09-4.06,5.19-10.58,8.14-4.45,2.01-.53,15.39,2.06,21.55,.3,.71-.04,1.54-.75,1.84-.18,.08-.36,.11-.54,.11Z"/><path class="cls-5" d="M1291.94,639.19c-1.46-.25-141.62-24.4-143.09-24.65-8.75,110.14,32.33,330.26,55.61,454.25,36.34,1.49,74.97,3.27,116.23,5.39-25.62-353.67-19.9-269.8-28.75-434.99Z"/><path class="cls-5" d="M1432.98,617.78c-.28,11.01-66.87,15.38-149.22,12.82-82.35-2.57-148.16-13.96-147.88-24.97,.28-11.01,66.55-17.48,148.9-14.91,82.35,2.57,148.48,16.05,148.2,27.06Z"/><path class="cls-5" d="M1148.85,614.53s89.23-26.25,274.04,9.78l1.42,26.59-270.91,9.57-4.55-45.94Z"/><path class="cls-4" d="M1306.87,919.91c-.3-1.73-30.37-173.85-36.09-203.4-2.32-12-7.94-21.72-16.72-28.88-6.57-5.36-12.54-7.2-12.6-7.22l.85-2.85c.26,.08,6.5,1.98,13.52,7.68,6.45,5.24,14.79,14.82,17.86,30.71,5.72,29.58,35.79,201.71,36.1,203.45l-2.93,.51Z"/><path class="cls-5" d="M1453.36,1080.49c-30.28-425.22-28.5-441.13-29.69-441.35-54.86-10.6-89.63-17.31-147.14-28.41-3.37,111.3,38.22,339.96,61.52,464.35,39.82,1.95,78.26,3.79,115.31,5.41Z"/><path class="cls-2" d="M438.68,235.49s42.91,81.86,47.05,99.76c4.14,17.9-23.62,53.87-31.35,54.42-7.73,.55-32.95-20.82-32.95-20.82l-14.79-122.68,32.05-10.69Z"/><g><path class="cls-3" d="M309.8,542.18c-.57,.11-7.55,1.46-7.88,1.52,.17-.03,2.22-.43,7.88-1.52Z"/><path class="cls-3" d="M301.92,543.7s-.02,0,0,0h0Z"/><path class="cls-3" d="M237.99,1067.47c25.3-129.57,77.73-395.33,73.55-525.62-.62,.12-1.2,.23-1.74,.34,0,0,.01,0,.02,0-.78,.15-24.71,4.77-144.65,27.92-1.21,.23,3.77-16.73-31.23,455.06,30.45,19.7,65.89,34.27,104.05,42.31Z"/></g><path class="cls-3" d="M155.91,548.85c.28,10.95,66.52,15.3,148.44,12.75,81.92-2.56,147.39-13.88,147.11-24.84s-66.2-17.39-148.13-14.83c-81.92,2.56-147.71,15.97-147.43,26.92Z"/><path class="cls-7" d="M175.97,238.73s14.49-57.42,121.37-58c154.14-.84,139.87,140.79,154.13,356.03,0,0-151.83-21.47-295.63,9.39,0,0-13.34-219.7,20.13-307.43Z"/><path class="cls-7" d="M136.51,230.49l69.81,38.63s152.86,13.88,193.43,7.2c40.58-6.69,51.71-36.48,51.71-36.48,0,0-43.22-44.72-116.68-56.66-6.9-1.13-14.06-1.96-21.48-2.44-12.46-.8-24.94-.64-37.13,.74-93.1,10.49-139.66,49.02-139.66,49.02Z"/><path class="cls-2" d="M282.64,167.59l8.07-26.04,2.35-7.58,13.81-44.57,1.82,44.34,1.09,26.61,.34,8.42c.23,5.72,3.72,6.92,7.96,11.89,1.72,2.01,12.72,14.22,.23,19.74-15.55,6.87-44.62-3.53-55.67-17.16,.09-.02,17.39-7.23,20-15.65Z"/><path class="cls-3" d="M438.57,545.62s-88.77-26.12-272.61,9.73l-1.42,26.45,269.5,9.53,4.53-45.7Z"/><path class="cls-16" d="M378.22,537.41s-39.29-.97-54.47,31.24c0,0,8.48-32.15-8.05-31.65-6.84,.21,6.84-4.41,6.84-4.41l55.68,4.82Z"/><ellipse class="cls-5" cx="173.05" cy="259.56" rx="18.57" ry="46.87" transform="translate(-138.65 246.97) rotate(-54)"/><path class="cls-15" d="M355.95,66.44s3.2,12.26,0,27.63c-3.2,15.37-18.83-22.41-18.83-22.41l18.83-5.22Z"/><ellipse class="cls-2" cx="313.18" cy="104.36" rx="45.01" ry="54.28" transform="translate(-10.92 41.66) rotate(-7.48)"/><path class="cls-5" d="M238.57,96.12s15.04,32.47,36.38,34.85c0,0-17.25-24.74,19.11-39.82,0,0-33.39-5.25-55.49,4.97Z"/><path class="cls-2" d="M268.65,114.04c4.56,2.9,10.37,1.95,12.96-2.13,2.59-4.08,1-9.74-3.56-12.64s-10.37-1.95-12.96,2.13c-2.59,4.08-1,9.74,3.56,12.64Z"/><path class="cls-5" d="M294.06,91.15s-2.91,27.25,2.63,32.4c5.55,5.15,42.17,7.37,59.26,.76h0c.28,17.5-12.05,32.95-29.31,35.85-5.71,.96-11.62,.97-17.48-.06h0c-11.96-2.09-23.59-7.04-28.53-18.14-1.5-3.38,2.87-24.15,2.87-24.15,0,0,1.64-12.19-5.45-18.54,0,0,8.19-7.36,16.02-8.12Z"/><path class="cls-5" d="M294.06,91.15s-3.01-19.05,11.93-20.41,31.97-3.87,37.83,0c5.86,3.87,12.86,19.06,12.86,19.06,0,0,8.19-28.57-6.82-40.79-15.02-12.22-62.88-28.3-93.43-7.02-30.55,21.28-17.86,54.13-17.86,54.13,0,0,21.82-6.65,55.49-4.97Z"/><path class="cls-5" d="M273.35,41.99s-22.52-18.6-17.43-32.35c5.09-13.75,28.93-9.4,38.14-7.25,9.21,2.15,10.77,18.6,3.37,29.22-7.4,10.62-24.09,10.38-24.09,10.38Z"/><path class="cls-5" d="M280.63,141.96s.14,18.73,13.43,29.26c13.29,10.52,4.5,19.69,16.19,34.63,11.69,14.94-2.22,15.28,18.48,26.14,20.71,10.86,36.32,1.02,32.25-15.62-4.07-16.63,13.92-12.22,5.43-33.27-8.49-21.05-14.66-8.15-7.5-30.55,7.16-22.4-2.96-28.24-2.96-28.24,0,0-11.44,.78-20.69,2.44s-17.55-1.25-24.01,.82c-6.45,2.07-30.63,14.4-30.63,14.4Z"/><g><rect class="cls-8" x="320.76" y="259.05" width="16.07" height="26.8" rx="2.52" ry="2.52" transform="translate(-68.81 116.75) rotate(-18.26)"/><polygon class="cls-5" points="318.45 281.25 355.84 372.89 368.69 367.99 339.67 274.24 318.45 281.25"/><path class="cls-5" d="M342.2,322.18s-30.95,15.22-34.15,39.38c-3.2,24.16,32.24,73.8,39.71,78.51,0,0,30.12,2.01,64.87-21.4,0,0,6.41-59.47-18.61-85.47-25.02-26-51.82-11.01-51.82-11.01Z"/><rect class="cls-5" x="314.43" y="276.06" width="29.27" height="5.2" transform="translate(-70.75 117.15) rotate(-18.26)"/><path class="cls-8" d="M325.31,370.02s36.32-6.51,60.03-19.81l9.33,28.29s-27.57,18.06-60.03,19.81l-9.33-28.29Z"/></g><path class="cls-11" d="M306.43,418.03s2.74,0,7.16-.28c13.53-.88,42.81-4.5,57.18-19.43,19.05-19.81,39.3-15.73,55.81-22.09,16.51-6.36,50.21-52.13,56.78-56.37,6.57-4.24,95.33,134.37,96.16,147.25,.82,12.88-223.65,133.58-249.9,94.12-26.25-39.46-23.18-143.2-23.18-143.2Z"/><path class="cls-2" d="M551.25,376.17s15.02,14.02,2.99,26.54c-15.33,15.94-51.08,20.06-41.51,9.81,8.48-9.08,23.88-18.89,23.88-18.89,0,0-39.55,24.36-42.51,14.1-2.96-10.26,31.37-30.72,31.37-30.72,0,0-41.06,19.94-40.74,9.6,.32-10.35,26.38-26.48,26.38-26.48,0,0-33.91,19.06-33.25,7.08,.66-11.99,23.39-19,32.17-24.2,8.29-4.92,14.61-.97,19.47,7.66,0,0,9.69,6.19,11.48,12.52,.69,2.42,3.88,3.34,5.04,4.74,2.21,2.68,5.24,8.25,5.24,8.25Z"/><g><path class="cls-2" d="M312.57,445.5l-19.12-21.8c.81-6.77-9.44-21.34-15.66-18.56-38.43,17.16-64.24,.59-75.52-19.4-15.65-27.76-9.6-67.78-1.64-95.14,4.07-14,.34-24.03-15.96-34.94,0,0-14-9.68-31.96-14.67-7.2-2-14.77,.2-17.4,7.19-4.11,10.94-9.73,28.05-13.67,48.45-9.35,48.46-4.27,91.96,14.67,125.81,23.26,41.54,86.06,76.71,160.46,59.83,39.08-8.86,14.92-29.47,15.79-36.77Z"/><g><path class="cls-2" d="M277.79,405.14s10.14-37.33,30.4-47.43c20.27-10.1,53.79-7.68,42.56,1.25-11.23,8.93-28.74,16.37-28.74,16.37,0,0,38.14-14.15,37.59-3.79-.55,10.35-33.85,22.34-33.85,22.34,0,0,46.73-13.22,43.04-3.61-3.69,9.61-39.26,19.4-39.26,19.4,0,0,43.97-10.56,39.42,.5-4.55,11.06-36.39,8.49-36.95,18.84-.56,10.35-6.26,51.29-35.23,53.26l-18.99-77.13Z"/><path class="cls-12" d="M308.64,384.6l-1.55-.63c2.83-6.89,14.26-9.35,14.75-9.45l.34,1.64c-.11,.02-11.05,2.38-13.54,8.45Z"/><path class="cls-12" d="M309.56,405.02l-1.39-.93c5.84-8.76,16.96-10.96,17.43-11.05l.31,1.64c-.11,.02-10.9,2.17-16.35,10.33Z"/><path class="cls-12" d="M314.47,419.95l-1.59-.5c2.4-7.6,15.91-10.49,16.49-10.61l.34,1.64c-.13,.03-13.13,2.81-15.23,9.47Z"/></g></g><path class="cls-2" d="M1700.42,307.64s59.78,20.67,85.67,19.46c25.89-1.22-11.16,83.21-11.16,83.21l-61.99-10.6-12.51-92.06Z"/><path class="cls-7" d="M1905.9,551.8l-163.36-31.53c.9,83.81,16.05,492.83,18.74,565.07,70.22-2.42,131.98-8.53,185.3-20.14-28.92-324.6-30.11-316.41-40.68-513.4Z"/><path class="cls-6" d="M2015.19,271.37s-24.39-68.62-111.27-65.5c-86.88,3.12-156.42,117.38-172.67,362.76,0,0,145.41-30.48,312.07,42.3,0,0,10.04-239.55-28.12-339.56Z"/><path class="cls-6" d="M2076.21,267.23l-61.55,39.4s-158.21,15.83-200.21,8.21c-42-7.62-20.42-29.81-20.42-29.81,0,0,11.84-63.49,87.87-77.1,7.14-1.29,14.34-1.5,22.02-2.05,12.9-.92,25.79-.52,38.43,.84,75.12,8.11,133.86,60.52,133.86,60.52Z"/><ellipse class="cls-16" cx="2037.26" cy="283.28" rx="42.44" ry="11.86" transform="translate(28.66 726.23) rotate(-20.35)"/><path class="cls-2" d="M1926.12,482.98l-.74-44.98c-.1-6.15,4.63-11.3,10.76-11.74,31.18-2.23,53.01-11.9,64.96-28.81,16.6-23.48,14.85-59.95,10.23-85.24-2.37-12.94,1.9-21.6,17.54-29.9,0,0,13.45-7.4,30.04-10.22,6.64-1.13,13.24,1.54,14.95,8.06,2.68,10.2,6.15,26.07,7.81,44.74,3.93,44.35-4.62,82.93-24.74,111.57-24.69,35.15-64.5,54.6-118.43,57.9-6.62,.41-12.27-4.75-12.38-11.38Z"/><path class="cls-16" d="M2043.31,610.93c-1.52,12.54-72.41,11.02-159.21,.03-86.8-10.99-154.37-29.79-152.85-42.33,1.52-12.54,71.54-14.06,158.34-3.07,86.8,10.99,155.24,32.84,153.72,45.38Z"/><path class="cls-14" d="M1973.52,597.34s-173.24-33.09-229.41-17.48l26.93,39.92,100.13,5.67,102.34-28.1Z"/><path class="cls-5" d="M1875.3,211.13s19.71-7.89,22.81-18.87c3.1-10.98,10.42-7.6,14.64-10.42,4.22-2.82-7.6-32.67-7.6-32.67l-40.84-14.93,4.22,52.38,6.76,24.5Z"/><path class="cls-2" d="M1960.82,209.62c-8.19-1.86-16.38-6.91-19.87-15.02l-10.81-25.11-3.16-7.34-18.57-43.14,3.22,44.71,1.94,26.84,.55,7.56c.45,6.26-3.1,6.58-9.27,7.69,0,0-7.99,24.17,10.03,24.17,23.85,0,45.96-20.36,45.96-20.36Z"/><ellipse class="cls-2" cx="1906.38" cy="126.17" rx="42.01" ry="51.82"/><path class="cls-5" d="M1925.41,93.92c-32.14,7.67-54.93,36.46-55.95,69.49-.06,1.92-.09,3.89-.09,5.91,0,0,32.72,1.46,27.92,22.26-3.65,15.82-24.89,29.77-32.22,29.77-11.07,0-29.62-37.57-23.63-86.45,5.98-48.88,24.94-84.78,69.82-86.28,44.89-1.5,38.9,28.43,38.9,28.43,0,0-7.88,12.84-24.75,16.87Z"/><path class="cls-5" d="M1920.47,93.07s.76,.49,1.99,1.45c4.75,3.68,16.5,14.23,18.58,29.97,2.62,19.82-16.46,32.17-11.22,47.5,5.24,15.34,19.08-1.87,30.3,.75,11.22,2.62,19.45-2.62,20.2-25.06,.75-22.44-4.49-74.81-31.05-74.81l-28.8,20.2Z"/><path class="cls-2" d="M1947.6,133.98c-4.76,4.54-11.41,5.01-14.86,1.04-3.45-3.97-2.39-10.87,2.37-15.41,4.76-4.54,11.41-5.01,14.86-1.04s2.39,10.87-2.37,15.41Z"/><g><path class="cls-7" d="M1736.24,361.13c2.05,15.21,2.59,27.95,1.36,32.11-3.52,11.96-62.74,15.53-67.58,12.5-2.28-1.43-6.05-16.4-9.41-34.14-3.29-17.35-6.18-37.34-6.91-49.89-.1-1.78-.16-3.41-.17-4.86-.13-17.77,9.17-20.02,15.83-27.07,2.87-3.05,2.07-8.34,1.52-11.24-.87-4.61-.26-6.24-1.44-9.76l26.68-2.02c.48,2.69,.93,7.48,1.38,10.68,1.19,8.48,2.1,8.2,13.08,12.46,9.19,3.56,13.42,10.74,16.1,20.1,2.35,8.23,3.49,18.13,5.73,28.75,1.6,7.58,2.89,15.25,3.85,22.38Z"/><path class="cls-5" d="M1667.08,266.1s-.18,15.93,1.27,16.61c1.45,.67,31.42-1.73,32.01-3.63,.59-1.9-4.07-16.99-5.48-17.44-1.41-.45-27.23,2.79-27.8,4.46Z"/><path class="cls-5" d="M1736.24,361.13c-1.78,1.11-29.13,17.61-75.63,10.47-3.29-17.35-6.18-37.34-6.91-49.89h0s35.34,5.26,72.97-11.71c2.35,8.23,3.49,18.13,5.73,28.75,1.6,7.58,2.89,15.25,3.85,22.38Z"/></g><g><path class="cls-3" d="M1819.11,394.27c-.39,15.34-1.87,28.01-3.74,31.92-5.37,11.25-64.41,5.39-68.71,1.63-2.03-1.77-3.38-17.16-3.89-35.2-.5-17.65-.19-37.85,1.08-50.35,.18-1.77,.38-3.39,.6-4.83,2.68-17.57,12.23-18.31,19.92-24.22,3.32-2.55,3.36-7.91,3.28-10.85-.13-4.69,.74-6.21,.12-9.87l26.66,2.23c.05,2.73-.26,7.53-.33,10.77-.17,8.56,.77,8.43,10.94,14.37,8.51,4.97,11.55,12.73,12.71,22.39,1.02,8.5,.57,18.46,1.1,29.29,.38,7.74,.43,15.51,.25,22.71Z"/><path class="cls-5" d="M1765.88,289.49s-2.7,15.71-1.38,16.6,31.3,3.27,32.18,1.49c.88-1.79-1.32-17.42-2.64-18.09s-27.33-1.56-28.16,0Z"/><path class="cls-5" d="M1819.11,394.27c-1.93,.82-31.55,12.78-76.34-1.64-.5-17.65-.19-37.85,1.08-50.35h0s34.06,10.79,73.9,0c1.02,8.5,.57,18.46,1.1,29.29,.38,7.74,.43,15.51,.25,22.71Z"/></g><g><path class="cls-11" d="M1899.64,402.23c-3.94,14.83-8.33,26.81-11.06,30.18-7.83,9.7-63.9-9.72-67.21-14.37-1.56-2.2,.7-17.47,4.4-35.14,3.62-17.28,8.61-36.86,12.75-48.73,.59-1.68,1.16-3.21,1.71-4.56,6.69-16.46,16.15-14.97,25-18.93,3.82-1.71,5.11-6.91,5.71-9.8,.96-4.59,2.16-5.86,2.41-9.57l25.41,8.36c-.59,2.67-2.01,7.26-2.82,10.4-2.15,8.29-1.21,8.38,7.31,16.52,7.12,6.81,8.28,15.06,7.16,24.73-.98,8.5-3.73,18.09-5.74,28.74-1.43,7.61-3.18,15.19-5.03,22.14Z"/><path class="cls-5" d="M1872.2,287.95s-6.27,14.65-5.2,15.82c1.08,1.18,29.68,10.46,30.95,8.92s2.76-17.25,1.63-18.21c-1.13-.96-26.22-7.87-27.39-6.54Z"/><path class="cls-5" d="M1899.64,402.23c-2.07,.35-33.65,5.1-73.87-19.33,3.62-17.28,8.61-36.86,12.75-48.73h0s30.62,18.41,71.88,17.17c-.98,8.5-3.73,18.09-5.74,28.74-1.43,7.61-3.18,15.19-5.03,22.14Z"/></g><path class="cls-1" d="M1649.22,421.3l-8.42,32.5c-3.74,14.42,10.35,27.3,28.45,26.02l237.34-16.76c13.55-.96,24.58-9.69,26.02-20.61l4-30.17c1.8-13.58-11.73-24.86-28.59-23.81l-232.91,14.43c-12.62,.78-23.28,8.36-25.88,18.41Z"/><path class="cls-2" d="M1633.72,330.62s-7.25-19.49,10.59-25.98c22.73-8.27,58.97,3.21,44.64,8.65-12.7,4.82-32.39,7.35-32.39,7.35,0,0,50.14-5.73,47.77,5.09-2.37,10.82-45.55,15.16-45.55,15.16,0,0,49.34-.97,43.79,8.52-5.55,9.49-44.73,13.68-44.73,13.68,0,0,48.17-3.55,41.47,7.33-6.7,10.88-31.98,7.66-43,8.75-10.42,1.03-14.45-5.36-14.72-15.47,0,0-6.12-9.92-4.63-16.57,.57-2.55-2.02-4.77-2.41-6.57-.76-3.44-.82-9.92-.82-9.92Z"/><path class="cls-7" d="M2032.83,617.21c-5.5-10.23-15.1-10.52-60.6-20.12-20.99-4.06-43.2-7.75-64.45-10.25-80.09-9.33-65.63,6.79-62.54,18.48,103.92,393,87.44,330.5,120.06,455.49,61.76-15.58,111.29-39.45,148.61-74.77-84.85-389.65-79.14-365.28-81.08-368.84Z"/><g><path class="cls-2" d="M1947.59,423.42s-10.95-33.14-29.7-41.25c-18.75-8.11-48.83-4.3-38.28,3.19,10.55,7.5,26.69,13.35,26.69,13.35,0,0-35.05-10.89-34.05-1.59,1,9.3,31.58,18.48,31.58,18.48,0,0-42.75-9.63-38.95-1.15s36.32,15.57,36.32,15.57c0,0-40.13-7.37-35.49,2.37,4.64,9.75,33.2,5.88,34.21,15.18,1,9.3,8.14,45.9,34.33,46.27l13.35-70.42Z"/><path class="cls-12" d="M1918.79,406.41c-2.55-5.35-12.51-6.94-12.61-6.96l.23-1.49c.44,.07,10.86,1.73,13.75,7.8l-1.36,.65Z"/><path class="cls-12" d="M1918.96,424.86c-5.3-7.09-15.13-8.5-15.23-8.51l.2-1.49c.43,.06,10.55,1.5,16.24,9.11l-1.21,.9Z"/><path class="cls-12" d="M1915.27,438.55c-2.22-5.91-14.07-7.78-14.19-7.79l.23-1.49c.52,.08,12.84,2.03,15.37,8.75l-1.41,.53Z"/></g><path class="cls-6" d="M710.92,631.83c1.34,11.08,63.99,9.73,140.69,.02,76.7-9.71,136.41-26.33,135.07-37.4-1.34-11.08-63.22-12.43-139.92-2.72-76.7,9.71-137.18,29.02-135.84,40.1Z"/><path class="cls-6" d="M726.81,291.18s23.53-66.21,107.37-63.2c83.83,3.01,136.81,129.7,152.49,366.47,0,0-200-18.91-275.76,37.38,0,0-20.93-244.14,15.9-340.65Z"/><path class="cls-6" d="M667.94,287.19l59.39,38.01s152.66,15.27,193.19,7.92c40.53-7.35,46.83-37.15,46.83-37.15,0,0-38.55-52.88-111.92-66.02-6.89-1.24-13.84-1.45-21.25-1.98-12.44-.88-24.89-.5-37.08,.81-72.48,7.82-129.16,58.4-129.16,58.4Z"/><path class="cls-7" d="M890.41,153.88s-3.71,16.81,7.43,34.41c11.14,17.6-.98,30.46-16.08,23.69-15.09-6.77-20.84,12.47-40.13,1.84-19.29-10.63,48.78-59.94,48.78-59.94Z"/><path class="cls-2" d="M801.25,228.22c8.34-.89,15.58-6.12,18.89-13.82l10.39-24.13,3.01-7,17.73-41.18-3.07,42.67-1.85,25.61-.53,7.3c-.43,5.96,3.73,11.23,9.61,12.29l.1,.02c3.15,5.13,7.51,15.56-5.51,19.7-15.3,4.87-40.04-7.17-48.92-21.44,.04,0,.09,0,.13-.01Z"/><ellipse class="cls-2" cx="853.21" cy="148.91" rx="40.09" ry="49.46"/><ellipse class="cls-2" cx="824.44" cy="149.52" rx="9.06" ry="11.39" transform="translate(109.1 585.79) rotate(-41.66)"/><path class="cls-7" d="M870.23,108.42s-.86,17.16-22.3,20.09c-21.43,2.93-36.21,11.99-33.34,27.43,2.88,15.44,37.43,47.47,12.04,59.88-25.39,12.41-19.99-10.73-47.51-5.36-27.53,5.36-32.49-31.39-13.54-52.72,18.95-21.33,11.28-77.78,82.35-75.28,71.07,2.5,45.03,59.21,45.03,59.21,0,0-22.78-14.29-22.74-33.24Z"/><path class="cls-5" d="M883.02,133.58c-1.3,1.04-2.53,2.28-3.67,3.71-2.44,3.05-4.46,6.94-5.88,11.39-.16,.51-.31,1.02-.45,1.53-.02,.04-.02,.09-.03,.13,0,.02,0,.06-.02,.08,.64,.27,1.19,.56,1.63,.81,.18-.66,.37-1.32,.57-1.98,2.02-6.34,5.28-11.43,9.14-14.43-.42-.4-.86-.81-1.29-1.24Zm0,0c-1.3,1.04-2.53,2.28-3.67,3.71-2.44,3.05-4.46,6.94-5.88,11.39-.16,.51-.31,1.02-.45,1.53-.02,.04-.02,.09-.03,.13,0,.02,0,.06-.02,.08,.64,.27,1.19,.56,1.63,.81,.18-.66,.37-1.32,.57-1.98,2.02-6.34,5.28-11.43,9.14-14.43-.42-.4-.86-.81-1.29-1.24Zm0,0c-1.3,1.04-2.53,2.28-3.67,3.71-2.44,3.05-4.46,6.94-5.88,11.39-.16,.51-.31,1.02-.45,1.53-.02,.04-.02,.09-.03,.13,0,.02,0,.06-.02,.08,.64,.27,1.19,.56,1.63,.81,.18-.66,.37-1.32,.57-1.98,2.02-6.34,5.28-11.43,9.14-14.43-.42-.4-.86-.81-1.29-1.24Zm0,0c-1.3,1.04-2.53,2.28-3.67,3.71-2.44,3.05-4.46,6.94-5.88,11.39-.16,.51-.31,1.02-.45,1.53-.02,.04-.02,.09-.03,.13,0,.02,0,.06-.02,.08,.64,.27,1.19,.56,1.63,.81,.18-.66,.37-1.32,.57-1.98,2.02-6.34,5.28-11.43,9.14-14.43-.42-.4-.86-.81-1.29-1.24Zm0,0c-1.3,1.04-2.53,2.28-3.67,3.71-2.44,3.05-4.46,6.94-5.88,11.39-.16,.51-.31,1.02-.45,1.53-.02,.04-.02,.09-.03,.13,0,.02,0,.06-.02,.08,.64,.27,1.19,.56,1.63,.81,.18-.66,.37-1.32,.57-1.98,2.02-6.34,5.28-11.43,9.14-14.43-.42-.4-.86-.81-1.29-1.24Zm0,0c-1.3,1.04-2.53,2.28-3.67,3.71-2.44,3.05-4.46,6.94-5.88,11.39-.16,.51-.31,1.02-.45,1.53-.02,.04-.02,.09-.03,.13,0,.02,0,.06-.02,.08,.64,.27,1.19,.56,1.63,.81,.18-.66,.37-1.32,.57-1.98,2.02-6.34,5.28-11.43,9.14-14.43-.42-.4-.86-.81-1.29-1.24Zm0,0c-1.3,1.04-2.53,2.28-3.67,3.71-2.44,3.05-4.46,6.94-5.88,11.39-.16,.51-.31,1.02-.45,1.53-.02,.04-.02,.09-.03,.13,0,.02,0,.06-.02,.08,.64,.27,1.19,.56,1.63,.81,.18-.66,.37-1.32,.57-1.98,2.02-6.34,5.28-11.43,9.14-14.43-.42-.4-.86-.81-1.29-1.24Zm0,0c-1.3,1.04-2.53,2.28-3.67,3.71-2.44,3.05-4.46,6.94-5.88,11.39-.16,.51-.31,1.02-.45,1.53-.02,.04-.02,.09-.03,.13,0,.02,0,.06-.02,.08,.64,.27,1.19,.56,1.63,.81,.18-.66,.37-1.32,.57-1.98,2.02-6.34,5.28-11.43,9.14-14.43-.42-.4-.86-.81-1.29-1.24Zm0,0c-1.3,1.04-2.53,2.28-3.67,3.71-2.44,3.05-4.46,6.94-5.88,11.39-.16,.51-.31,1.02-.45,1.53-.02,.04-.02,.09-.03,.13,0,.02,0,.06-.02,.08,.64,.27,1.19,.56,1.63,.81,.18-.66,.37-1.32,.57-1.98,2.02-6.34,5.28-11.43,9.14-14.43-.42-.4-.86-.81-1.29-1.24Zm0,0c-1.3,1.04-2.53,2.28-3.67,3.71-2.44,3.05-4.46,6.94-5.88,11.39-.16,.51-.31,1.02-.45,1.53-.02,.04-.02,.09-.03,.13,0,.02,0,.06-.02,.08,.64,.27,1.19,.56,1.63,.81,.18-.66,.37-1.32,.57-1.98,2.02-6.34,5.28-11.43,9.14-14.43-.42-.4-.86-.81-1.29-1.24Zm0,0c-1.3,1.04-2.53,2.28-3.67,3.71-2.44,3.05-4.46,6.94-5.88,11.39-.16,.51-.31,1.02-.45,1.53-.02,.04-.02,.09-.03,.13,0,.02,0,.06-.02,.08,.64,.27,1.19,.56,1.63,.81,.18-.66,.37-1.32,.57-1.98,2.02-6.34,5.28-11.43,9.14-14.43-.42-.4-.86-.81-1.29-1.24Zm0,0c-1.3,1.04-2.53,2.28-3.67,3.71-2.44,3.05-4.46,6.94-5.88,11.39-.16,.51-.31,1.02-.45,1.53-.02,.04-.02,.09-.03,.13,0,.02,0,.06-.02,.08,.64,.27,1.19,.56,1.63,.81,.18-.66,.37-1.32,.57-1.98,2.02-6.34,5.28-11.43,9.14-14.43-.42-.4-.86-.81-1.29-1.24Zm0,0c-1.3,1.04-2.53,2.28-3.67,3.71-2.44,3.05-4.46,6.94-5.88,11.39-.16,.51-.31,1.02-.45,1.53-.02,.04-.02,.09-.03,.13,0,.02,0,.06-.02,.08,.64,.27,1.19,.56,1.63,.81,.18-.66,.37-1.32,.57-1.98,2.02-6.34,5.28-11.43,9.14-14.43-.42-.4-.86-.81-1.29-1.24Zm0,0c-1.3,1.04-2.53,2.28-3.67,3.71-2.44,3.05-4.46,6.94-5.88,11.39-.16,.51-.31,1.02-.45,1.53-.02,.04-.02,.09-.03,.13,0,.02,0,.06-.02,.08,.64,.27,1.19,.56,1.63,.81,.18-.66,.37-1.32,.57-1.98,2.02-6.34,5.28-11.43,9.14-14.43-.42-.4-.86-.81-1.29-1.24Zm0,0c-1.3,1.04-2.53,2.28-3.67,3.71-2.44,3.05-4.46,6.94-5.88,11.39-.16,.51-.31,1.02-.45,1.53-.02,.04-.02,.09-.03,.13,0,.02,0,.06-.02,.08,.64,.27,1.19,.56,1.63,.81,.18-.66,.37-1.32,.57-1.98,2.02-6.34,5.28-11.43,9.14-14.43-.42-.4-.86-.81-1.29-1.24Zm0,0c-1.3,1.04-2.53,2.28-3.67,3.71-2.44,3.05-4.46,6.94-5.88,11.39-.16,.51-.31,1.02-.45,1.53-.02,.04-.02,.09-.03,.13,0,.02,0,.06-.02,.08,.64,.27,1.19,.56,1.63,.81,.18-.66,.37-1.32,.57-1.98,2.02-6.34,5.28-11.43,9.14-14.43-.42-.4-.86-.81-1.29-1.24Zm0,0c-1.3,1.04-2.53,2.28-3.67,3.71-2.44,3.05-4.46,6.94-5.88,11.39-.16,.51-.31,1.02-.45,1.53-.02,.04-.02,.09-.03,.13,0,.02,0,.06-.02,.08,.64,.27,1.19,.56,1.63,.81,.18-.66,.37-1.32,.57-1.98,2.02-6.34,5.28-11.43,9.14-14.43-.42-.4-.86-.81-1.29-1.24Zm0,0c-1.3,1.04-2.53,2.28-3.67,3.71-2.44,3.05-4.46,6.94-5.88,11.39-.16,.51-.31,1.02-.45,1.53-.02,.04-.02,.09-.03,.13,0,.02,0,.06-.02,.08,.64,.27,1.19,.56,1.63,.81,.18-.66,.37-1.32,.57-1.98,2.02-6.34,5.28-11.43,9.14-14.43-.42-.4-.86-.81-1.29-1.24Zm0,0c-1.3,1.04-2.53,2.28-3.67,3.71-2.44,3.05-4.46,6.94-5.88,11.39-.16,.51-.31,1.02-.45,1.53-.02,.04-.02,.09-.03,.13,0,.02,0,.06-.02,.08,.64,.27,1.19,.56,1.63,.81,.18-.66,.37-1.32,.57-1.98,2.02-6.34,5.28-11.43,9.14-14.43-.42-.4-.86-.81-1.29-1.24Zm0,0c-1.3,1.04-2.53,2.28-3.67,3.71-2.44,3.05-4.46,6.94-5.88,11.39-.16,.51-.31,1.02-.45,1.53-.02,.04-.02,.09-.03,.13,0,.02,0,.06-.02,.08,.64,.27,1.19,.56,1.63,.81,.18-.66,.37-1.32,.57-1.98,2.02-6.34,5.28-11.43,9.14-14.43-.42-.4-.86-.81-1.29-1.24Zm0,0c-1.3,1.04-2.53,2.28-3.67,3.71-2.44,3.05-4.46,6.94-5.88,11.39-.16,.51-.31,1.02-.45,1.53-.02,.04-.02,.09-.03,.13,0,.02,0,.06-.02,.08,.64,.27,1.19,.56,1.63,.81,.18-.66,.37-1.32,.57-1.98,2.02-6.34,5.28-11.43,9.14-14.43-.42-.4-.86-.81-1.29-1.24Zm0,0c-1.3,1.04-2.53,2.28-3.67,3.71-2.44,3.05-4.46,6.94-5.88,11.39-.16,.51-.31,1.02-.45,1.53-.02,.04-.02,.09-.03,.13,0,.02,0,.06-.02,.08,.64,.27,1.19,.56,1.63,.81,.18-.66,.37-1.32,.57-1.98,2.02-6.34,5.28-11.43,9.14-14.43-.42-.4-.86-.81-1.29-1.24Zm15.02-1.63c-.56-.36-1.12-.66-1.71-.91-1.91-.83-3.93-1.09-5.99-.81-.9,.12-1.81,.34-2.72,.68-1.05,.39-2.09,.91-3.08,1.56,0,0-.02,0-.02,.02-.51,.33-1.01,.69-1.5,1.08-1.3,1.04-2.53,2.28-3.67,3.71-2.44,3.05-4.46,6.94-5.88,11.39-.16,.51-.31,1.02-.45,1.53-.02,.04-.02,.09-.03,.13,0,.02-.02,.05-.02,.08-.3,1.1-.56,2.2-.78,3.31-.97,5.03-1.06,10.1-.37,14.69,1.11,7.31,4.22,13.42,8.9,16.34,.02,.02,.06,.03,.08,.05,1.91,1.18,3.96,1.75,6.06,1.75,1.41,0,2.85-.26,4.28-.77,1.39-.51,2.74-1.26,4.03-2.22,1.09-.81,2.14-1.77,3.13-2.86,2.92-3.21,5.36-7.59,6.98-12.71,4.63-14.54,1.39-30.71-7.25-36.04Zm6.54,31.81s0,.02,0,.02c-.26,1.23-.6,2.46-.99,3.67-1.49,4.68-3.67,8.69-6.26,11.67-.93,1.07-1.91,2.01-2.93,2.79-1.24,.96-2.53,1.71-3.87,2.2-2.98,1.04-5.95,.84-8.58-.7-.1-.04-.18-.1-.27-.15-4.51-2.81-7.4-8.9-8.27-16.16-.47-3.91-.35-8.15,.42-12.41h0c.21-1.16,.46-2.32,.77-3.47,.18-.66,.37-1.32,.57-1.98,2.02-6.34,5.28-11.43,9.14-14.43,1.26-.97,2.57-1.73,3.93-2.23,.88-.32,1.77-.52,2.65-.61h0c.48-.05,.95-.06,1.42-.04,1.24,.05,2.45,.33,3.6,.87,.4,.18,.8,.39,1.18,.63,7.28,4.51,10.34,17.59,7.48,30.32Zm-21.56-30.18c-1.3,1.04-2.53,2.28-3.67,3.71-2.44,3.05-4.46,6.94-5.88,11.39-.16,.51-.31,1.02-.45,1.53-.02,.04-.02,.09-.03,.13,0,.02,0,.06-.02,.08,.64,.27,1.19,.56,1.63,.81,.18-.66,.37-1.32,.57-1.98,2.02-6.34,5.28-11.43,9.14-14.43-.42-.4-.86-.81-1.29-1.24Zm0,0c-1.3,1.04-2.53,2.28-3.67,3.71-2.44,3.05-4.46,6.94-5.88,11.39-.16,.51-.31,1.02-.45,1.53-.02,.04-.02,.09-.03,.13,0,.02,0,.06-.02,.08,.64,.27,1.19,.56,1.63,.81,.18-.66,.37-1.32,.57-1.98,2.02-6.34,5.28-11.43,9.14-14.43-.42-.4-.86-.81-1.29-1.24Zm0,0c-1.3,1.04-2.53,2.28-3.67,3.71-2.44,3.05-4.46,6.94-5.88,11.39-.16,.51-.31,1.02-.45,1.53-.02,.04-.02,.09-.03,.13,0,.02,0,.06-.02,.08,.64,.27,1.19,.56,1.63,.81,.18-.66,.37-1.32,.57-1.98,2.02-6.34,5.28-11.43,9.14-14.43-.42-.4-.86-.81-1.29-1.24Zm0,0c-1.3,1.04-2.53,2.28-3.67,3.71-2.44,3.05-4.46,6.94-5.88,11.39-.16,.51-.31,1.02-.45,1.53-.02,.04-.02,.09-.03,.13,0,.02,0,.06-.02,.08,.64,.27,1.19,.56,1.63,.81,.18-.66,.37-1.32,.57-1.98,2.02-6.34,5.28-11.43,9.14-14.43-.42-.4-.86-.81-1.29-1.24Zm0,0c-1.3,1.04-2.53,2.28-3.67,3.71-2.44,3.05-4.46,6.94-5.88,11.39-.16,.51-.31,1.02-.45,1.53-.02,.04-.02,.09-.03,.13,0,.02,0,.06-.02,.08,.64,.27,1.19,.56,1.63,.81,.18-.66,.37-1.32,.57-1.98,2.02-6.34,5.28-11.43,9.14-14.43-.42-.4-.86-.81-1.29-1.24Zm0,0c-1.3,1.04-2.53,2.28-3.67,3.71-2.44,3.05-4.46,6.94-5.88,11.39-.16,.51-.31,1.02-.45,1.53-.02,.04-.02,.09-.03,.13,0,.02,0,.06-.02,.08,.64,.27,1.19,.56,1.63,.81,.18-.66,.37-1.32,.57-1.98,2.02-6.34,5.28-11.43,9.14-14.43-.42-.4-.86-.81-1.29-1.24Zm0,0c-1.3,1.04-2.53,2.28-3.67,3.71-2.44,3.05-4.46,6.94-5.88,11.39-.16,.51-.31,1.02-.45,1.53-.02,.04-.02,.09-.03,.13,0,.02,0,.06-.02,.08,.64,.27,1.19,.56,1.63,.81,.18-.66,.37-1.32,.57-1.98,2.02-6.34,5.28-11.43,9.14-14.43-.42-.4-.86-.81-1.29-1.24Zm0,0c-1.3,1.04-2.53,2.28-3.67,3.71-2.44,3.05-4.46,6.94-5.88,11.39-.16,.51-.31,1.02-.45,1.53-.02,.04-.02,.09-.03,.13,0,.02,0,.06-.02,.08,.64,.27,1.19,.56,1.63,.81,.18-.66,.37-1.32,.57-1.98,2.02-6.34,5.28-11.43,9.14-14.43-.42-.4-.86-.81-1.29-1.24Zm0,0c-1.3,1.04-2.53,2.28-3.67,3.71-2.44,3.05-4.46,6.94-5.88,11.39-.16,.51-.31,1.02-.45,1.53-.02,.04-.02,.09-.03,.13,0,.02,0,.06-.02,.08,.64,.27,1.19,.56,1.63,.81,.18-.66,.37-1.32,.57-1.98,2.02-6.34,5.28-11.43,9.14-14.43-.42-.4-.86-.81-1.29-1.24Zm0,0c-1.3,1.04-2.53,2.28-3.67,3.71-2.44,3.05-4.46,6.94-5.88,11.39-.16,.51-.31,1.02-.45,1.53-.02,.04-.02,.09-.03,.13,0,.02,0,.06-.02,.08,.64,.27,1.19,.56,1.63,.81,.18-.66,.37-1.32,.57-1.98,2.02-6.34,5.28-11.43,9.14-14.43-.42-.4-.86-.81-1.29-1.24Zm0,0c-1.3,1.04-2.53,2.28-3.67,3.71-2.44,3.05-4.46,6.94-5.88,11.39-.16,.51-.31,1.02-.45,1.53-.02,.04-.02,.09-.03,.13,0,.02,0,.06-.02,.08,.64,.27,1.19,.56,1.63,.81,.18-.66,.37-1.32,.57-1.98,2.02-6.34,5.28-11.43,9.14-14.43-.42-.4-.86-.81-1.29-1.24Zm0,0c-1.3,1.04-2.53,2.28-3.67,3.71-2.44,3.05-4.46,6.94-5.88,11.39-.16,.51-.31,1.02-.45,1.53-.02,.04-.02,.09-.03,.13,0,.02,0,.06-.02,.08,.64,.27,1.19,.56,1.63,.81,.18-.66,.37-1.32,.57-1.98,2.02-6.34,5.28-11.43,9.14-14.43-.42-.4-.86-.81-1.29-1.24Zm0,0c-1.3,1.04-2.53,2.28-3.67,3.71-2.44,3.05-4.46,6.94-5.88,11.39-.16,.51-.31,1.02-.45,1.53-.02,.04-.02,.09-.03,.13,0,.02,0,.06-.02,.08,.64,.27,1.19,.56,1.63,.81,.18-.66,.37-1.32,.57-1.98,2.02-6.34,5.28-11.43,9.14-14.43-.42-.4-.86-.81-1.29-1.24Zm0,0c-1.3,1.04-2.53,2.28-3.67,3.71-2.44,3.05-4.46,6.94-5.88,11.39-.16,.51-.31,1.02-.45,1.53-.02,.04-.02,.09-.03,.13,0,.02,0,.06-.02,.08,.64,.27,1.19,.56,1.63,.81,.18-.66,.37-1.32,.57-1.98,2.02-6.34,5.28-11.43,9.14-14.43-.42-.4-.86-.81-1.29-1.24Zm0,0c-1.3,1.04-2.53,2.28-3.67,3.71-2.44,3.05-4.46,6.94-5.88,11.39-.16,.51-.31,1.02-.45,1.53-.02,.04-.02,.09-.03,.13,0,.02,0,.06-.02,.08,.64,.27,1.19,.56,1.63,.81,.18-.66,.37-1.32,.57-1.98,2.02-6.34,5.28-11.43,9.14-14.43-.42-.4-.86-.81-1.29-1.24Zm0,0c-1.3,1.04-2.53,2.28-3.67,3.71-2.44,3.05-4.46,6.94-5.88,11.39-.16,.51-.31,1.02-.45,1.53-.02,.04-.02,.09-.03,.13,0,.02,0,.06-.02,.08,.64,.27,1.19,.56,1.63,.81,.18-.66,.37-1.32,.57-1.98,2.02-6.34,5.28-11.43,9.14-14.43-.42-.4-.86-.81-1.29-1.24Zm0,0c-1.3,1.04-2.53,2.28-3.67,3.71-2.44,3.05-4.46,6.94-5.88,11.39-.16,.51-.31,1.02-.45,1.53-.02,.04-.02,.09-.03,.13,0,.02,0,.06-.02,.08,.64,.27,1.19,.56,1.63,.81,.18-.66,.37-1.32,.57-1.98,2.02-6.34,5.28-11.43,9.14-14.43-.42-.4-.86-.81-1.29-1.24Zm0,0c-1.3,1.04-2.53,2.28-3.67,3.71-2.44,3.05-4.46,6.94-5.88,11.39-.16,.51-.31,1.02-.45,1.53-.02,.04-.02,.09-.03,.13,0,.02,0,.06-.02,.08,.64,.27,1.19,.56,1.63,.81,.18-.66,.37-1.32,.57-1.98,2.02-6.34,5.28-11.43,9.14-14.43-.42-.4-.86-.81-1.29-1.24Zm0,0c-1.3,1.04-2.53,2.28-3.67,3.71-2.44,3.05-4.46,6.94-5.88,11.39-.16,.51-.31,1.02-.45,1.53-.02,.04-.02,.09-.03,.13,0,.02,0,.06-.02,.08,.64,.27,1.19,.56,1.63,.81,.18-.66,.37-1.32,.57-1.98,2.02-6.34,5.28-11.43,9.14-14.43-.42-.4-.86-.81-1.29-1.24Zm0,0c-1.3,1.04-2.53,2.28-3.67,3.71-2.44,3.05-4.46,6.94-5.88,11.39-.16,.51-.31,1.02-.45,1.53-.02,.04-.02,.09-.03,.13,0,.02,0,.06-.02,.08,.64,.27,1.19,.56,1.63,.81,.18-.66,.37-1.32,.57-1.98,2.02-6.34,5.28-11.43,9.14-14.43-.42-.4-.86-.81-1.29-1.24Zm0,0c-1.3,1.04-2.53,2.28-3.67,3.71-2.44,3.05-4.46,6.94-5.88,11.39-.16,.51-.31,1.02-.45,1.53-.02,.04-.02,.09-.03,.13,0,.02,0,.06-.02,.08,.64,.27,1.19,.56,1.63,.81,.18-.66,.37-1.32,.57-1.98,2.02-6.34,5.28-11.43,9.14-14.43-.42-.4-.86-.81-1.29-1.24Zm0,0c-1.3,1.04-2.53,2.28-3.67,3.71-2.44,3.05-4.46,6.94-5.88,11.39-.16,.51-.31,1.02-.45,1.53-.02,.04-.02,.09-.03,.13,0,.02,0,.06-.02,.08,.64,.27,1.19,.56,1.63,.81,.18-.66,.37-1.32,.57-1.98,2.02-6.34,5.28-11.43,9.14-14.43-.42-.4-.86-.81-1.29-1.24Z"/><path class="cls-5" d="M859.5,124.72c-2.06-2.77-4.57-4.94-7.42-6.28-4.24-1.99-8.73-1.96-13.02,.1-3.08,1.5-5.79,3.94-7.99,7.09-1.77,2.55-3.21,5.58-4.23,8.96-.24,.81-.46,1.63-.65,2.46-.21,.88-.38,1.77-.52,2.66-1.14,7.05-.35,14.2,1.93,20.18,2.21,5.79,5.8,10.51,10.4,13.02,.3,.17,.61,.33,.92,.47,2.09,1,4.25,1.5,6.4,1.5,1.2,0,2.42-.16,3.62-.49,1-.26,1.98-.62,2.97-1.09,6.16-2.99,10.87-9.74,12.9-18.54,.19-.81,.35-1.63,.49-2.45,.19-1.12,.33-2.24,.41-3.36,.73-9.13-1.66-18.11-6.22-24.22Zm3.99,27.7c-.11,.65-.24,1.29-.39,1.94-1.31,5.6-3.83,10.42-7.1,13.77-.02,.02-.03,.04-.05,.06-1.47,1.5-3.08,2.69-4.81,3.53-.68,.32-1.36,.57-2.05,.78-3.13,.92-6.34,.69-9.41-.7-.33-.15-.65-.32-.97-.5-4.1-2.3-7.33-6.54-9.37-11.75-1.56-4-2.42-8.58-2.42-13.32,0-1.91,.14-3.84,.43-5.77,.14-1,.33-1.99,.57-2.98,.32-1.37,.71-2.7,1.18-3.97h0c.3-.86,.64-1.68,1.02-2.49,0-.02,.02-.02,.02-.04,.02-.03,.03-.06,.05-.1,0,0,0-.02,.02-.03,.02-.05,.04-.09,.07-.14,2.28-4.89,5.64-8.66,9.56-10.57,1.91-.92,3.88-1.39,5.86-1.39s3.79,.44,5.63,1.29c2.53,1.19,4.76,3.1,6.62,5.52,4.45,5.8,6.76,14.55,5.99,23.47-.1,1.13-.24,2.26-.45,3.4Z"/><path class="cls-5" d="M874.97,155.16c-.37,0-.75-.13-1.06-.39h0c-.18-.15-4.5-3.53-11.95-2.11-.88,.13-1.78-.41-1.96-1.32-.18-.9,.41-1.78,1.32-1.93,9-1.88,14.48,2.6,14.72,2.78,.7,.59,.8,1.65,.21,2.35-.32,.41-.8,.62-1.28,.62Z"/><path class="cls-5" d="M667.09,288.5c-2.06,5.98,13.47,17.17,34.69,25,21.22,7.83,40.09,9.33,42.15,3.35,2.06-5.98-13.47-17.17-34.69-25-21.22-7.83-40.09-9.33-42.15-3.35Z"/><path d="M830.47,342.55s14.2,72.9,123.89,82.69c109.69,9.78,108.96-14.86,96.14-32.04-21.16-28.36-87.67-5.58-119.45-28.16-31.79-22.57-115.28-52.61-100.58-22.49Z"/><path d="M1055.32,420.8c-.14-6.43-.77-10.79-1.92-11.87-6.66-6.26-146.02,29.55-224.54-73.66,3.07-16.91,73.58,9.45,102.2,29.77,31.78,22.57,93.11,4.51,119.45,28.16,12.52,11.24,7.64,14.43,4.82,27.6Z"/><g><g><polygon class="cls-5" points="1074.26 323.98 949.64 292.36 902.09 435.87 912.55 438.52 1037.17 470.14 1046.8 472.59 1074.26 323.98 1074.26 323.98"/><polygon class="cls-5" points="949.64 292.36 902.09 435.87 912.55 438.52 913.39 438.74 922.99 441.17 950.48 292.58 949.64 292.36 949.64 292.36"/><polygon class="cls-5" points="1078.07 308.96 953.45 277.34 949.64 292.36 1074.26 323.98 1078.07 308.96 1078.07 308.96"/></g><path class="cls-10" d="M1026.3,379.39c3.26-12.84-4.67-25.96-17.69-29.26-13.04-3.31-26.27,4.44-29.53,17.28-3.26,12.87,4.66,25.99,17.71,29.3,13.02,3.3,26.24-4.45,29.51-17.32h0Z"/></g><path class="cls-2" d="M1070.56,292.79s18.24,4.95,13.83,20.3c-5.62,19.55-32.93,38.25-29.55,25.81,2.99-11.03,11.31-25.62,11.31-25.62,0,0-21.71,36.8-28.52,29.72-6.81-7.07,12.32-38.46,12.32-38.46,0,0-24.83,33.85-29.01,25.3-4.18-8.55,10.08-32.87,10.08-32.87,0,0-19.39,30.07-24.01,20.04-4.61-10.03,10.87-25.5,15.77-33.5,4.63-7.56,11.46-7.06,19.12-2.13,0,0,10.54,.87,14.71,5.25,1.6,1.68,4.59,1.05,6.14,1.69,2.95,1.23,7.8,4.46,7.8,4.46Z"/><path class="cls-11" d="M1030.02,526.07c-18.98-4.51-36.07,13.63-67.55,4.93-31.48-8.69-65.46-3.42-89.35,0-23.88,3.43-73.17,3.35-65.58-32.02,7.59-35.36,33.79-94.81,19.39-111.36-14.4-16.55,1.83-52.49,1.83-52.49,.04,.05,.08,.1,.11,.14-.34,1.87,.15,4.27,1.62,7.28,0,0,14.2,72.9,123.89,82.69,57.53,5.13,89.59,1.86,102.14-5.15,.68,30.74-10.79,109.71-26.48,105.98Z"/><g><path class="cls-2" d="M841.24,454.82l-18.49-17.18c.1-5.93-10.07-17.64-15.21-14.69-31.76,18.27-55.59,6.22-67.13-10.1-16.02-22.66-14.33-57.85-9.87-82.25,2.28-12.49-1.84-20.84-16.92-28.85,0,0-12.98-7.14-28.98-9.87-6.41-1.09-12.77,1.48-14.43,7.77-2.59,9.84-5.94,25.16-7.54,43.18-3.8,42.8,4.46,80.02,23.87,107.66,23.83,33.92,81.34,58.8,144.28,37.58,33.06-11.14,10.31-26.85,10.41-33.25Z"/><g><path class="cls-2" d="M807.53,422.95s5.47-33.23,22.12-43.78c16.65-10.55,45.9-11.43,36.97-2.7s-23.43,16.73-23.43,16.73c0,0,31.78-15.64,32.22-6.62,.44,9.02-27.33,22.35-27.33,22.35,0,0,39.3-15.59,36.96-6.94-2.34,8.65-32.28,20.29-32.28,20.29,0,0,37.14-13.05,34.19-3.06-2.96,9.99-30.77,10.58-30.33,19.6,.44,9.02-.87,44.98-25.78,49.26l-23.29-65.12Z"/><path class="cls-12" d="M832.43,402.42l-1.4-.41c1.84-6.22,11.52-9.37,11.93-9.5l.44,1.39c-.09,.03-9.36,3.05-10.98,8.52Z"/><path class="cls-12" d="M835.04,420.03l-1.29-.68c4.28-8.11,13.71-11,14.11-11.12l.42,1.39c-.09,.03-9.25,2.84-13.24,10.4Z"/><path class="cls-12" d="M840.61,432.52l-1.43-.29c1.4-6.79,12.85-10.5,13.34-10.65l.44,1.39c-.11,.04-11.13,3.6-12.35,9.56Z"/></g></g><path class="cls-5" d="M888.18,613.95c-8.88-16.85-131.25,7.76-158.29,15.55-5.63,1.63-9.98,6.25-11.31,12.18l1.78,423.53c56.16-1.53,112.26-2.67,173.84-2.87l-8.75-435.38c3.19-10.24,3.84-10.93,2.73-13.01Z"/><g><path class="cls-6" d="M676.45,554.81l-2.68-27.51c-.91-9.35-8.71-16.52-18.1-16.64l-442.26-5.74c-9.72-.13-17.87,7.32-18.61,17.01l-3.09,40.05c-.83,10.82,7.81,20.01,18.65,19.85l13.11-.2c3.46,37.14,14.61,148.12,48.2,491.15,12.4,1.31,25,1.94,37.73,1.84,118.59-.85,212.02-3.44,297.48-6.03,6.29-46.39,18.41-168.56,53.01-490.45,.12-1.09,.12-2.17,.04-3.23,10.01-.99,17.51-9.91,16.51-20.11Z"/><rect class="cls-6" x="223.38" y="577" width="435.03" height="2.65" transform="translate(-8.72 6.75) rotate(-.87)"/></g><g><path class="cls-7" d="M1224.31,557.75c-139.57-3.88-247.29-6.89-401.27-11.17-11.1-.3-19.93,9.18-18.86,20.22,30.09,307.51,42.82,439.33,49.03,495.82,94.1-.95,198.86,.16,336.39,5.57,15.25-142.26,52.47-489.54,52.53-490.05,1.16-10.56-6.96-20.08-17.81-20.39Z"/><path class="cls-7" d="M1237.9,510.66l-442.26-5.74c-9.72-.13-17.87,7.32-18.61,17.01l-3.09,40.05c-.83,10.82,7.81,20.01,18.65,19.85l448.03-6.8c10.77-.16,19.11-9.49,18.06-20.21l-2.68-27.51c-.91-9.35-8.71-16.52-18.1-16.64Z"/><rect class="cls-7" x="805.61" y="577" width="435.03" height="2.65" transform="translate(-8.65 15.59) rotate(-.87)"/></g><path class="cls-5" d="M1934.47,948.91l-49.32-210.21c-8.97-27.22-27.39-49.93-51.88-63.96l1.55-2.71c25.18,14.43,44.11,37.78,53.32,65.75l.04,.13,49.33,210.27-3.03,.71Z"/><g><g><path class="cls-3" d="M1885.39,556.85c84.42,2.34-31.37-.89,0,0h0Z"/><path class="cls-3" d="M1917.23,557.75c-16.36-.46-26.36-.74-31.84-.9-45.78-1.27-150.45-4.18-369.43-10.27-11.1-.3-19.94,9.18-18.86,20.22,2.15,21.96,39.32,402.55,50.53,517.34,130.91,4.27,242.05,3.81,333.46-7.85,51.56-479.45,54.09-498.69,54.05-500.4,0-9.35-7.68-17.85-17.91-18.14Z"/></g><path class="cls-3" d="M1930.82,510.66l-442.26-5.74c-9.72-.13-17.87,7.32-18.61,17.01l-3.09,40.05c-.83,10.82,7.81,20.01,18.65,19.85l448.03-6.8c10.77-.16,19.11-9.49,18.06-20.21l-2.68-27.51c-.91-9.35-8.71-16.52-18.1-16.64Z"/><rect class="cls-3" x="1498.53" y="577" width="435.03" height="2.65" transform="translate(-8.51 25.89) rotate(-.86)"/></g></g></g></svg>
