<?xml version="1.0" encoding="UTF-8"?><svg id="Calque_2" xmlns="http://www.w3.org/2000/svg" viewBox="0 0 517.4 176.76"><defs><style>.cls-1{fill:#00A651;}</style></defs><g id="Calque_1-2"><g><path class="cls-1" d="M56.98,114.64l9.84,8.23,4.36-4.11c-1.37,3.21-5.03,9.55-7.45,11.83l-14.93-12.01c10.67-8.63,14.15-14.01,14.15-21.56,0-14.22-12.35-24.94-28.72-24.94s-28.72,10.72-28.72,24.94c0,6.86,3.51,12.87,12.03,20.47C6.15,125.61,0,132.25,0,142.76c0,12.23,13.86,25.31,34.5,25.31,12.33,0,24.16-4.16,31.96-11.17l7.18,5.7-4.96-.06v13.87h33.73v-30.92s-14.6,.09-14.6,.09l.04,4.81-9.56-8c1.68-2.14,6.44-5.81,11.2-18.15l3.17,3.18,9.76-9.43-23.82-24.02-21.63,20.66Zm-23.07-8.12l-.2-.18c-5.12-4.44-7.38-6.52-7.38-9.33,0-3.9,4.11-6.32,7.91-6.32s7.78,2.54,7.78,6.32c0,1.31,0,3.09-8.1,9.5Zm-1.06,23.41l18.07,14.46c-2.8,1.93-8.56,5.07-16.41,5.07s-13.14-3.86-13.14-7.58c0-2.56,1.2-3.86,11.48-11.95Z"/><g><path class="cls-1" d="M108.77,51.79c-.78,6.9-4.1,9.8-9.29,9.8-6.75,0-9.33-5.17-9.33-19.69s2.46-18.55,9.21-18.55c4.3,0,8.37,1.89,8.92,12.56h26.97c0-21.98-13.73-33.8-35-33.8-23.88,0-37.95,14.97-37.95,41.87s13.04,38.86,36.16,38.86,36.76-12.56,37.02-31.06h-26.71Z"/><path class="cls-1" d="M143.72,0V81.42h25.96V0h-25.96Z"/><path class="cls-1" d="M241.12,51.93c0-16.63-9.83-29.75-30.28-29.75s-32.91,11.96-32.91,31.52c0,18.33,11.2,29.13,32.07,29.13,17.91,0,30.33-8.35,30.37-21.05h-25.1c-.76,3.16-2.17,4.53-4.6,4.53-3.67,0-5.54-2.94-5.97-10.2h36.24s.17-2.02,.17-4.19Zm-25.75-3.35h-10.67c.4-8.12,2.16-11.41,5.74-11.41h.01c3.32,0,4.92,3.01,4.92,10.35v1.06Z"/><path class="cls-1" d="M307.99,65.36c-1.31,0-1.99-.65-1.97-2.37l.14-15.44c.15-17.32-8.33-25.38-26.75-25.38s-31.06,8.36-30.25,20.15h22.51c.33-3.93,1.75-5.66,4.53-5.66s4.08,1.81,4.04,5.9l-.06,5.75h-2.66c-21.73,0-30.92,5.6-30.92,18.15,0,10.51,6.37,16.33,17.75,16.33,7.92,0,13.54-2.8,17.56-6.73,2.2,4.55,6.37,6.61,13.07,6.61,7.11,0,13.16-2.52,15.38-3.57v-14.39s-1.07,.63-2.37,.63Zm-27.96-2.07c-.94,.82-2.3,1.32-4.23,1.32-3.69,0-5.32-2.01-5.32-4.44,0-3,2.51-4.82,6.69-4.82h2.94l-.08,7.93Z"/><path class="cls-1" d="M359.88,22.18c-8.06,0-14.72,2.93-18.57,6.77h0v-5.35h-23.31v57.82h25.96V44.3c1.74-1.28,3.88-2.16,6.48-2.16,4.54,0,6.21,2.71,6.21,8.63v30.65h25.96V45.5c0-15.68-9.7-23.31-22.73-23.31Z"/></g><g><path class="cls-1" d="M164.17,145.79c-.63,7.12-3.93,10.13-9.13,10.13-6.61,0-9.16-5.06-9.16-19.28s2.42-18.18,9.05-18.18c4.18,0,8.18,1.87,8.72,12.3h26.43c0-21.53-13.44-33.12-34.29-33.12-23.38,0-37.18,14.66-37.18,41.03s12.78,38.08,35.44,38.08,36.31-12.53,36.31-30.97h-26.18Z"/><path class="cls-1" d="M228.03,117.32c-21.02,0-33.12,11.54-33.12,30.57s11.59,28.86,31.5,28.86c21.03,0,33.12-11.55,33.12-30.58s-11.59-28.85-31.5-28.85Zm-.69,43.24c-4.48,0-6.29-3.82-6.29-13.54s1.7-13.51,6.07-13.51,6.29,3.84,6.29,13.56-1.7,13.5-6.07,13.5Z"/><path class="cls-1" d="M268.87,95.58v79.79h25.45V95.58h-25.45Z"/><path class="cls-1" d="M304.64,95.58v79.79h25.45V95.58h-25.45Z"/><path class="cls-1" d="M400.1,146.46h-.01c0-16.31-9.63-29.15-29.66-29.15s-32.24,11.71-32.24,30.89c0,17.95,10.96,28.55,31.41,28.55,17.6,0,29.76-8.23,29.77-20.7h-24.58c-.73,3.15-2.13,4.51-4.52,4.51-3.6,0-5.44-2.88-5.86-9.98h35.52s.17-1.98,.17-4.11Zm-25.24-3.29h-10.46c.39-7.94,2.13-11.17,5.63-11.17,3.26,0,4.84,2.95,4.84,10.14,0,.33,0,.67-.01,1.02Z"/><path class="cls-1" d="M442.33,153.66c-.46,4.87-1.64,6.9-4.2,6.9-3.44,0-5.25-3.84-5.25-13.54s1.68-13.5,5.13-13.5c2.9,0,4.12,2.59,4.46,8.92h22.76c1.4-15.43-8.68-25.1-26.19-25.1s-32.3,10.45-32.3,31.12,13.7,28.25,30.22,28.25c18.13,0,28.91-9.34,28.27-23.05h-22.91Z"/><path class="cls-1" d="M517.4,137.2v-18.5h-15.52v-13.25l-24.14,.11-.63,13.13h-7.47v18.5h6.99l-.19,17.88c-.14,13.78,7.59,21.67,23.58,21.67,8.02,0,14.02-1.98,17.38-3.47v-19.41c-.59,.33-3.98,2.07-8.31,2.07-4.64,0-7.26-2.04-7.19-7.02l.14-11.72h15.37Z"/></g></g></g></svg>
