<?xml version="1.0" encoding="UTF-8"?><svg id="Calque_2" xmlns="http://www.w3.org/2000/svg" viewBox="0 0 496.71 148.95"><defs><style>.cls-1{fill:#02004d;}</style></defs><g id="Calque_1-2"><g><path class="cls-1" d="M115.28,105.3v11.25l-13.26-11.64s8.15-11.92,10.9-33.3l7.44,7.45,12.23-12.24-30.92-30.92-30.91,30.92,12.99,11.48,6.8-6.8c-1.88,12.43-5.76,18.32-5.76,18.32l-24.97-22.07c17.04-14.52,21.88-22.07,21.88-33.1C81.69,15.88,66.59,0,44.71,0S7.75,15.88,7.75,34.65c0,9.68,4.84,18.78,18.97,31.74C5.04,82.66,0,92.14,0,104.91c0,17.23,18.39,35.23,45.1,35.23,18.78,0,35.23-7.75,44.71-18.39l10.02,8.9h-10.99s0,17.3,0,17.3h43.73v-43.72s-17.31,1.07-17.31,1.07ZM44.71,21.29c6.58,0,14.33,5.04,14.33,13.36,0,4.26-1.74,8.32-14.9,19.35-8.9-8.51-13.94-12.58-13.94-19.35,0-7.94,7.16-13.36,14.52-13.36Zm.39,97.56c-10.84,0-21.87-5.61-21.87-15.3,0-6.19,3.29-9.09,19.55-23.03l30.77,26.91c-6.19,6.19-16.84,11.42-28.46,11.42Z"/><g><path class="cls-1" d="M183.71,45.59c-.67,5.93-3.54,8.43-8.01,8.43-5.81,0-8.03-4.45-8.03-16.95s2.11-15.97,7.92-15.97c3.7,0,7.21,1.63,7.68,10.81h23.22c0-18.92-11.83-29.1-30.13-29.1-20.56,0-32.67,12.88-32.67,36.04s11.24,33.46,31.13,33.46,31.66-10.81,31.88-26.74h-23Z"/><path class="cls-1" d="M213.8,71.1V1h22.35V71.1h-22.35Z"/><path class="cls-1" d="M297.51,49.32s.15-1.74,.15-3.61c0-14.32-8.47-25.61-26.07-25.61s-28.33,10.3-28.33,27.14c0,15.78,9.64,25.08,27.61,25.08,15.42,0,26.1-7.2,26.15-18.12h-21.61c-.65,2.73-1.87,3.9-3.96,3.9-3.16,0-4.77-2.54-5.14-8.78h31.2Zm-31.21-6.5c.34-6.99,1.86-9.82,4.94-9.82h0c2.86,0,4.24,2.59,4.24,8.91,0,.29,0,.59,0,.91h-9.18Z"/><path class="cls-1" d="M357.27,56.72s-.92,.55-2.05,.55-1.71-.57-1.7-2.05l.12-13.29c.13-14.91-7.18-21.85-23.03-21.85s-26.74,7.2-26.04,17.35h19.37c.28-3.38,1.51-4.87,3.9-4.87s3.51,1.56,3.48,5.07l-.05,4.95h-2.29c-18.71,0-26.62,4.82-26.62,15.64,0,9.04,5.48,14.06,15.28,14.06,6.83,0,11.67-2.41,15.13-5.8,1.89,3.92,5.48,5.7,11.25,5.7,7.72,0,14.01-3.46,14.01-3.46l-.77-12Zm-26.11-1.24c-.81,.71-1.98,1.14-3.64,1.14-3.18,0-4.58-1.74-4.58-3.82,0-2.58,2.16-4.15,5.76-4.15h2.53l-.07,6.83Z"/><path class="cls-1" d="M399.91,20.1c11.22,0,19.57,6.57,19.57,20.07v30.93h-22.35v-26.39c0-5.1-1.44-7.43-5.35-7.43-2.23,0-4.08,.76-5.58,1.86v31.96h-22.35V21.32h20.07l.94,4.61c3.31-3.32,8.12-5.83,15.06-5.83h0Z"/><path class="cls-1" d="M186.36,121.75c-.55,6.26-3.45,8.9-8.03,8.9-5.81,0-8.05-4.45-8.05-16.95s2.13-15.97,7.94-15.97c3.68,0,7.19,1.65,7.66,10.81h23.22c0-18.92-11.8-29.1-30.13-29.1-20.54,0-32.67,12.88-32.67,36.04s11.24,33.46,31.15,33.46,31.9-11.01,31.9-27.21h-23Z"/><path class="cls-1" d="M270.15,122.07c0,16.72-10.63,26.86-29.1,26.86-17.5,0-27.68-8.96-27.68-25.35s10.62-26.87,29.1-26.87c17.5,0,27.68,8.96,27.68,25.35Zm-22.96,.78c0-8.54-1.58-11.91-5.53-11.91s-5.33,3.36-5.33,11.87,1.58,11.9,5.53,11.9,5.33-3.36,5.33-11.87Z"/><path class="cls-1" d="M277.27,147.72V77.62h22.35v70.1h-22.35Z"/><path class="cls-1" d="M309.78,147.72V77.62h22.35v70.1h-22.35Z"/><path class="cls-1" d="M393.65,122.33h0c0-14.32-8.46-25.61-26.06-25.61s-28.33,10.3-28.33,27.14c0,15.78,9.63,25.08,27.6,25.08,15.46,0,26.15-7.23,26.16-18.19h-21.6c-.64,2.77-1.87,3.96-3.97,3.96-3.16,0-4.77-2.53-5.15-8.77h31.21s.15-1.74,.15-3.61Zm-22.18-2.89h-9.19c.34-6.99,1.87-9.82,4.95-9.82,2.86,0,4.25,2.59,4.25,8.91,0,.29,0,.59,0,.91Z"/><path class="cls-1" d="M430.75,128.65c-.4,4.28-1.44,6.06-3.69,6.06-3.03,0-4.61-3.37-4.61-11.9s1.48-11.86,4.51-11.86c2.56,0,3.62,2.28,3.92,7.85h20c1.23-13.56-7.64-22.06-23.01-22.06s-28.38,9.18-28.38,27.35,12.04,24.82,26.55,24.82c15.94,0,25.4-8.21,24.85-20.26h-20.13Z"/><path class="cls-1" d="M496.71,114.19v-16.25h-13.65v-11.65l-21.21,.1-.55,11.54h-6.56v16.25h6.14l-.17,15.71c-.12,12.11,6.67,19.04,20.72,19.04,7.05,0,12.33-1.74,15.28-3.05v-17.06c-.53,.29-3.51,1.83-7.31,1.83-4.07,0-6.37-1.79-6.32-6.18l.12-10.3h13.5Z"/></g></g></g></svg>